<svg width="1337" height="960" viewBox="0 0 1337 960" fill="none" xmlns="http://www.w3.org/2000/svg">
<rect width="1337" height="960" rx="50" fill="#010222"/>
<rect x="113.274" y="336.117" width="527.372" height="581.224" rx="40" fill="white" fill-opacity="0.19"/>
<path d="M175.481 565.525C175.481 543.434 193.39 525.525 215.481 525.525H537.51C559.601 525.525 577.51 543.434 577.51 565.525V917.34H175.481V565.525Z" fill="white" fill-opacity="0.22"/>
<path d="M175.481 565.525C175.481 543.434 193.39 525.525 215.481 525.525H537.51C559.601 525.525 577.51 543.434 577.51 565.525V567.306H175.481V565.525Z" fill="#050505"/>
<circle cx="222.833" cy="544.094" r="9.28472" fill="#FF0000"/>
<circle cx="250.688" cy="544.094" r="9.28472" fill="#FFC700"/>
<circle cx="278.542" cy="544.094" r="9.28472" fill="#00FF66"/>
<rect x="213.549" y="603.517" width="170.839" height="149.381" rx="30" fill="white" fill-opacity="0.3"/>
<g filter="url(#filter0_d_10_36)">
<rect x="234.181" y="616.722" width="13.2049" height="122.146" rx="6.60247" fill="url(#paint0_linear_10_36)"/>
</g>
<rect x="263.892" y="696.777" width="13.2049" height="42.0907" rx="6.60247" fill="#D9D9D9"/>
<rect x="293.604" y="672.017" width="13.2049" height="66.85" rx="6.60247" fill="#D9D9D9"/>
<rect x="323.315" y="616.722" width="13.2049" height="122.146" rx="6.60247" fill="#D9D9D9"/>
<rect x="353.026" y="719.885" width="13.2049" height="18.9821" rx="6.60247" fill="#D9D9D9"/>
<rect x="208.906" y="804.995" width="322.18" height="20.4264" rx="10.2132" fill="#D9D9D9"/>
<rect x="208.906" y="838.42" width="233.047" height="20.4264" rx="10.2132" fill="#D9D9D9"/>
<rect x="208.906" y="871.845" width="119.773" height="20.4264" rx="10.2132" fill="#D9D9D9"/>
<circle cx="485.591" cy="677.794" r="51.2792" stroke="url(#paint1_angular_10_36)" stroke-width="20"/>
<path d="M474.221 670.44L465.881 690H463.121L471.581 670.71H460.001V668.37H474.221V670.44ZM477.248 678.93C477.248 675.49 477.808 672.81 478.928 670.89C480.048 668.95 482.008 667.98 484.808 667.98C487.588 667.98 489.538 668.95 490.658 670.89C491.778 672.81 492.338 675.49 492.338 678.93C492.338 682.43 491.778 685.15 490.658 687.09C489.538 689.03 487.588 690 484.808 690C482.008 690 480.048 689.03 478.928 687.09C477.808 685.15 477.248 682.43 477.248 678.93ZM489.638 678.93C489.638 677.19 489.518 675.72 489.278 674.52C489.058 673.3 488.588 672.32 487.868 671.58C487.168 670.84 486.148 670.47 484.808 670.47C483.448 670.47 482.408 670.84 481.688 671.58C480.988 672.32 480.518 673.3 480.278 674.52C480.058 675.72 479.948 677.19 479.948 678.93C479.948 680.73 480.058 682.24 480.278 683.46C480.518 684.68 480.988 685.66 481.688 686.4C482.408 687.14 483.448 687.51 484.808 687.51C486.148 687.51 487.168 687.14 487.868 686.4C488.588 685.66 489.058 684.68 489.278 683.46C489.518 682.24 489.638 680.73 489.638 678.93ZM495.486 673.2C495.486 671.84 495.896 670.76 496.716 669.96C497.536 669.14 498.586 668.73 499.866 668.73C501.146 668.73 502.196 669.14 503.016 669.96C503.836 670.76 504.246 671.84 504.246 673.2C504.246 674.58 503.836 675.68 503.016 676.5C502.196 677.3 501.146 677.7 499.866 677.7C498.586 677.7 497.536 677.3 496.716 676.5C495.896 675.68 495.486 674.58 495.486 673.2ZM513.006 669.06L500.856 690H498.156L510.306 669.06H513.006ZM499.866 670.41C499.186 670.41 498.646 670.65 498.246 671.13C497.866 671.59 497.676 672.28 497.676 673.2C497.676 674.12 497.866 674.82 498.246 675.3C498.646 675.78 499.186 676.02 499.866 676.02C500.546 676.02 501.086 675.78 501.486 675.3C501.886 674.8 502.086 674.1 502.086 673.2C502.086 672.28 501.886 671.59 501.486 671.13C501.086 670.65 500.546 670.41 499.866 670.41ZM506.976 685.86C506.976 684.48 507.386 683.39 508.206 682.59C509.026 681.77 510.076 681.36 511.356 681.36C512.636 681.36 513.676 681.77 514.476 682.59C515.296 683.39 515.706 684.48 515.706 685.86C515.706 687.22 515.296 688.31 514.476 689.13C513.676 689.95 512.636 690.36 511.356 690.36C510.076 690.36 509.026 689.96 508.206 689.16C507.386 688.34 506.976 687.24 506.976 685.86ZM511.326 683.07C510.646 683.07 510.106 683.31 509.706 683.79C509.306 684.25 509.106 684.94 509.106 685.86C509.106 686.76 509.306 687.45 509.706 687.93C510.106 688.39 510.646 688.62 511.326 688.62C512.006 688.62 512.546 688.39 512.946 687.93C513.346 687.45 513.546 686.76 513.546 685.86C513.546 684.94 513.346 684.25 512.946 683.79C512.546 683.31 512.006 683.07 511.326 683.07Z" fill="white"/>
<defs>
<filter id="filter0_d_10_36" x="230.181" y="616.722" width="21.2049" height="130.146" filterUnits="userSpaceOnUse" color-interpolation-filters="sRGB">
<feFlood flood-opacity="0" result="BackgroundImageFix"/>
<feColorMatrix in="SourceAlpha" type="matrix" values="0 0 0 0 0 0 0 0 0 0 0 0 0 0 0 0 0 0 127 0" result="hardAlpha"/>
<feOffset dy="4"/>
<feGaussianBlur stdDeviation="2"/>
<feComposite in2="hardAlpha" operator="out"/>
<feColorMatrix type="matrix" values="0 0 0 0 0 0 0 0 0 0 0 0 0 0 0 0 0 0 0.25 0"/>
<feBlend mode="normal" in2="BackgroundImageFix" result="effect1_dropShadow_10_36"/>
<feBlend mode="normal" in="SourceGraphic" in2="effect1_dropShadow_10_36" result="shape"/>
</filter>
<linearGradient id="paint0_linear_10_36" x1="240.474" y1="627.657" x2="240.474" y2="739.074" gradientUnits="userSpaceOnUse">
<stop stop-color="white"/>
<stop offset="1" stop-color="#007DFC"/>
</linearGradient>
<radialGradient id="paint1_angular_10_36" cx="0" cy="0" r="1" gradientUnits="userSpaceOnUse" gradientTransform="translate(485.591 677.794) rotate(90) scale(61.2792)">
<stop stop-color="#007DFC"/>
<stop offset="1" stop-color="white"/>
</radialGradient>
</defs>
</svg>
