<svg width="528" height="582" viewBox="0 0 528 582" fill="none" xmlns="http://www.w3.org/2000/svg">
<rect x="0.273621" y="0.116669" width="527.372" height="581.224" rx="40" fill="white" fill-opacity="0.19"/>
<path d="M62.4812 229.525C62.4812 207.434 80.3898 189.525 102.481 189.525H424.51C446.601 189.525 464.51 207.434 464.51 229.525V581.34H62.4812V229.525Z" fill="white" fill-opacity="0.22"/>
<path d="M62.4812 229.525C62.4812 207.434 80.3898 189.525 102.481 189.525H424.51C446.601 189.525 464.51 207.434 464.51 229.525V231.306H62.4812V229.525Z" fill="#050505"/>
<circle cx="109.833" cy="208.094" r="9.28472" fill="#FF0000"/>
<circle cx="137.688" cy="208.094" r="9.28472" fill="#FFC700"/>
<circle cx="165.542" cy="208.094" r="9.28472" fill="#00FF66"/>
<rect x="100.549" y="267.517" width="170.839" height="149.381" rx="30" fill="white" fill-opacity="0.3"/>
<g filter="url(#filter0_d_10_36)">
<rect x="121.181" y="280.722" width="13.2049" height="122.146" rx="6.60247" fill="url(#paint0_linear_10_36)"/>
</g>
<rect x="150.892" y="360.777" width="13.2049" height="42.0907" rx="6.60247" fill="#D9D9D9"/>
<rect x="180.604" y="336.017" width="13.2049" height="66.85" rx="6.60247" fill="#D9D9D9"/>
<rect x="210.315" y="280.722" width="13.2049" height="122.146" rx="6.60247" fill="#D9D9D9"/>
<rect x="240.026" y="383.885" width="13.2049" height="18.9821" rx="6.60247" fill="#D9D9D9"/>
<rect x="95.9063" y="468.995" width="322.18" height="20.4264" rx="10.2132" fill="#D9D9D9"/>
<rect x="95.9063" y="502.42" width="233.047" height="20.4264" rx="10.2132" fill="#D9D9D9"/>
<rect x="95.9063" y="535.845" width="119.773" height="20.4264" rx="10.2132" fill="#D9D9D9"/>
<circle cx="372.591" cy="341.794" r="51.2792" stroke="url(#paint1_angular_10_36)" stroke-width="20"/>
<path d="M361.221 334.44L352.881 354H350.121L358.581 334.71H347.001V332.37H361.221V334.44ZM364.248 342.93C364.248 339.49 364.808 336.81 365.928 334.89C367.048 332.95 369.008 331.98 371.808 331.98C374.588 331.98 376.538 332.95 377.658 334.89C378.778 336.81 379.338 339.49 379.338 342.93C379.338 346.43 378.778 349.15 377.658 351.09C376.538 353.03 374.588 354 371.808 354C369.008 354 367.048 353.03 365.928 351.09C364.808 349.15 364.248 346.43 364.248 342.93ZM376.638 342.93C376.638 341.19 376.518 339.72 376.278 338.52C376.058 337.3 375.588 336.32 374.868 335.58C374.168 334.84 373.148 334.47 371.808 334.47C370.448 334.47 369.408 334.84 368.688 335.58C367.988 336.32 367.518 337.3 367.278 338.52C367.058 339.72 366.948 341.19 366.948 342.93C366.948 344.73 367.058 346.24 367.278 347.46C367.518 348.68 367.988 349.66 368.688 350.4C369.408 351.14 370.448 351.51 371.808 351.51C373.148 351.51 374.168 351.14 374.868 350.4C375.588 349.66 376.058 348.68 376.278 347.46C376.518 346.24 376.638 344.73 376.638 342.93ZM382.486 337.2C382.486 335.84 382.896 334.76 383.716 333.96C384.536 333.14 385.586 332.73 386.866 332.73C388.146 332.73 389.196 333.14 390.016 333.96C390.836 334.76 391.246 335.84 391.246 337.2C391.246 338.58 390.836 339.68 390.016 340.5C389.196 341.3 388.146 341.7 386.866 341.7C385.586 341.7 384.536 341.3 383.716 340.5C382.896 339.68 382.486 338.58 382.486 337.2ZM400.006 333.06L387.856 354H385.156L397.306 333.06H400.006ZM386.866 334.41C386.186 334.41 385.646 334.65 385.246 335.13C384.866 335.59 384.676 336.28 384.676 337.2C384.676 338.12 384.866 338.82 385.246 339.3C385.646 339.78 386.186 340.02 386.866 340.02C387.546 340.02 388.086 339.78 388.486 339.3C388.886 338.8 389.086 338.1 389.086 337.2C389.086 336.28 388.886 335.59 388.486 335.13C388.086 334.65 387.546 334.41 386.866 334.41ZM393.976 349.86C393.976 348.48 394.386 347.39 395.206 346.59C396.026 345.77 397.076 345.36 398.356 345.36C399.636 345.36 400.676 345.77 401.476 346.59C402.296 347.39 402.706 348.48 402.706 349.86C402.706 351.22 402.296 352.31 401.476 353.13C400.676 353.95 399.636 354.36 398.356 354.36C397.076 354.36 396.026 353.96 395.206 353.16C394.386 352.34 393.976 351.24 393.976 349.86ZM398.326 347.07C397.646 347.07 397.106 347.31 396.706 347.79C396.306 348.25 396.106 348.94 396.106 349.86C396.106 350.76 396.306 351.45 396.706 351.93C397.106 352.39 397.646 352.62 398.326 352.62C399.006 352.62 399.546 352.39 399.946 351.93C400.346 351.45 400.546 350.76 400.546 349.86C400.546 348.94 400.346 348.25 399.946 347.79C399.546 347.31 399.006 347.07 398.326 347.07Z" fill="white"/>
<defs>
<filter id="filter0_d_10_36" x="117.181" y="280.722" width="21.2049" height="130.146" filterUnits="userSpaceOnUse" color-interpolation-filters="sRGB">
<feFlood flood-opacity="0" result="BackgroundImageFix"/>
<feColorMatrix in="SourceAlpha" type="matrix" values="0 0 0 0 0 0 0 0 0 0 0 0 0 0 0 0 0 0 127 0" result="hardAlpha"/>
<feOffset dy="4"/>
<feGaussianBlur stdDeviation="2"/>
<feComposite in2="hardAlpha" operator="out"/>
<feColorMatrix type="matrix" values="0 0 0 0 0 0 0 0 0 0 0 0 0 0 0 0 0 0 0.25 0"/>
<feBlend mode="normal" in2="BackgroundImageFix" result="effect1_dropShadow_10_36"/>
<feBlend mode="normal" in="SourceGraphic" in2="effect1_dropShadow_10_36" result="shape"/>
</filter>
<linearGradient id="paint0_linear_10_36" x1="127.474" y1="291.657" x2="127.474" y2="403.074" gradientUnits="userSpaceOnUse">
<stop stop-color="white"/>
<stop offset="1" stop-color="#007DFC"/>
</linearGradient>
<radialGradient id="paint1_angular_10_36" cx="0" cy="0" r="1" gradientUnits="userSpaceOnUse" gradientTransform="translate(372.591 341.794) rotate(90) scale(61.2792)">
<stop stop-color="#007DFC"/>
<stop offset="1" stop-color="white"/>
</radialGradient>
</defs>
</svg>
