<svg width="535" height="160" viewBox="0 0 535 160" fill="none" xmlns="http://www.w3.org/2000/svg">
<rect width="520" height="160" rx="30" fill="#31324C"/>
<path d="M35.456 42.536V65H29.984V42.536H35.456ZM59.5175 65H54.0455L44.8935 51.144V65H39.4215V42.536H44.8935L54.0455 56.456V42.536H59.5175V65ZM84.572 42.536L76.604 65H69.756L61.788 42.536H67.612L73.18 59.496L78.78 42.536H84.572ZM92.331 46.92V51.464H99.659V55.688H92.331V60.616H100.619V65H86.859V42.536H100.619V46.92H92.331ZM112.3 65.224C110.657 65.224 109.185 64.9573 107.884 64.424C106.582 63.8907 105.537 63.1013 104.748 62.056C103.98 61.0107 103.574 59.752 103.532 58.28H109.356C109.441 59.112 109.729 59.752 110.22 60.2C110.71 60.6267 111.35 60.84 112.14 60.84C112.95 60.84 113.59 60.6587 114.06 60.296C114.529 59.912 114.764 59.3893 114.764 58.728C114.764 58.1733 114.572 57.7147 114.188 57.352C113.825 56.9893 113.366 56.6907 112.812 56.456C112.278 56.2213 111.51 55.9547 110.508 55.656C109.057 55.208 107.873 54.76 106.956 54.312C106.038 53.864 105.249 53.2027 104.588 52.328C103.926 51.4533 103.596 50.312 103.596 48.904C103.596 46.8133 104.353 45.1813 105.868 44.008C107.382 42.8133 109.356 42.216 111.788 42.216C114.262 42.216 116.257 42.8133 117.772 44.008C119.286 45.1813 120.097 46.824 120.204 48.936H114.284C114.241 48.2107 113.974 47.6453 113.484 47.24C112.993 46.8133 112.364 46.6 111.595 46.6C110.934 46.6 110.401 46.7813 109.996 47.144C109.59 47.4853 109.388 47.9867 109.388 48.648C109.388 49.3733 109.729 49.9387 110.411 50.344C111.094 50.7493 112.161 51.1867 113.612 51.656C115.062 52.1467 116.236 52.616 117.132 53.064C118.049 53.512 118.838 54.1627 119.5 55.016C120.161 55.8693 120.492 56.968 120.492 58.312C120.492 59.592 120.161 60.7547 119.5 61.8C118.86 62.8453 117.921 63.6773 116.684 64.296C115.446 64.9147 113.985 65.224 112.3 65.224ZM140.019 42.536V46.92H134.067V65H128.595V46.92H122.643V42.536H140.019ZM168.205 42.536V65H162.733V51.528L157.709 65H153.293L148.237 51.496V65H142.765V42.536H149.229L155.533 58.088L161.773 42.536H168.205ZM177.612 46.92V51.464H184.94V55.688H177.612V60.616H185.9V65H172.14V42.536H185.9V46.92H177.612ZM209.549 65H204.077L194.925 51.144V65H189.453V42.536H194.925L204.077 56.456V42.536H209.549V65ZM229.675 42.536V46.92H223.723V65H218.251V46.92H212.299V42.536H229.675ZM247.331 65.224C245.688 65.224 244.216 64.9573 242.915 64.424C241.613 63.8907 240.568 63.1013 239.779 62.056C239.011 61.0107 238.605 59.752 238.563 58.28H244.387C244.472 59.112 244.76 59.752 245.251 60.2C245.741 60.6267 246.381 60.84 247.171 60.84C247.981 60.84 248.621 60.6587 249.091 60.296C249.56 59.912 249.795 59.3893 249.795 58.728C249.795 58.1733 249.603 57.7147 249.219 57.352C248.856 56.9893 248.397 56.6907 247.843 56.456C247.309 56.2213 246.541 55.9547 245.539 55.656C244.088 55.208 242.904 54.76 241.987 54.312C241.069 53.864 240.28 53.2027 239.619 52.328C238.957 51.4533 238.627 50.312 238.627 48.904C238.627 46.8133 239.384 45.1813 240.899 44.008C242.413 42.8133 244.387 42.216 246.819 42.216C249.293 42.216 251.288 42.8133 252.803 44.008C254.317 45.1813 255.128 46.824 255.235 48.936H249.315C249.272 48.2107 249.005 47.6453 248.515 47.24C248.024 46.8133 247.395 46.6 246.627 46.6C245.965 46.6 245.432 46.7813 245.027 47.144C244.621 47.4853 244.419 47.9867 244.419 48.648C244.419 49.3733 244.76 49.9387 245.443 50.344C246.125 50.7493 247.192 51.1867 248.643 51.656C250.093 52.1467 251.267 52.616 252.163 53.064C253.08 53.512 253.869 54.1627 254.531 55.016C255.192 55.8693 255.523 56.968 255.523 58.312C255.523 59.592 255.192 60.7547 254.531 61.8C253.891 62.8453 252.952 63.6773 251.715 64.296C250.477 64.9147 249.016 65.224 247.331 65.224ZM275.05 42.536V46.92H269.098V65H263.626V46.92H257.674V42.536H275.05ZM289.253 65L284.581 56.52H283.269V65H277.797V42.536H286.981C288.751 42.536 290.255 42.8453 291.493 43.464C292.751 44.0827 293.69 44.936 294.309 46.024C294.927 47.0907 295.237 48.2853 295.237 49.608C295.237 51.1013 294.81 52.4347 293.957 53.608C293.125 54.7813 291.887 55.6133 290.245 56.104L295.429 65H289.253ZM283.269 52.648H286.661C287.663 52.648 288.41 52.4027 288.901 51.912C289.413 51.4213 289.669 50.728 289.669 49.832C289.669 48.9787 289.413 48.3067 288.901 47.816C288.41 47.3253 287.663 47.08 286.661 47.08H283.269V52.648ZM312.656 61.032H304.272L302.928 65H297.2L305.328 42.536H311.664L319.792 65H314L312.656 61.032ZM311.248 56.808L308.464 48.584L305.712 56.808H311.248ZM338.425 42.536V46.92H332.473V65H327.001V46.92H321.049V42.536H338.425ZM346.644 46.92V51.464H353.972V55.688H346.644V60.616H354.932V65H341.172V42.536H354.932V46.92H346.644ZM369.94 65L365.268 56.52H363.956V65H358.484V42.536H367.668C369.439 42.536 370.943 42.8453 372.18 43.464C373.439 44.0827 374.377 44.936 374.996 46.024C375.615 47.0907 375.924 48.2853 375.924 49.608C375.924 51.1013 375.497 52.4347 374.644 53.608C373.812 54.7813 372.575 55.6133 370.932 56.104L376.116 65H369.94ZM363.956 52.648H367.348C368.351 52.648 369.097 52.4027 369.588 51.912C370.1 51.4213 370.356 50.728 370.356 49.832C370.356 48.9787 370.1 48.3067 369.588 47.816C369.097 47.3253 368.351 47.08 367.348 47.08H363.956V52.648ZM394.271 49.64C393.866 48.8933 393.279 48.328 392.511 47.944C391.764 47.5387 390.879 47.336 389.855 47.336C388.084 47.336 386.666 47.9227 385.599 49.096C384.532 50.248 383.999 51.7947 383.999 53.736C383.999 55.8053 384.554 57.4267 385.663 58.6C386.794 59.752 388.34 60.328 390.303 60.328C391.647 60.328 392.778 59.9867 393.695 59.304C394.634 58.6213 395.316 57.64 395.743 56.36H388.799V52.328H400.703V57.416C400.298 58.7813 399.604 60.0507 398.623 61.224C397.663 62.3973 396.436 63.3467 394.943 64.072C393.45 64.7973 391.764 65.16 389.887 65.16C387.668 65.16 385.684 64.68 383.935 63.72C382.207 62.7387 380.852 61.384 379.871 59.656C378.911 57.928 378.431 55.9547 378.431 53.736C378.431 51.5173 378.911 49.544 379.871 47.816C380.852 46.0667 382.207 44.712 383.935 43.752C385.663 42.7707 387.636 42.28 389.855 42.28C392.543 42.28 394.804 42.9307 396.639 44.232C398.495 45.5333 399.722 47.336 400.319 49.64H394.271ZM409.206 42.536V65H403.734V42.536H409.206ZM418.644 46.92V51.464H425.972V55.688H418.644V60.616H426.932V65H413.172V42.536H426.932V46.92H418.644ZM438.612 65.224C436.969 65.224 435.497 64.9573 434.196 64.424C432.895 63.8907 431.849 63.1013 431.06 62.056C430.292 61.0107 429.887 59.752 429.844 58.28H435.668C435.753 59.112 436.041 59.752 436.532 60.2C437.023 60.6267 437.663 60.84 438.452 60.84C439.263 60.84 439.903 60.6587 440.372 60.296C440.841 59.912 441.076 59.3893 441.076 58.728C441.076 58.1733 440.884 57.7147 440.5 57.352C440.137 56.9893 439.679 56.6907 439.124 56.456C438.591 56.2213 437.823 55.9547 436.82 55.656C435.369 55.208 434.185 54.76 433.268 54.312C432.351 53.864 431.561 53.2027 430.9 52.328C430.239 51.4533 429.908 50.312 429.908 48.904C429.908 46.8133 430.665 45.1813 432.18 44.008C433.695 42.8133 435.668 42.216 438.1 42.216C440.575 42.216 442.569 42.8133 444.084 44.008C445.599 45.1813 446.409 46.824 446.516 48.936H440.596C440.553 48.2107 440.287 47.6453 439.796 47.24C439.305 46.8133 438.676 46.6 437.908 46.6C437.247 46.6 436.713 46.7813 436.308 47.144C435.903 47.4853 435.7 47.9867 435.7 48.648C435.7 49.3733 436.041 49.9387 436.724 50.344C437.407 50.7493 438.473 51.1867 439.924 51.656C441.375 52.1467 442.548 52.616 443.444 53.064C444.361 53.512 445.151 54.1627 445.812 55.016C446.473 55.8693 446.804 56.968 446.804 58.312C446.804 59.592 446.473 60.7547 445.812 61.8C445.172 62.8453 444.233 63.6773 442.996 64.296C441.759 64.9147 440.297 65.224 438.612 65.224ZM37.075 96.575C36.785 95.965 36.365 95.495 35.815 95.165C35.265 94.825 34.625 94.655 33.895 94.655C33.165 94.655 32.505 94.825 31.915 95.165C31.335 95.495 30.875 95.975 30.535 96.605C30.205 97.225 30.04 97.945 30.04 98.765C30.04 99.585 30.205 100.305 30.535 100.925C30.875 101.545 31.335 102.025 31.915 102.365C32.505 102.695 33.165 102.86 33.895 102.86C34.915 102.86 35.755 102.555 36.415 101.945C37.075 101.335 37.46 100.51 37.57 99.47H33.4V98.36H39.025V99.41C38.945 100.27 38.675 101.06 38.215 101.78C37.755 102.49 37.15 103.055 36.4 103.475C35.65 103.885 34.815 104.09 33.895 104.09C32.925 104.09 32.04 103.865 31.24 103.415C30.44 102.955 29.805 102.32 29.335 101.51C28.875 100.7 28.645 99.785 28.645 98.765C28.645 97.745 28.875 96.83 29.335 96.02C29.805 95.2 30.44 94.565 31.24 94.115C32.04 93.655 32.925 93.425 33.895 93.425C35.005 93.425 35.985 93.7 36.835 94.25C37.695 94.8 38.32 95.575 38.71 96.575H37.075ZM48.3298 99.575C48.3298 99.835 48.3148 100.11 48.2848 100.4H41.7148C41.7648 101.21 42.0398 101.845 42.5398 102.305C43.0498 102.755 43.6648 102.98 44.3848 102.98C44.9748 102.98 45.4648 102.845 45.8548 102.575C46.2548 102.295 46.5348 101.925 46.6948 101.465H48.1648C47.9448 102.255 47.5048 102.9 46.8448 103.4C46.1848 103.89 45.3648 104.135 44.3848 104.135C43.6048 104.135 42.9048 103.96 42.2848 103.61C41.6748 103.26 41.1948 102.765 40.8448 102.125C40.4948 101.475 40.3198 100.725 40.3198 99.875C40.3198 99.025 40.4898 98.28 40.8298 97.64C41.1698 97 41.6448 96.51 42.2548 96.17C42.8748 95.82 43.5848 95.645 44.3848 95.645C45.1648 95.645 45.8548 95.815 46.4548 96.155C47.0548 96.495 47.5148 96.965 47.8348 97.565C48.1648 98.155 48.3298 98.825 48.3298 99.575ZM46.9198 99.29C46.9198 98.77 46.8048 98.325 46.5748 97.955C46.3448 97.575 46.0298 97.29 45.6298 97.1C45.2398 96.9 44.8048 96.8 44.3248 96.8C43.6348 96.8 43.0448 97.02 42.5548 97.46C42.0748 97.9 41.7998 98.51 41.7298 99.29H46.9198ZM51.7966 96.905V101.75C51.7966 102.15 51.8816 102.435 52.0516 102.605C52.2216 102.765 52.5166 102.845 52.9366 102.845H53.9416V104H52.7116C51.9516 104 51.3816 103.825 51.0016 103.475C50.6216 103.125 50.4316 102.55 50.4316 101.75V96.905H49.3666V95.78H50.4316V93.71H51.7966V95.78H53.9416V96.905H51.7966ZM60.9595 94.655V98.15H64.7695V99.275H60.9595V102.875H65.2195V104H59.5945V93.53H65.2195V94.655H60.9595ZM70.5999 104.105C69.9099 104.105 69.2899 103.985 68.7399 103.745C68.1999 103.495 67.7749 103.155 67.4649 102.725C67.1549 102.285 66.9949 101.78 66.9849 101.21H68.4399C68.4899 101.7 68.6899 102.115 69.0399 102.455C69.3999 102.785 69.9199 102.95 70.5999 102.95C71.2499 102.95 71.7599 102.79 72.1299 102.47C72.5099 102.14 72.6999 101.72 72.6999 101.21C72.6999 100.81 72.5899 100.485 72.3699 100.235C72.1499 99.985 71.8749 99.795 71.5449 99.665C71.2149 99.535 70.7699 99.395 70.2099 99.245C69.5199 99.065 68.9649 98.885 68.5449 98.705C68.1349 98.525 67.7799 98.245 67.4799 97.865C67.1899 97.475 67.0449 96.955 67.0449 96.305C67.0449 95.735 67.1899 95.23 67.4799 94.79C67.7699 94.35 68.1749 94.01 68.6949 93.77C69.2249 93.53 69.8299 93.41 70.5099 93.41C71.4899 93.41 72.2899 93.655 72.9099 94.145C73.5399 94.635 73.8949 95.285 73.9749 96.095H72.4749C72.4249 95.695 72.2149 95.345 71.8449 95.045C71.4749 94.735 70.9849 94.58 70.3749 94.58C69.8049 94.58 69.3399 94.73 68.9799 95.03C68.6199 95.32 68.4399 95.73 68.4399 96.26C68.4399 96.64 68.5449 96.95 68.7549 97.19C68.9749 97.43 69.2399 97.615 69.5499 97.745C69.8699 97.865 70.3149 98.005 70.8849 98.165C71.5749 98.355 72.1299 98.545 72.5499 98.735C72.9699 98.915 73.3299 99.2 73.6299 99.59C73.9299 99.97 74.0799 100.49 74.0799 101.15C74.0799 101.66 73.9449 102.14 73.6749 102.59C73.4049 103.04 73.0049 103.405 72.4749 103.685C71.9449 103.965 71.3199 104.105 70.5999 104.105ZM84.0086 96.575C83.7186 95.965 83.2986 95.495 82.7486 95.165C82.1986 94.825 81.5586 94.655 80.8286 94.655C80.0986 94.655 79.4386 94.825 78.8486 95.165C78.2686 95.495 77.8086 95.975 77.4686 96.605C77.1386 97.225 76.9736 97.945 76.9736 98.765C76.9736 99.585 77.1386 100.305 77.4686 100.925C77.8086 101.545 78.2686 102.025 78.8486 102.365C79.4386 102.695 80.0986 102.86 80.8286 102.86C81.8486 102.86 82.6886 102.555 83.3486 101.945C84.0086 101.335 84.3936 100.51 84.5036 99.47H80.3336V98.36H85.9586V99.41C85.8786 100.27 85.6086 101.06 85.1486 101.78C84.6886 102.49 84.0836 103.055 83.3336 103.475C82.5836 103.885 81.7486 104.09 80.8286 104.09C79.8586 104.09 78.9736 103.865 78.1736 103.415C77.3736 102.955 76.7386 102.32 76.2686 101.51C75.8086 100.7 75.5786 99.785 75.5786 98.765C75.5786 97.745 75.8086 96.83 76.2686 96.02C76.7386 95.2 77.3736 94.565 78.1736 94.115C78.9736 93.655 79.8586 93.425 80.8286 93.425C81.9386 93.425 82.9186 93.7 83.7686 94.25C84.6286 94.8 85.2536 95.575 85.6436 96.575H84.0086ZM97.9424 101.675H93.3824L92.5424 104H91.1024L94.8824 93.605H96.4574L100.222 104H98.7824L97.9424 101.675ZM97.5524 100.565L95.6624 95.285L93.7724 100.565H97.5524ZM105.875 95.63C106.875 95.63 107.685 95.935 108.305 96.545C108.925 97.145 109.235 98.015 109.235 99.155V104H107.885V99.35C107.885 98.53 107.68 97.905 107.27 97.475C106.86 97.035 106.3 96.815 105.59 96.815C104.87 96.815 104.295 97.04 103.865 97.49C103.445 97.94 103.235 98.595 103.235 99.455V104H101.87V95.78H103.235V96.95C103.505 96.53 103.87 96.205 104.33 95.975C104.8 95.745 105.315 95.63 105.875 95.63ZM110.955 99.86C110.955 99.02 111.125 98.285 111.465 97.655C111.805 97.015 112.27 96.52 112.86 96.17C113.46 95.82 114.13 95.645 114.87 95.645C115.51 95.645 116.105 95.795 116.655 96.095C117.205 96.385 117.625 96.77 117.915 97.25V92.9H119.295V104H117.915V102.455C117.645 102.945 117.245 103.35 116.715 103.67C116.185 103.98 115.565 104.135 114.855 104.135C114.125 104.135 113.46 103.955 112.86 103.595C112.27 103.235 111.805 102.73 111.465 102.08C111.125 101.43 110.955 100.69 110.955 99.86ZM117.915 99.875C117.915 99.255 117.79 98.715 117.54 98.255C117.29 97.795 116.95 97.445 116.52 97.205C116.1 96.955 115.635 96.83 115.125 96.83C114.615 96.83 114.15 96.95 113.73 97.19C113.31 97.43 112.975 97.78 112.725 98.24C112.475 98.7 112.35 99.24 112.35 99.86C112.35 100.49 112.475 101.04 112.725 101.51C112.975 101.97 113.31 102.325 113.73 102.575C114.15 102.815 114.615 102.935 115.125 102.935C115.635 102.935 116.1 102.815 116.52 102.575C116.95 102.325 117.29 101.97 117.54 101.51C117.79 101.04 117.915 100.495 117.915 99.875ZM128.915 104.105C128.225 104.105 127.605 103.985 127.055 103.745C126.515 103.495 126.09 103.155 125.78 102.725C125.47 102.285 125.31 101.78 125.3 101.21H126.755C126.805 101.7 127.005 102.115 127.355 102.455C127.715 102.785 128.235 102.95 128.915 102.95C129.565 102.95 130.075 102.79 130.445 102.47C130.825 102.14 131.015 101.72 131.015 101.21C131.015 100.81 130.905 100.485 130.685 100.235C130.465 99.985 130.19 99.795 129.86 99.665C129.53 99.535 129.085 99.395 128.525 99.245C127.835 99.065 127.28 98.885 126.86 98.705C126.45 98.525 126.095 98.245 125.795 97.865C125.505 97.475 125.36 96.955 125.36 96.305C125.36 95.735 125.505 95.23 125.795 94.79C126.085 94.35 126.49 94.01 127.01 93.77C127.54 93.53 128.145 93.41 128.825 93.41C129.805 93.41 130.605 93.655 131.225 94.145C131.855 94.635 132.21 95.285 132.29 96.095H130.79C130.74 95.695 130.53 95.345 130.16 95.045C129.79 94.735 129.3 94.58 128.69 94.58C128.12 94.58 127.655 94.73 127.295 95.03C126.935 95.32 126.755 95.73 126.755 96.26C126.755 96.64 126.86 96.95 127.07 97.19C127.29 97.43 127.555 97.615 127.865 97.745C128.185 97.865 128.63 98.005 129.2 98.165C129.89 98.355 130.445 98.545 130.865 98.735C131.285 98.915 131.645 99.2 131.945 99.59C132.245 99.97 132.395 100.49 132.395 101.15C132.395 101.66 132.26 102.14 131.99 102.59C131.72 103.04 131.32 103.405 130.79 103.685C130.26 103.965 129.635 104.105 128.915 104.105ZM137.659 93.545C138.799 93.545 139.784 93.76 140.614 94.19C141.454 94.61 142.094 95.215 142.534 96.005C142.984 96.795 143.209 97.725 143.209 98.795C143.209 99.865 142.984 100.795 142.534 101.585C142.094 102.365 141.454 102.965 140.614 103.385C139.784 103.795 138.799 104 137.659 104H134.404V93.545H137.659ZM137.659 102.875C139.009 102.875 140.039 102.52 140.749 101.81C141.459 101.09 141.814 100.085 141.814 98.795C141.814 97.495 141.454 96.48 140.734 95.75C140.024 95.02 138.999 94.655 137.659 94.655H135.769V102.875H137.659ZM152.929 96.575C152.639 95.965 152.219 95.495 151.669 95.165C151.119 94.825 150.479 94.655 149.749 94.655C149.019 94.655 148.359 94.825 147.769 95.165C147.189 95.495 146.729 95.975 146.389 96.605C146.059 97.225 145.894 97.945 145.894 98.765C145.894 99.585 146.059 100.305 146.389 100.925C146.729 101.545 147.189 102.025 147.769 102.365C148.359 102.695 149.019 102.86 149.749 102.86C150.769 102.86 151.609 102.555 152.269 101.945C152.929 101.335 153.314 100.51 153.424 99.47H149.254V98.36H154.879V99.41C154.799 100.27 154.529 101.06 154.069 101.78C153.609 102.49 153.004 103.055 152.254 103.475C151.504 103.885 150.669 104.09 149.749 104.09C148.779 104.09 147.894 103.865 147.094 103.415C146.294 102.955 145.659 102.32 145.189 101.51C144.729 100.7 144.499 99.785 144.499 98.765C144.499 97.745 144.729 96.83 145.189 96.02C145.659 95.2 146.294 94.565 147.094 94.115C147.894 93.655 148.779 93.425 149.749 93.425C150.859 93.425 151.839 93.7 152.689 94.25C153.549 94.8 154.174 95.575 154.564 96.575H152.929ZM167.118 93.545V94.655H164.268V104H162.903V94.655H160.038V93.545H167.118ZM170.164 97.115C170.404 96.645 170.744 96.28 171.184 96.02C171.634 95.76 172.179 95.63 172.819 95.63V97.04H172.459C170.929 97.04 170.164 97.87 170.164 99.53V104H168.799V95.78H170.164V97.115ZM173.884 99.86C173.884 99.02 174.054 98.285 174.394 97.655C174.734 97.015 175.199 96.52 175.789 96.17C176.389 95.82 177.054 95.645 177.784 95.645C178.504 95.645 179.129 95.8 179.659 96.11C180.189 96.42 180.584 96.81 180.844 97.28V95.78H182.224V104H180.844V102.47C180.574 102.95 180.169 103.35 179.629 103.67C179.099 103.98 178.479 104.135 177.769 104.135C177.039 104.135 176.379 103.955 175.789 103.595C175.199 103.235 174.734 102.73 174.394 102.08C174.054 101.43 173.884 100.69 173.884 99.86ZM180.844 99.875C180.844 99.255 180.719 98.715 180.469 98.255C180.219 97.795 179.879 97.445 179.449 97.205C179.029 96.955 178.564 96.83 178.054 96.83C177.544 96.83 177.079 96.95 176.659 97.19C176.239 97.43 175.904 97.78 175.654 98.24C175.404 98.7 175.279 99.24 175.279 99.86C175.279 100.49 175.404 101.04 175.654 101.51C175.904 101.97 176.239 102.325 176.659 102.575C177.079 102.815 177.544 102.935 178.054 102.935C178.564 102.935 179.029 102.815 179.449 102.575C179.879 102.325 180.219 101.97 180.469 101.51C180.719 101.04 180.844 100.495 180.844 99.875ZM188.536 95.63C189.536 95.63 190.346 95.935 190.966 96.545C191.586 97.145 191.896 98.015 191.896 99.155V104H190.546V99.35C190.546 98.53 190.341 97.905 189.931 97.475C189.521 97.035 188.961 96.815 188.251 96.815C187.531 96.815 186.956 97.04 186.526 97.49C186.106 97.94 185.896 98.595 185.896 99.455V104H184.531V95.78H185.896V96.95C186.166 96.53 186.531 96.205 186.991 95.975C187.461 95.745 187.976 95.63 188.536 95.63ZM197.036 104.135C196.406 104.135 195.841 104.03 195.341 103.82C194.841 103.6 194.446 103.3 194.156 102.92C193.866 102.53 193.706 102.085 193.676 101.585H195.086C195.126 101.995 195.316 102.33 195.656 102.59C196.006 102.85 196.461 102.98 197.021 102.98C197.541 102.98 197.951 102.865 198.251 102.635C198.551 102.405 198.701 102.115 198.701 101.765C198.701 101.405 198.541 101.14 198.221 100.97C197.901 100.79 197.406 100.615 196.736 100.445C196.126 100.285 195.626 100.125 195.236 99.965C194.856 99.795 194.526 99.55 194.246 99.23C193.976 98.9 193.841 98.47 193.841 97.94C193.841 97.52 193.966 97.135 194.216 96.785C194.466 96.435 194.821 96.16 195.281 95.96C195.741 95.75 196.266 95.645 196.856 95.645C197.766 95.645 198.501 95.875 199.061 96.335C199.621 96.795 199.921 97.425 199.961 98.225H198.596C198.566 97.795 198.391 97.45 198.071 97.19C197.761 96.93 197.341 96.8 196.811 96.8C196.321 96.8 195.931 96.905 195.641 97.115C195.351 97.325 195.206 97.6 195.206 97.94C195.206 98.21 195.291 98.435 195.461 98.615C195.641 98.785 195.861 98.925 196.121 99.035C196.391 99.135 196.761 99.25 197.231 99.38C197.821 99.54 198.301 99.7 198.671 99.86C199.041 100.01 199.356 100.24 199.616 100.55C199.886 100.86 200.026 101.265 200.036 101.765C200.036 102.215 199.911 102.62 199.661 102.98C199.411 103.34 199.056 103.625 198.596 103.835C198.146 104.035 197.626 104.135 197.036 104.135ZM203.328 97.295C203.598 96.825 203.998 96.435 204.528 96.125C205.068 95.805 205.693 95.645 206.403 95.645C207.133 95.645 207.793 95.82 208.383 96.17C208.983 96.52 209.453 97.015 209.793 97.655C210.133 98.285 210.303 99.02 210.303 99.86C210.303 100.69 210.133 101.43 209.793 102.08C209.453 102.73 208.983 103.235 208.383 103.595C207.793 103.955 207.133 104.135 206.403 104.135C205.703 104.135 205.083 103.98 204.543 103.67C204.013 103.35 203.608 102.955 203.328 102.485V107.9H201.963V95.78H203.328V97.295ZM208.908 99.86C208.908 99.24 208.783 98.7 208.533 98.24C208.283 97.78 207.943 97.43 207.513 97.19C207.093 96.95 206.628 96.83 206.118 96.83C205.618 96.83 205.153 96.955 204.723 97.205C204.303 97.445 203.963 97.8 203.703 98.27C203.453 98.73 203.328 99.265 203.328 99.875C203.328 100.495 203.453 101.04 203.703 101.51C203.963 101.97 204.303 102.325 204.723 102.575C205.153 102.815 205.618 102.935 206.118 102.935C206.628 102.935 207.093 102.815 207.513 102.575C207.943 102.325 208.283 101.97 208.533 101.51C208.783 101.04 208.908 100.49 208.908 99.86ZM211.589 99.86C211.589 99.02 211.759 98.285 212.099 97.655C212.439 97.015 212.904 96.52 213.494 96.17C214.094 95.82 214.759 95.645 215.489 95.645C216.209 95.645 216.834 95.8 217.364 96.11C217.894 96.42 218.289 96.81 218.549 97.28V95.78H219.929V104H218.549V102.47C218.279 102.95 217.874 103.35 217.334 103.67C216.804 103.98 216.184 104.135 215.474 104.135C214.744 104.135 214.084 103.955 213.494 103.595C212.904 103.235 212.439 102.73 212.099 102.08C211.759 101.43 211.589 100.69 211.589 99.86ZM218.549 99.875C218.549 99.255 218.424 98.715 218.174 98.255C217.924 97.795 217.584 97.445 217.154 97.205C216.734 96.955 216.269 96.83 215.759 96.83C215.249 96.83 214.784 96.95 214.364 97.19C213.944 97.43 213.609 97.78 213.359 98.24C213.109 98.7 212.984 99.24 212.984 99.86C212.984 100.49 213.109 101.04 213.359 101.51C213.609 101.97 213.944 102.325 214.364 102.575C214.784 102.815 215.249 102.935 215.759 102.935C216.269 102.935 216.734 102.815 217.154 102.575C217.584 102.325 217.924 101.97 218.174 101.51C218.424 101.04 218.549 100.495 218.549 99.875ZM223.601 97.115C223.841 96.645 224.181 96.28 224.621 96.02C225.071 95.76 225.616 95.63 226.256 95.63V97.04H225.896C224.366 97.04 223.601 97.87 223.601 99.53V104H222.236V95.78H223.601V97.115ZM235.332 99.575C235.332 99.835 235.317 100.11 235.287 100.4H228.717C228.767 101.21 229.042 101.845 229.542 102.305C230.052 102.755 230.667 102.98 231.387 102.98C231.977 102.98 232.467 102.845 232.857 102.575C233.257 102.295 233.537 101.925 233.697 101.465H235.167C234.947 102.255 234.507 102.9 233.847 103.4C233.187 103.89 232.367 104.135 231.387 104.135C230.607 104.135 229.907 103.96 229.287 103.61C228.677 103.26 228.197 102.765 227.847 102.125C227.497 101.475 227.322 100.725 227.322 99.875C227.322 99.025 227.492 98.28 227.832 97.64C228.172 97 228.647 96.51 229.257 96.17C229.877 95.82 230.587 95.645 231.387 95.645C232.167 95.645 232.857 95.815 233.457 96.155C234.057 96.495 234.517 96.965 234.837 97.565C235.167 98.155 235.332 98.825 235.332 99.575ZM233.922 99.29C233.922 98.77 233.807 98.325 233.577 97.955C233.347 97.575 233.032 97.29 232.632 97.1C232.242 96.9 231.807 96.8 231.327 96.8C230.637 96.8 230.047 97.02 229.557 97.46C229.077 97.9 228.802 98.51 228.732 99.29H233.922ZM241.139 95.63C242.139 95.63 242.949 95.935 243.569 96.545C244.189 97.145 244.499 98.015 244.499 99.155V104H243.149V99.35C243.149 98.53 242.944 97.905 242.534 97.475C242.124 97.035 241.564 96.815 240.854 96.815C240.134 96.815 239.559 97.04 239.129 97.49C238.709 97.94 238.499 98.595 238.499 99.455V104H237.134V95.78H238.499V96.95C238.769 96.53 239.134 96.205 239.594 95.975C240.064 95.745 240.579 95.63 241.139 95.63ZM248.393 96.905V101.75C248.393 102.15 248.478 102.435 248.648 102.605C248.818 102.765 249.113 102.845 249.533 102.845H250.538V104H249.308C248.548 104 247.978 103.825 247.598 103.475C247.218 103.125 247.028 102.55 247.028 101.75V96.905H245.963V95.78H247.028V93.71H248.393V95.78H250.538V96.905H248.393ZM252.627 104.09C252.367 104.09 252.147 104 251.967 103.82C251.787 103.64 251.697 103.42 251.697 103.16C251.697 102.9 251.787 102.68 251.967 102.5C252.147 102.32 252.367 102.23 252.627 102.23C252.877 102.23 253.087 102.32 253.257 102.5C253.437 102.68 253.527 102.9 253.527 103.16C253.527 103.42 253.437 103.64 253.257 103.82C253.087 104 252.877 104.09 252.627 104.09ZM264.846 104L262.356 99.725H260.706V104H259.341V93.545H262.716C263.506 93.545 264.171 93.68 264.711 93.95C265.261 94.22 265.671 94.585 265.941 95.045C266.211 95.505 266.346 96.03 266.346 96.62C266.346 97.34 266.136 97.975 265.716 98.525C265.306 99.075 264.686 99.44 263.856 99.62L266.481 104H264.846ZM260.706 98.63H262.716C263.456 98.63 264.011 98.45 264.381 98.09C264.751 97.72 264.936 97.23 264.936 96.62C264.936 96 264.751 95.52 264.381 95.18C264.021 94.84 263.466 94.67 262.716 94.67H260.706V98.63ZM275.967 99.575C275.967 99.835 275.952 100.11 275.922 100.4H269.352C269.402 101.21 269.677 101.845 270.177 102.305C270.687 102.755 271.302 102.98 272.022 102.98C272.612 102.98 273.102 102.845 273.492 102.575C273.892 102.295 274.172 101.925 274.332 101.465H275.802C275.582 102.255 275.142 102.9 274.482 103.4C273.822 103.89 273.002 104.135 272.022 104.135C271.242 104.135 270.542 103.96 269.922 103.61C269.312 103.26 268.832 102.765 268.482 102.125C268.132 101.475 267.957 100.725 267.957 99.875C267.957 99.025 268.127 98.28 268.467 97.64C268.807 97 269.282 96.51 269.892 96.17C270.512 95.82 271.222 95.645 272.022 95.645C272.802 95.645 273.492 95.815 274.092 96.155C274.692 96.495 275.152 96.965 275.472 97.565C275.802 98.155 275.967 98.825 275.967 99.575ZM274.557 99.29C274.557 98.77 274.442 98.325 274.212 97.955C273.982 97.575 273.667 97.29 273.267 97.1C272.877 96.9 272.442 96.8 271.962 96.8C271.272 96.8 270.682 97.02 270.192 97.46C269.712 97.9 269.437 98.51 269.367 99.29H274.557ZM277.258 99.86C277.258 99.02 277.428 98.285 277.768 97.655C278.108 97.015 278.573 96.52 279.163 96.17C279.763 95.82 280.428 95.645 281.158 95.645C281.878 95.645 282.503 95.8 283.033 96.11C283.563 96.42 283.958 96.81 284.218 97.28V95.78H285.598V104H284.218V102.47C283.948 102.95 283.543 103.35 283.003 103.67C282.473 103.98 281.853 104.135 281.143 104.135C280.413 104.135 279.753 103.955 279.163 103.595C278.573 103.235 278.108 102.73 277.768 102.08C277.428 101.43 277.258 100.69 277.258 99.86ZM284.218 99.875C284.218 99.255 284.093 98.715 283.843 98.255C283.593 97.795 283.253 97.445 282.823 97.205C282.403 96.955 281.938 96.83 281.428 96.83C280.918 96.83 280.453 96.95 280.033 97.19C279.613 97.43 279.278 97.78 279.028 98.24C278.778 98.7 278.653 99.24 278.653 99.86C278.653 100.49 278.778 101.04 279.028 101.51C279.278 101.97 279.613 102.325 280.033 102.575C280.453 102.815 280.918 102.935 281.428 102.935C281.938 102.935 282.403 102.815 282.823 102.575C283.253 102.325 283.593 101.97 283.843 101.51C284.093 101.04 284.218 100.495 284.218 99.875ZM289.27 92.9V104H287.905V92.9H289.27ZM297.296 97.925V99.08H291.311V97.925H297.296ZM306.293 93.545V94.655H303.443V104H302.078V94.655H299.213V93.545H306.293ZM308.678 94.445C308.418 94.445 308.198 94.355 308.018 94.175C307.838 93.995 307.748 93.775 307.748 93.515C307.748 93.255 307.838 93.035 308.018 92.855C308.198 92.675 308.418 92.585 308.678 92.585C308.928 92.585 309.138 92.675 309.308 92.855C309.488 93.035 309.578 93.255 309.578 93.515C309.578 93.775 309.488 93.995 309.308 94.175C309.138 94.355 308.928 94.445 308.678 94.445ZM309.338 95.78V104H307.973V95.78H309.338ZM321.55 95.63C322.19 95.63 322.76 95.765 323.26 96.035C323.76 96.295 324.155 96.69 324.445 97.22C324.735 97.75 324.88 98.395 324.88 99.155V104H323.53V99.35C323.53 98.53 323.325 97.905 322.915 97.475C322.515 97.035 321.97 96.815 321.28 96.815C320.57 96.815 320.005 97.045 319.585 97.505C319.165 97.955 318.955 98.61 318.955 99.47V104H317.605V99.35C317.605 98.53 317.4 97.905 316.99 97.475C316.59 97.035 316.045 96.815 315.355 96.815C314.645 96.815 314.08 97.045 313.66 97.505C313.24 97.955 313.03 98.61 313.03 99.47V104H311.665V95.78H313.03V96.965C313.3 96.535 313.66 96.205 314.11 95.975C314.57 95.745 315.075 95.63 315.625 95.63C316.315 95.63 316.925 95.785 317.455 96.095C317.985 96.405 318.38 96.86 318.64 97.46C318.87 96.88 319.25 96.43 319.78 96.11C320.31 95.79 320.9 95.63 321.55 95.63ZM334.619 99.575C334.619 99.835 334.604 100.11 334.574 100.4H328.004C328.054 101.21 328.329 101.845 328.829 102.305C329.339 102.755 329.954 102.98 330.674 102.98C331.264 102.98 331.754 102.845 332.144 102.575C332.544 102.295 332.824 101.925 332.984 101.465H334.454C334.234 102.255 333.794 102.9 333.134 103.4C332.474 103.89 331.654 104.135 330.674 104.135C329.894 104.135 329.194 103.96 328.574 103.61C327.964 103.26 327.484 102.765 327.134 102.125C326.784 101.475 326.609 100.725 326.609 99.875C326.609 99.025 326.779 98.28 327.119 97.64C327.459 97 327.934 96.51 328.544 96.17C329.164 95.82 329.874 95.645 330.674 95.645C331.454 95.645 332.144 95.815 332.744 96.155C333.344 96.495 333.804 96.965 334.124 97.565C334.454 98.155 334.619 98.825 334.619 99.575ZM333.209 99.29C333.209 98.77 333.094 98.325 332.864 97.955C332.634 97.575 332.319 97.29 331.919 97.1C331.529 96.9 331.094 96.8 330.614 96.8C329.924 96.8 329.334 97.02 328.844 97.46C328.364 97.9 328.089 98.51 328.019 99.29H333.209ZM341.785 93.545V104H340.42V93.545H341.785ZM348.116 95.63C349.116 95.63 349.926 95.935 350.546 96.545C351.166 97.145 351.476 98.015 351.476 99.155V104H350.126V99.35C350.126 98.53 349.921 97.905 349.511 97.475C349.101 97.035 348.541 96.815 347.831 96.815C347.111 96.815 346.536 97.04 346.106 97.49C345.686 97.94 345.476 98.595 345.476 99.455V104H344.111V95.78H345.476V96.95C345.746 96.53 346.111 96.205 346.571 95.975C347.041 95.745 347.556 95.63 348.116 95.63ZM356.616 104.135C355.986 104.135 355.421 104.03 354.921 103.82C354.421 103.6 354.026 103.3 353.736 102.92C353.446 102.53 353.286 102.085 353.256 101.585H354.666C354.706 101.995 354.896 102.33 355.236 102.59C355.586 102.85 356.041 102.98 356.601 102.98C357.121 102.98 357.531 102.865 357.831 102.635C358.131 102.405 358.281 102.115 358.281 101.765C358.281 101.405 358.121 101.14 357.801 100.97C357.481 100.79 356.986 100.615 356.316 100.445C355.706 100.285 355.206 100.125 354.816 99.965C354.436 99.795 354.106 99.55 353.826 99.23C353.556 98.9 353.421 98.47 353.421 97.94C353.421 97.52 353.546 97.135 353.796 96.785C354.046 96.435 354.401 96.16 354.861 95.96C355.321 95.75 355.846 95.645 356.436 95.645C357.346 95.645 358.081 95.875 358.641 96.335C359.201 96.795 359.501 97.425 359.541 98.225H358.176C358.146 97.795 357.971 97.45 357.651 97.19C357.341 96.93 356.921 96.8 356.391 96.8C355.901 96.8 355.511 96.905 355.221 97.115C354.931 97.325 354.786 97.6 354.786 97.94C354.786 98.21 354.871 98.435 355.041 98.615C355.221 98.785 355.441 98.925 355.701 99.035C355.971 99.135 356.341 99.25 356.811 99.38C357.401 99.54 357.881 99.7 358.251 99.86C358.621 100.01 358.936 100.24 359.196 100.55C359.466 100.86 359.606 101.265 359.616 101.765C359.616 102.215 359.491 102.62 359.241 102.98C358.991 103.34 358.636 103.625 358.176 103.835C357.726 104.035 357.206 104.135 356.616 104.135ZM362.248 94.445C361.988 94.445 361.768 94.355 361.588 94.175C361.408 93.995 361.318 93.775 361.318 93.515C361.318 93.255 361.408 93.035 361.588 92.855C361.768 92.675 361.988 92.585 362.248 92.585C362.498 92.585 362.708 92.675 362.878 92.855C363.058 93.035 363.148 93.255 363.148 93.515C363.148 93.775 363.058 93.995 362.878 94.175C362.708 94.355 362.498 94.445 362.248 94.445ZM362.908 95.78V104H361.543V95.78H362.908ZM368.624 95.645C369.334 95.645 369.954 95.8 370.484 96.11C371.024 96.42 371.424 96.81 371.684 97.28V95.78H373.064V104.18C373.064 104.93 372.904 105.595 372.584 106.175C372.264 106.765 371.804 107.225 371.204 107.555C370.614 107.885 369.924 108.05 369.134 108.05C368.054 108.05 367.154 107.795 366.434 107.285C365.714 106.775 365.289 106.08 365.159 105.2H366.509C366.659 105.7 366.969 106.1 367.439 106.4C367.909 106.71 368.474 106.865 369.134 106.865C369.884 106.865 370.494 106.63 370.964 106.16C371.444 105.69 371.684 105.03 371.684 104.18V102.455C371.414 102.935 371.014 103.335 370.484 103.655C369.954 103.975 369.334 104.135 368.624 104.135C367.894 104.135 367.229 103.955 366.629 103.595C366.039 103.235 365.574 102.73 365.234 102.08C364.894 101.43 364.724 100.69 364.724 99.86C364.724 99.02 364.894 98.285 365.234 97.655C365.574 97.015 366.039 96.52 366.629 96.17C367.229 95.82 367.894 95.645 368.624 95.645ZM371.684 99.875C371.684 99.255 371.559 98.715 371.309 98.255C371.059 97.795 370.719 97.445 370.289 97.205C369.869 96.955 369.404 96.83 368.894 96.83C368.384 96.83 367.919 96.95 367.499 97.19C367.079 97.43 366.744 97.78 366.494 98.24C366.244 98.7 366.119 99.24 366.119 99.86C366.119 100.49 366.244 101.04 366.494 101.51C366.744 101.97 367.079 102.325 367.499 102.575C367.919 102.815 368.384 102.935 368.894 102.935C369.404 102.935 369.869 102.815 370.289 102.575C370.719 102.325 371.059 101.97 371.309 101.51C371.559 101.04 371.684 100.495 371.684 99.875ZM379.451 95.63C380.071 95.63 380.631 95.765 381.131 96.035C381.631 96.295 382.021 96.69 382.301 97.22C382.591 97.75 382.736 98.395 382.736 99.155V104H381.386V99.35C381.386 98.53 381.181 97.905 380.771 97.475C380.361 97.035 379.801 96.815 379.091 96.815C378.371 96.815 377.796 97.04 377.366 97.49C376.946 97.94 376.736 98.595 376.736 99.455V104H375.371V92.9H376.736V96.95C377.006 96.53 377.376 96.205 377.846 95.975C378.326 95.745 378.861 95.63 379.451 95.63ZM386.631 96.905V101.75C386.631 102.15 386.716 102.435 386.886 102.605C387.056 102.765 387.351 102.845 387.771 102.845H388.776V104H387.546C386.786 104 386.216 103.825 385.836 103.475C385.456 103.125 385.266 102.55 385.266 101.75V96.905H384.201V95.78H385.266V93.71H386.631V95.78H388.776V96.905H386.631ZM393.339 104.135C392.709 104.135 392.144 104.03 391.644 103.82C391.144 103.6 390.749 103.3 390.459 102.92C390.169 102.53 390.009 102.085 389.979 101.585H391.389C391.429 101.995 391.619 102.33 391.959 102.59C392.309 102.85 392.764 102.98 393.324 102.98C393.844 102.98 394.254 102.865 394.554 102.635C394.854 102.405 395.004 102.115 395.004 101.765C395.004 101.405 394.844 101.14 394.524 100.97C394.204 100.79 393.709 100.615 393.039 100.445C392.429 100.285 391.929 100.125 391.539 99.965C391.159 99.795 390.829 99.55 390.549 99.23C390.279 98.9 390.144 98.47 390.144 97.94C390.144 97.52 390.269 97.135 390.519 96.785C390.769 96.435 391.124 96.16 391.584 95.96C392.044 95.75 392.569 95.645 393.159 95.645C394.069 95.645 394.804 95.875 395.364 96.335C395.924 96.795 396.224 97.425 396.264 98.225H394.899C394.869 97.795 394.694 97.45 394.374 97.19C394.064 96.93 393.644 96.8 393.114 96.8C392.624 96.8 392.234 96.905 391.944 97.115C391.654 97.325 391.509 97.6 391.509 97.94C391.509 98.21 391.594 98.435 391.764 98.615C391.944 98.785 392.164 98.925 392.424 99.035C392.694 99.135 393.064 99.25 393.534 99.38C394.124 99.54 394.604 99.7 394.974 99.86C395.344 100.01 395.659 100.24 395.919 100.55C396.189 100.86 396.329 101.265 396.339 101.765C396.339 102.215 396.214 102.62 395.964 102.98C395.714 103.34 395.359 103.625 394.899 103.835C394.449 104.035 393.929 104.135 393.339 104.135ZM407.005 104.105C406.035 104.105 405.15 103.88 404.35 103.43C403.55 102.97 402.915 102.335 402.445 101.525C401.985 100.705 401.755 99.785 401.755 98.765C401.755 97.745 401.985 96.83 402.445 96.02C402.915 95.2 403.55 94.565 404.35 94.115C405.15 93.655 406.035 93.425 407.005 93.425C407.985 93.425 408.875 93.655 409.675 94.115C410.475 94.565 411.105 95.195 411.565 96.005C412.025 96.815 412.255 97.735 412.255 98.765C412.255 99.795 412.025 100.715 411.565 101.525C411.105 102.335 410.475 102.97 409.675 103.43C408.875 103.88 407.985 104.105 407.005 104.105ZM407.005 102.92C407.735 102.92 408.39 102.75 408.97 102.41C409.56 102.07 410.02 101.585 410.35 100.955C410.69 100.325 410.86 99.595 410.86 98.765C410.86 97.925 410.69 97.195 410.35 96.575C410.02 95.945 409.565 95.46 408.985 95.12C408.405 94.78 407.745 94.61 407.005 94.61C406.265 94.61 405.605 94.78 405.025 95.12C404.445 95.46 403.985 95.945 403.645 96.575C403.315 97.195 403.15 97.925 403.15 98.765C403.15 99.595 403.315 100.325 403.645 100.955C403.985 101.585 404.445 102.07 405.025 102.41C405.615 102.75 406.275 102.92 407.005 102.92ZM418.062 95.63C419.062 95.63 419.872 95.935 420.492 96.545C421.112 97.145 421.422 98.015 421.422 99.155V104H420.072V99.35C420.072 98.53 419.867 97.905 419.457 97.475C419.047 97.035 418.487 96.815 417.777 96.815C417.057 96.815 416.482 97.04 416.052 97.49C415.632 97.94 415.422 98.595 415.422 99.455V104H414.057V95.78H415.422V96.95C415.692 96.53 416.057 96.205 416.517 95.975C416.987 95.745 417.502 95.63 418.062 95.63ZM434.971 93.545L431.566 100.055V104H430.201V100.055L426.781 93.545H428.296L430.876 98.84L433.456 93.545H434.971ZM439.996 104.135C439.226 104.135 438.526 103.96 437.896 103.61C437.276 103.26 436.786 102.765 436.426 102.125C436.076 101.475 435.901 100.725 435.901 99.875C435.901 99.035 436.081 98.295 436.441 97.655C436.811 97.005 437.311 96.51 437.941 96.17C438.571 95.82 439.276 95.645 440.056 95.645C440.836 95.645 441.541 95.82 442.171 96.17C442.801 96.51 443.296 97 443.656 97.64C444.026 98.28 444.211 99.025 444.211 99.875C444.211 100.725 444.021 101.475 443.641 102.125C443.271 102.765 442.766 103.26 442.126 103.61C441.486 103.96 440.776 104.135 439.996 104.135ZM439.996 102.935C440.486 102.935 440.946 102.82 441.376 102.59C441.806 102.36 442.151 102.015 442.411 101.555C442.681 101.095 442.816 100.535 442.816 99.875C442.816 99.215 442.686 98.655 442.426 98.195C442.166 97.735 441.826 97.395 441.406 97.175C440.986 96.945 440.531 96.83 440.041 96.83C439.541 96.83 439.081 96.945 438.661 97.175C438.251 97.395 437.921 97.735 437.671 98.195C437.421 98.655 437.296 99.215 437.296 99.875C437.296 100.545 437.416 101.11 437.656 101.57C437.906 102.03 438.236 102.375 438.646 102.605C439.056 102.825 439.506 102.935 439.996 102.935ZM453.296 95.78V104H451.931V102.785C451.671 103.205 451.306 103.535 450.836 103.775C450.376 104.005 449.866 104.12 449.306 104.12C448.666 104.12 448.091 103.99 447.581 103.73C447.071 103.46 446.666 103.06 446.366 102.53C446.076 102 445.931 101.355 445.931 100.595V95.78H447.281V100.415C447.281 101.225 447.486 101.85 447.896 102.29C448.306 102.72 448.866 102.935 449.576 102.935C450.306 102.935 450.881 102.71 451.301 102.26C451.721 101.81 451.931 101.155 451.931 100.295V95.78H453.296ZM456.965 97.115C457.205 96.645 457.545 96.28 457.985 96.02C458.435 95.76 458.98 95.63 459.62 95.63V97.04H459.26C457.73 97.04 456.965 97.87 456.965 99.53V104H455.6V95.78H456.965V97.115ZM33.895 127.105C32.925 127.105 32.04 126.88 31.24 126.43C30.44 125.97 29.805 125.335 29.335 124.525C28.875 123.705 28.645 122.785 28.645 121.765C28.645 120.745 28.875 119.83 29.335 119.02C29.805 118.2 30.44 117.565 31.24 117.115C32.04 116.655 32.925 116.425 33.895 116.425C34.875 116.425 35.765 116.655 36.565 117.115C37.365 117.565 37.995 118.195 38.455 119.005C38.915 119.815 39.145 120.735 39.145 121.765C39.145 122.795 38.915 123.715 38.455 124.525C37.995 125.335 37.365 125.97 36.565 126.43C35.765 126.88 34.875 127.105 33.895 127.105ZM33.895 125.92C34.625 125.92 35.28 125.75 35.86 125.41C36.45 125.07 36.91 124.585 37.24 123.955C37.58 123.325 37.75 122.595 37.75 121.765C37.75 120.925 37.58 120.195 37.24 119.575C36.91 118.945 36.455 118.46 35.875 118.12C35.295 117.78 34.635 117.61 33.895 117.61C33.155 117.61 32.495 117.78 31.915 118.12C31.335 118.46 30.875 118.945 30.535 119.575C30.205 120.195 30.04 120.925 30.04 121.765C30.04 122.595 30.205 123.325 30.535 123.955C30.875 124.585 31.335 125.07 31.915 125.41C32.505 125.75 33.165 125.92 33.895 125.92ZM42.312 120.115C42.552 119.645 42.892 119.28 43.332 119.02C43.782 118.76 44.327 118.63 44.967 118.63V120.04H44.607C43.077 120.04 42.312 120.87 42.312 122.53V127H40.947V118.78H42.312V120.115ZM49.9327 118.645C50.6427 118.645 51.2627 118.8 51.7927 119.11C52.3327 119.42 52.7327 119.81 52.9927 120.28V118.78H54.3727V127.18C54.3727 127.93 54.2127 128.595 53.8927 129.175C53.5727 129.765 53.1127 130.225 52.5127 130.555C51.9227 130.885 51.2327 131.05 50.4427 131.05C49.3627 131.05 48.4627 130.795 47.7427 130.285C47.0227 129.775 46.5977 129.08 46.4677 128.2H47.8177C47.9677 128.7 48.2777 129.1 48.7477 129.4C49.2177 129.71 49.7827 129.865 50.4427 129.865C51.1927 129.865 51.8027 129.63 52.2727 129.16C52.7527 128.69 52.9927 128.03 52.9927 127.18V125.455C52.7227 125.935 52.3227 126.335 51.7927 126.655C51.2627 126.975 50.6427 127.135 49.9327 127.135C49.2027 127.135 48.5377 126.955 47.9377 126.595C47.3477 126.235 46.8827 125.73 46.5427 125.08C46.2027 124.43 46.0327 123.69 46.0327 122.86C46.0327 122.02 46.2027 121.285 46.5427 120.655C46.8827 120.015 47.3477 119.52 47.9377 119.17C48.5377 118.82 49.2027 118.645 49.9327 118.645ZM52.9927 122.875C52.9927 122.255 52.8677 121.715 52.6177 121.255C52.3677 120.795 52.0277 120.445 51.5977 120.205C51.1777 119.955 50.7127 119.83 50.2027 119.83C49.6927 119.83 49.2277 119.95 48.8077 120.19C48.3877 120.43 48.0527 120.78 47.8027 121.24C47.5527 121.7 47.4277 122.24 47.4277 122.86C47.4277 123.49 47.5527 124.04 47.8027 124.51C48.0527 124.97 48.3877 125.325 48.8077 125.575C49.2277 125.815 49.6927 125.935 50.2027 125.935C50.7127 125.935 51.1777 125.815 51.5977 125.575C52.0277 125.325 52.3677 124.97 52.6177 124.51C52.8677 124.04 52.9927 123.495 52.9927 122.875ZM56.1694 122.86C56.1694 122.02 56.3394 121.285 56.6794 120.655C57.0194 120.015 57.4844 119.52 58.0744 119.17C58.6744 118.82 59.3394 118.645 60.0694 118.645C60.7894 118.645 61.4144 118.8 61.9444 119.11C62.4744 119.42 62.8694 119.81 63.1294 120.28V118.78H64.5094V127H63.1294V125.47C62.8594 125.95 62.4544 126.35 61.9144 126.67C61.3844 126.98 60.7644 127.135 60.0544 127.135C59.3244 127.135 58.6644 126.955 58.0744 126.595C57.4844 126.235 57.0194 125.73 56.6794 125.08C56.3394 124.43 56.1694 123.69 56.1694 122.86ZM63.1294 122.875C63.1294 122.255 63.0044 121.715 62.7544 121.255C62.5044 120.795 62.1644 120.445 61.7344 120.205C61.3144 119.955 60.8494 119.83 60.3394 119.83C59.8294 119.83 59.3644 119.95 58.9444 120.19C58.5244 120.43 58.1894 120.78 57.9394 121.24C57.6894 121.7 57.5644 122.24 57.5644 122.86C57.5644 123.49 57.6894 124.04 57.9394 124.51C58.1894 124.97 58.5244 125.325 58.9444 125.575C59.3644 125.815 59.8294 125.935 60.3394 125.935C60.8494 125.935 61.3144 125.815 61.7344 125.575C62.1644 125.325 62.5044 124.97 62.7544 124.51C63.0044 124.04 63.1294 123.495 63.1294 122.875ZM70.8211 118.63C71.8211 118.63 72.6311 118.935 73.2511 119.545C73.8711 120.145 74.1811 121.015 74.1811 122.155V127H72.8311V122.35C72.8311 121.53 72.6261 120.905 72.2161 120.475C71.8061 120.035 71.2461 119.815 70.5361 119.815C69.8161 119.815 69.2411 120.04 68.8111 120.49C68.3911 120.94 68.1811 121.595 68.1811 122.455V127H66.8161V118.78H68.1811V119.95C68.4511 119.53 68.8161 119.205 69.2761 118.975C69.7461 118.745 70.2611 118.63 70.8211 118.63ZM77.1159 117.445C76.8559 117.445 76.6359 117.355 76.4559 117.175C76.2759 116.995 76.1859 116.775 76.1859 116.515C76.1859 116.255 76.2759 116.035 76.4559 115.855C76.6359 115.675 76.8559 115.585 77.1159 115.585C77.3659 115.585 77.5759 115.675 77.7459 115.855C77.9259 116.035 78.0159 116.255 78.0159 116.515C78.0159 116.775 77.9259 116.995 77.7459 117.175C77.5759 117.355 77.3659 117.445 77.1159 117.445ZM77.7759 118.78V127H76.4109V118.78H77.7759ZM81.1223 125.875H85.1573V127H79.5623V125.875L83.5523 119.89H79.5923V118.78H85.1273V119.89L81.1223 125.875ZM86.4184 122.86C86.4184 122.02 86.5884 121.285 86.9284 120.655C87.2684 120.015 87.7334 119.52 88.3234 119.17C88.9234 118.82 89.5884 118.645 90.3184 118.645C91.0384 118.645 91.6634 118.8 92.1934 119.11C92.7234 119.42 93.1184 119.81 93.3784 120.28V118.78H94.7584V127H93.3784V125.47C93.1084 125.95 92.7034 126.35 92.1634 126.67C91.6334 126.98 91.0134 127.135 90.3034 127.135C89.5734 127.135 88.9134 126.955 88.3234 126.595C87.7334 126.235 87.2684 125.73 86.9284 125.08C86.5884 124.43 86.4184 123.69 86.4184 122.86ZM93.3784 122.875C93.3784 122.255 93.2534 121.715 93.0034 121.255C92.7534 120.795 92.4134 120.445 91.9834 120.205C91.5634 119.955 91.0984 119.83 90.5884 119.83C90.0784 119.83 89.6134 119.95 89.1934 120.19C88.7734 120.43 88.4384 120.78 88.1884 121.24C87.9384 121.7 87.8134 122.24 87.8134 122.86C87.8134 123.49 87.9384 124.04 88.1884 124.51C88.4384 124.97 88.7734 125.325 89.1934 125.575C89.6134 125.815 90.0784 125.935 90.5884 125.935C91.0984 125.935 91.5634 125.815 91.9834 125.575C92.4134 125.325 92.7534 124.97 93.0034 124.51C93.2534 124.04 93.3784 123.495 93.3784 122.875ZM98.7302 119.905V124.75C98.7302 125.15 98.8152 125.435 98.9852 125.605C99.1552 125.765 99.4502 125.845 99.8702 125.845H100.875V127H99.6452C98.8852 127 98.3152 126.825 97.9352 126.475C97.5552 126.125 97.3652 125.55 97.3652 124.75V119.905H96.3002V118.78H97.3652V116.71H98.7302V118.78H100.875V119.905H98.7302ZM103.234 117.445C102.974 117.445 102.754 117.355 102.574 117.175C102.394 116.995 102.304 116.775 102.304 116.515C102.304 116.255 102.394 116.035 102.574 115.855C102.754 115.675 102.974 115.585 103.234 115.585C103.484 115.585 103.694 115.675 103.864 115.855C104.044 116.035 104.134 116.255 104.134 116.515C104.134 116.775 104.044 116.995 103.864 117.175C103.694 117.355 103.484 117.445 103.234 117.445ZM103.894 118.78V127H102.529V118.78H103.894ZM109.805 127.135C109.035 127.135 108.335 126.96 107.705 126.61C107.085 126.26 106.595 125.765 106.235 125.125C105.885 124.475 105.71 123.725 105.71 122.875C105.71 122.035 105.89 121.295 106.25 120.655C106.62 120.005 107.12 119.51 107.75 119.17C108.38 118.82 109.085 118.645 109.865 118.645C110.645 118.645 111.35 118.82 111.98 119.17C112.61 119.51 113.105 120 113.465 120.64C113.835 121.28 114.02 122.025 114.02 122.875C114.02 123.725 113.83 124.475 113.45 125.125C113.08 125.765 112.575 126.26 111.935 126.61C111.295 126.96 110.585 127.135 109.805 127.135ZM109.805 125.935C110.295 125.935 110.755 125.82 111.185 125.59C111.615 125.36 111.96 125.015 112.22 124.555C112.49 124.095 112.625 123.535 112.625 122.875C112.625 122.215 112.495 121.655 112.235 121.195C111.975 120.735 111.635 120.395 111.215 120.175C110.795 119.945 110.34 119.83 109.85 119.83C109.35 119.83 108.89 119.945 108.47 120.175C108.06 120.395 107.73 120.735 107.48 121.195C107.23 121.655 107.105 122.215 107.105 122.875C107.105 123.545 107.225 124.11 107.465 124.57C107.715 125.03 108.045 125.375 108.455 125.605C108.865 125.825 109.315 125.935 109.805 125.935ZM119.82 118.63C120.82 118.63 121.63 118.935 122.25 119.545C122.87 120.145 123.18 121.015 123.18 122.155V127H121.83V122.35C121.83 121.53 121.625 120.905 121.215 120.475C120.805 120.035 120.245 119.815 119.535 119.815C118.815 119.815 118.24 120.04 117.81 120.49C117.39 120.94 117.18 121.595 117.18 122.455V127H115.815V118.78H117.18V119.95C117.45 119.53 117.815 119.205 118.275 118.975C118.745 118.745 119.26 118.63 119.82 118.63ZM136.399 119.605C136.399 120.475 136.099 121.2 135.499 121.78C134.909 122.35 134.004 122.635 132.784 122.635H130.774V127H129.409V116.545H132.784C133.964 116.545 134.859 116.83 135.469 117.4C136.089 117.97 136.399 118.705 136.399 119.605ZM132.784 121.51C133.544 121.51 134.104 121.345 134.464 121.015C134.824 120.685 135.004 120.215 135.004 119.605C135.004 118.315 134.264 117.67 132.784 117.67H130.774V121.51H132.784ZM141.68 127.135C140.91 127.135 140.21 126.96 139.58 126.61C138.96 126.26 138.47 125.765 138.11 125.125C137.76 124.475 137.585 123.725 137.585 122.875C137.585 122.035 137.765 121.295 138.125 120.655C138.495 120.005 138.995 119.51 139.625 119.17C140.255 118.82 140.96 118.645 141.74 118.645C142.52 118.645 143.225 118.82 143.855 119.17C144.485 119.51 144.98 120 145.34 120.64C145.71 121.28 145.895 122.025 145.895 122.875C145.895 123.725 145.705 124.475 145.325 125.125C144.955 125.765 144.45 126.26 143.81 126.61C143.17 126.96 142.46 127.135 141.68 127.135ZM141.68 125.935C142.17 125.935 142.63 125.82 143.06 125.59C143.49 125.36 143.835 125.015 144.095 124.555C144.365 124.095 144.5 123.535 144.5 122.875C144.5 122.215 144.37 121.655 144.11 121.195C143.85 120.735 143.51 120.395 143.09 120.175C142.67 119.945 142.215 119.83 141.725 119.83C141.225 119.83 140.765 119.945 140.345 120.175C139.935 120.395 139.605 120.735 139.355 121.195C139.105 121.655 138.98 122.215 138.98 122.875C138.98 123.545 139.1 124.11 139.34 124.57C139.59 125.03 139.92 125.375 140.33 125.605C140.74 125.825 141.19 125.935 141.68 125.935ZM149.055 120.115C149.295 119.645 149.635 119.28 150.075 119.02C150.525 118.76 151.07 118.63 151.71 118.63V120.04H151.35C149.82 120.04 149.055 120.87 149.055 122.53V127H147.69V118.78H149.055V120.115ZM154.951 119.905V124.75C154.951 125.15 155.036 125.435 155.206 125.605C155.376 125.765 155.671 125.845 156.091 125.845H157.096V127H155.866C155.106 127 154.536 126.825 154.156 126.475C153.776 126.125 153.586 125.55 153.586 124.75V119.905H152.521V118.78H153.586V116.71H154.951V118.78H157.096V119.905H154.951ZM162.095 119.905H160.37V127H159.005V119.905H157.94V118.78H159.005V118.195C159.005 117.275 159.24 116.605 159.71 116.185C160.19 115.755 160.955 115.54 162.005 115.54V116.68C161.405 116.68 160.98 116.8 160.73 117.04C160.49 117.27 160.37 117.655 160.37 118.195V118.78H162.095V119.905ZM167.271 127.135C166.501 127.135 165.801 126.96 165.171 126.61C164.551 126.26 164.061 125.765 163.701 125.125C163.351 124.475 163.176 123.725 163.176 122.875C163.176 122.035 163.356 121.295 163.716 120.655C164.086 120.005 164.586 119.51 165.216 119.17C165.846 118.82 166.551 118.645 167.331 118.645C168.111 118.645 168.816 118.82 169.446 119.17C170.076 119.51 170.571 120 170.931 120.64C171.301 121.28 171.486 122.025 171.486 122.875C171.486 123.725 171.296 124.475 170.916 125.125C170.546 125.765 170.041 126.26 169.401 126.61C168.761 126.96 168.051 127.135 167.271 127.135ZM167.271 125.935C167.761 125.935 168.221 125.82 168.651 125.59C169.081 125.36 169.426 125.015 169.686 124.555C169.956 124.095 170.091 123.535 170.091 122.875C170.091 122.215 169.961 121.655 169.701 121.195C169.441 120.735 169.101 120.395 168.681 120.175C168.261 119.945 167.806 119.83 167.316 119.83C166.816 119.83 166.356 119.945 165.936 120.175C165.526 120.395 165.196 120.735 164.946 121.195C164.696 121.655 164.571 122.215 164.571 122.875C164.571 123.545 164.691 124.11 164.931 124.57C165.181 125.03 165.511 125.375 165.921 125.605C166.331 125.825 166.781 125.935 167.271 125.935ZM174.646 115.9V127H173.281V115.9H174.646ZM177.677 117.445C177.417 117.445 177.197 117.355 177.017 117.175C176.837 116.995 176.747 116.775 176.747 116.515C176.747 116.255 176.837 116.035 177.017 115.855C177.197 115.675 177.417 115.585 177.677 115.585C177.927 115.585 178.137 115.675 178.307 115.855C178.487 116.035 178.577 116.255 178.577 116.515C178.577 116.775 178.487 116.995 178.307 117.175C178.137 117.355 177.927 117.445 177.677 117.445ZM178.337 118.78V127H176.972V118.78H178.337ZM184.249 127.135C183.479 127.135 182.779 126.96 182.149 126.61C181.529 126.26 181.039 125.765 180.679 125.125C180.329 124.475 180.154 123.725 180.154 122.875C180.154 122.035 180.334 121.295 180.694 120.655C181.064 120.005 181.564 119.51 182.194 119.17C182.824 118.82 183.529 118.645 184.309 118.645C185.089 118.645 185.794 118.82 186.424 119.17C187.054 119.51 187.549 120 187.909 120.64C188.279 121.28 188.464 122.025 188.464 122.875C188.464 123.725 188.274 124.475 187.894 125.125C187.524 125.765 187.019 126.26 186.379 126.61C185.739 126.96 185.029 127.135 184.249 127.135ZM184.249 125.935C184.739 125.935 185.199 125.82 185.629 125.59C186.059 125.36 186.404 125.015 186.664 124.555C186.934 124.095 187.069 123.535 187.069 122.875C187.069 122.215 186.939 121.655 186.679 121.195C186.419 120.735 186.079 120.395 185.659 120.175C185.239 119.945 184.784 119.83 184.294 119.83C183.794 119.83 183.334 119.945 182.914 120.175C182.504 120.395 182.174 120.735 181.924 121.195C181.674 121.655 181.549 122.215 181.549 122.875C181.549 123.545 181.669 124.11 181.909 124.57C182.159 125.03 182.489 125.375 182.899 125.605C183.309 125.825 183.759 125.935 184.249 125.935ZM193.748 121.765C193.748 120.745 193.978 119.83 194.438 119.02C194.898 118.2 195.523 117.56 196.313 117.1C197.113 116.64 197.998 116.41 198.968 116.41C200.108 116.41 201.103 116.685 201.953 117.235C202.803 117.785 203.423 118.565 203.813 119.575H202.178C201.888 118.945 201.468 118.46 200.918 118.12C200.378 117.78 199.728 117.61 198.968 117.61C198.238 117.61 197.583 117.78 197.003 118.12C196.423 118.46 195.968 118.945 195.638 119.575C195.308 120.195 195.143 120.925 195.143 121.765C195.143 122.595 195.308 123.325 195.638 123.955C195.968 124.575 196.423 125.055 197.003 125.395C197.583 125.735 198.238 125.905 198.968 125.905C199.728 125.905 200.378 125.74 200.918 125.41C201.468 125.07 201.888 124.585 202.178 123.955H203.813C203.423 124.955 202.803 125.73 201.953 126.28C201.103 126.82 200.108 127.09 198.968 127.09C197.998 127.09 197.113 126.865 196.313 126.415C195.523 125.955 194.898 125.32 194.438 124.51C193.978 123.7 193.748 122.785 193.748 121.765ZM209.429 127.135C208.659 127.135 207.959 126.96 207.329 126.61C206.709 126.26 206.219 125.765 205.859 125.125C205.509 124.475 205.334 123.725 205.334 122.875C205.334 122.035 205.514 121.295 205.874 120.655C206.244 120.005 206.744 119.51 207.374 119.17C208.004 118.82 208.709 118.645 209.489 118.645C210.269 118.645 210.974 118.82 211.604 119.17C212.234 119.51 212.729 120 213.089 120.64C213.459 121.28 213.644 122.025 213.644 122.875C213.644 123.725 213.454 124.475 213.074 125.125C212.704 125.765 212.199 126.26 211.559 126.61C210.919 126.96 210.209 127.135 209.429 127.135ZM209.429 125.935C209.919 125.935 210.379 125.82 210.809 125.59C211.239 125.36 211.584 125.015 211.844 124.555C212.114 124.095 212.249 123.535 212.249 122.875C212.249 122.215 212.119 121.655 211.859 121.195C211.599 120.735 211.259 120.395 210.839 120.175C210.419 119.945 209.964 119.83 209.474 119.83C208.974 119.83 208.514 119.945 208.094 120.175C207.684 120.395 207.354 120.735 207.104 121.195C206.854 121.655 206.729 122.215 206.729 122.875C206.729 123.545 206.849 124.11 207.089 124.57C207.339 125.03 207.669 125.375 208.079 125.605C208.489 125.825 208.939 125.935 209.429 125.935ZM225.324 118.63C225.964 118.63 226.534 118.765 227.034 119.035C227.534 119.295 227.929 119.69 228.219 120.22C228.509 120.75 228.654 121.395 228.654 122.155V127H227.304V122.35C227.304 121.53 227.099 120.905 226.689 120.475C226.289 120.035 225.744 119.815 225.054 119.815C224.344 119.815 223.779 120.045 223.359 120.505C222.939 120.955 222.729 121.61 222.729 122.47V127H221.379V122.35C221.379 121.53 221.174 120.905 220.764 120.475C220.364 120.035 219.819 119.815 219.129 119.815C218.419 119.815 217.854 120.045 217.434 120.505C217.014 120.955 216.804 121.61 216.804 122.47V127H215.439V118.78H216.804V119.965C217.074 119.535 217.434 119.205 217.884 118.975C218.344 118.745 218.849 118.63 219.399 118.63C220.089 118.63 220.699 118.785 221.229 119.095C221.759 119.405 222.154 119.86 222.414 120.46C222.644 119.88 223.024 119.43 223.554 119.11C224.084 118.79 224.674 118.63 225.324 118.63ZM232.258 120.295C232.528 119.825 232.928 119.435 233.458 119.125C233.998 118.805 234.623 118.645 235.333 118.645C236.063 118.645 236.723 118.82 237.313 119.17C237.913 119.52 238.383 120.015 238.723 120.655C239.063 121.285 239.233 122.02 239.233 122.86C239.233 123.69 239.063 124.43 238.723 125.08C238.383 125.73 237.913 126.235 237.313 126.595C236.723 126.955 236.063 127.135 235.333 127.135C234.633 127.135 234.013 126.98 233.473 126.67C232.943 126.35 232.538 125.955 232.258 125.485V130.9H230.893V118.78H232.258V120.295ZM237.838 122.86C237.838 122.24 237.713 121.7 237.463 121.24C237.213 120.78 236.873 120.43 236.443 120.19C236.023 119.95 235.558 119.83 235.048 119.83C234.548 119.83 234.083 119.955 233.653 120.205C233.233 120.445 232.893 120.8 232.633 121.27C232.383 121.73 232.258 122.265 232.258 122.875C232.258 123.495 232.383 124.04 232.633 124.51C232.893 124.97 233.233 125.325 233.653 125.575C234.083 125.815 234.548 125.935 235.048 125.935C235.558 125.935 236.023 125.815 236.443 125.575C236.873 125.325 237.213 124.97 237.463 124.51C237.713 124.04 237.838 123.49 237.838 122.86ZM240.52 122.86C240.52 122.02 240.69 121.285 241.03 120.655C241.37 120.015 241.835 119.52 242.425 119.17C243.025 118.82 243.69 118.645 244.42 118.645C245.14 118.645 245.765 118.8 246.295 119.11C246.825 119.42 247.22 119.81 247.48 120.28V118.78H248.86V127H247.48V125.47C247.21 125.95 246.805 126.35 246.265 126.67C245.735 126.98 245.115 127.135 244.405 127.135C243.675 127.135 243.015 126.955 242.425 126.595C241.835 126.235 241.37 125.73 241.03 125.08C240.69 124.43 240.52 123.69 240.52 122.86ZM247.48 122.875C247.48 122.255 247.355 121.715 247.105 121.255C246.855 120.795 246.515 120.445 246.085 120.205C245.665 119.955 245.2 119.83 244.69 119.83C244.18 119.83 243.715 119.95 243.295 120.19C242.875 120.43 242.54 120.78 242.29 121.24C242.04 121.7 241.915 122.24 241.915 122.86C241.915 123.49 242.04 124.04 242.29 124.51C242.54 124.97 242.875 125.325 243.295 125.575C243.715 125.815 244.18 125.935 244.69 125.935C245.2 125.935 245.665 125.815 246.085 125.575C246.515 125.325 246.855 124.97 247.105 124.51C247.355 124.04 247.48 123.495 247.48 122.875ZM255.172 118.63C256.172 118.63 256.982 118.935 257.602 119.545C258.222 120.145 258.532 121.015 258.532 122.155V127H257.182V122.35C257.182 121.53 256.977 120.905 256.567 120.475C256.157 120.035 255.597 119.815 254.887 119.815C254.167 119.815 253.592 120.04 253.162 120.49C252.742 120.94 252.532 121.595 252.532 122.455V127H251.167V118.78H252.532V119.95C252.802 119.53 253.167 119.205 253.627 118.975C254.097 118.745 254.612 118.63 255.172 118.63ZM261.466 117.445C261.206 117.445 260.986 117.355 260.806 117.175C260.626 116.995 260.536 116.775 260.536 116.515C260.536 116.255 260.626 116.035 260.806 115.855C260.986 115.675 261.206 115.585 261.466 115.585C261.716 115.585 261.926 115.675 262.096 115.855C262.276 116.035 262.366 116.255 262.366 116.515C262.366 116.775 262.276 116.995 262.096 117.175C261.926 117.355 261.716 117.445 261.466 117.445ZM262.126 118.78V127H260.761V118.78H262.126ZM271.953 122.575C271.953 122.835 271.938 123.11 271.908 123.4H265.338C265.388 124.21 265.663 124.845 266.163 125.305C266.673 125.755 267.288 125.98 268.008 125.98C268.598 125.98 269.088 125.845 269.478 125.575C269.878 125.295 270.158 124.925 270.318 124.465H271.788C271.568 125.255 271.128 125.9 270.468 126.4C269.808 126.89 268.988 127.135 268.008 127.135C267.228 127.135 266.528 126.96 265.908 126.61C265.298 126.26 264.818 125.765 264.468 125.125C264.118 124.475 263.943 123.725 263.943 122.875C263.943 122.025 264.113 121.28 264.453 120.64C264.793 120 265.268 119.51 265.878 119.17C266.498 118.82 267.208 118.645 268.008 118.645C268.788 118.645 269.478 118.815 270.078 119.155C270.678 119.495 271.138 119.965 271.458 120.565C271.788 121.155 271.953 121.825 271.953 122.575ZM270.543 122.29C270.543 121.77 270.428 121.325 270.198 120.955C269.968 120.575 269.653 120.29 269.253 120.1C268.863 119.9 268.428 119.8 267.948 119.8C267.258 119.8 266.668 120.02 266.178 120.46C265.698 120.9 265.423 121.51 265.353 122.29H270.543ZM276.665 127.135C276.035 127.135 275.47 127.03 274.97 126.82C274.47 126.6 274.075 126.3 273.785 125.92C273.495 125.53 273.335 125.085 273.305 124.585H274.715C274.755 124.995 274.945 125.33 275.285 125.59C275.635 125.85 276.09 125.98 276.65 125.98C277.17 125.98 277.58 125.865 277.88 125.635C278.18 125.405 278.33 125.115 278.33 124.765C278.33 124.405 278.17 124.14 277.85 123.97C277.53 123.79 277.035 123.615 276.365 123.445C275.755 123.285 275.255 123.125 274.865 122.965C274.485 122.795 274.155 122.55 273.875 122.23C273.605 121.9 273.47 121.47 273.47 120.94C273.47 120.52 273.595 120.135 273.845 119.785C274.095 119.435 274.45 119.16 274.91 118.96C275.37 118.75 275.895 118.645 276.485 118.645C277.395 118.645 278.13 118.875 278.69 119.335C279.25 119.795 279.55 120.425 279.59 121.225H278.225C278.195 120.795 278.02 120.45 277.7 120.19C277.39 119.93 276.97 119.8 276.44 119.8C275.95 119.8 275.56 119.905 275.27 120.115C274.98 120.325 274.835 120.6 274.835 120.94C274.835 121.21 274.92 121.435 275.09 121.615C275.27 121.785 275.49 121.925 275.75 122.035C276.02 122.135 276.39 122.25 276.86 122.38C277.45 122.54 277.93 122.7 278.3 122.86C278.67 123.01 278.985 123.24 279.245 123.55C279.515 123.86 279.655 124.265 279.665 124.765C279.665 125.215 279.54 125.62 279.29 125.98C279.04 126.34 278.685 126.625 278.225 126.835C277.775 127.035 277.255 127.135 276.665 127.135ZM283.002 125.11L281.322 129.145H280.407L281.502 125.11H283.002ZM294.744 124.675H290.184L289.344 127H287.904L291.684 116.605H293.259L297.024 127H295.584L294.744 124.675ZM294.354 123.565L292.464 118.285L290.574 123.565H294.354ZM302.677 118.63C303.677 118.63 304.487 118.935 305.107 119.545C305.727 120.145 306.037 121.015 306.037 122.155V127H304.687V122.35C304.687 121.53 304.482 120.905 304.072 120.475C303.662 120.035 303.102 119.815 302.392 119.815C301.672 119.815 301.097 120.04 300.667 120.49C300.247 120.94 300.037 121.595 300.037 122.455V127H298.672V118.78H300.037V119.95C300.307 119.53 300.672 119.205 301.132 118.975C301.602 118.745 302.117 118.63 302.677 118.63ZM307.756 122.86C307.756 122.02 307.926 121.285 308.266 120.655C308.606 120.015 309.071 119.52 309.661 119.17C310.261 118.82 310.931 118.645 311.671 118.645C312.311 118.645 312.906 118.795 313.456 119.095C314.006 119.385 314.426 119.77 314.716 120.25V115.9H316.096V127H314.716V125.455C314.446 125.945 314.046 126.35 313.516 126.67C312.986 126.98 312.366 127.135 311.656 127.135C310.926 127.135 310.261 126.955 309.661 126.595C309.071 126.235 308.606 125.73 308.266 125.08C307.926 124.43 307.756 123.69 307.756 122.86ZM314.716 122.875C314.716 122.255 314.591 121.715 314.341 121.255C314.091 120.795 313.751 120.445 313.321 120.205C312.901 119.955 312.436 119.83 311.926 119.83C311.416 119.83 310.951 119.95 310.531 120.19C310.111 120.43 309.776 120.78 309.526 121.24C309.276 121.7 309.151 122.24 309.151 122.86C309.151 123.49 309.276 124.04 309.526 124.51C309.776 124.97 310.111 125.325 310.531 125.575C310.951 125.815 311.416 125.935 311.926 125.935C312.436 125.935 312.901 125.815 313.321 125.575C313.751 125.325 314.091 124.97 314.341 124.51C314.591 124.04 314.716 123.495 314.716 122.875ZM325.717 127.105C325.027 127.105 324.407 126.985 323.857 126.745C323.317 126.495 322.892 126.155 322.582 125.725C322.272 125.285 322.112 124.78 322.102 124.21H323.557C323.607 124.7 323.807 125.115 324.157 125.455C324.517 125.785 325.037 125.95 325.717 125.95C326.367 125.95 326.877 125.79 327.247 125.47C327.627 125.14 327.817 124.72 327.817 124.21C327.817 123.81 327.707 123.485 327.487 123.235C327.267 122.985 326.992 122.795 326.662 122.665C326.332 122.535 325.887 122.395 325.327 122.245C324.637 122.065 324.082 121.885 323.662 121.705C323.252 121.525 322.897 121.245 322.597 120.865C322.307 120.475 322.162 119.955 322.162 119.305C322.162 118.735 322.307 118.23 322.597 117.79C322.887 117.35 323.292 117.01 323.812 116.77C324.342 116.53 324.947 116.41 325.627 116.41C326.607 116.41 327.407 116.655 328.027 117.145C328.657 117.635 329.012 118.285 329.092 119.095H327.592C327.542 118.695 327.332 118.345 326.962 118.045C326.592 117.735 326.102 117.58 325.492 117.58C324.922 117.58 324.457 117.73 324.097 118.03C323.737 118.32 323.557 118.73 323.557 119.26C323.557 119.64 323.662 119.95 323.872 120.19C324.092 120.43 324.357 120.615 324.667 120.745C324.987 120.865 325.432 121.005 326.002 121.165C326.692 121.355 327.247 121.545 327.667 121.735C328.087 121.915 328.447 122.2 328.747 122.59C329.047 122.97 329.197 123.49 329.197 124.15C329.197 124.66 329.062 125.14 328.792 125.59C328.522 126.04 328.122 126.405 327.592 126.685C327.062 126.965 326.437 127.105 325.717 127.105ZM338.496 118.78V127H337.131V125.785C336.871 126.205 336.506 126.535 336.036 126.775C335.576 127.005 335.066 127.12 334.506 127.12C333.866 127.12 333.291 126.99 332.781 126.73C332.271 126.46 331.866 126.06 331.566 125.53C331.276 125 331.131 124.355 331.131 123.595V118.78H332.481V123.415C332.481 124.225 332.686 124.85 333.096 125.29C333.506 125.72 334.066 125.935 334.776 125.935C335.506 125.935 336.081 125.71 336.501 125.26C336.921 124.81 337.131 124.155 337.131 123.295V118.78H338.496ZM342.166 120.295C342.436 119.825 342.836 119.435 343.366 119.125C343.906 118.805 344.531 118.645 345.241 118.645C345.971 118.645 346.631 118.82 347.221 119.17C347.821 119.52 348.291 120.015 348.631 120.655C348.971 121.285 349.141 122.02 349.141 122.86C349.141 123.69 348.971 124.43 348.631 125.08C348.291 125.73 347.821 126.235 347.221 126.595C346.631 126.955 345.971 127.135 345.241 127.135C344.541 127.135 343.921 126.98 343.381 126.67C342.851 126.35 342.446 125.955 342.166 125.485V130.9H340.801V118.78H342.166V120.295ZM347.746 122.86C347.746 122.24 347.621 121.7 347.371 121.24C347.121 120.78 346.781 120.43 346.351 120.19C345.931 119.95 345.466 119.83 344.956 119.83C344.456 119.83 343.991 119.955 343.561 120.205C343.141 120.445 342.801 120.8 342.541 121.27C342.291 121.73 342.166 122.265 342.166 122.875C342.166 123.495 342.291 124.04 342.541 124.51C342.801 124.97 343.141 125.325 343.561 125.575C343.991 125.815 344.456 125.935 344.956 125.935C345.466 125.935 345.931 125.815 346.351 125.575C346.781 125.325 347.121 124.97 347.371 124.51C347.621 124.04 347.746 123.49 347.746 122.86ZM352.302 120.295C352.572 119.825 352.972 119.435 353.502 119.125C354.042 118.805 354.667 118.645 355.377 118.645C356.107 118.645 356.767 118.82 357.357 119.17C357.957 119.52 358.427 120.015 358.767 120.655C359.107 121.285 359.277 122.02 359.277 122.86C359.277 123.69 359.107 124.43 358.767 125.08C358.427 125.73 357.957 126.235 357.357 126.595C356.767 126.955 356.107 127.135 355.377 127.135C354.677 127.135 354.057 126.98 353.517 126.67C352.987 126.35 352.582 125.955 352.302 125.485V130.9H350.937V118.78H352.302V120.295ZM357.882 122.86C357.882 122.24 357.757 121.7 357.507 121.24C357.257 120.78 356.917 120.43 356.487 120.19C356.067 119.95 355.602 119.83 355.092 119.83C354.592 119.83 354.127 119.955 353.697 120.205C353.277 120.445 352.937 120.8 352.677 121.27C352.427 121.73 352.302 122.265 352.302 122.875C352.302 123.495 352.427 124.04 352.677 124.51C352.937 124.97 353.277 125.325 353.697 125.575C354.127 125.815 354.592 125.935 355.092 125.935C355.602 125.935 356.067 125.815 356.487 125.575C356.917 125.325 357.257 124.97 357.507 124.51C357.757 124.04 357.882 123.49 357.882 122.86ZM362.439 115.9V127H361.074V115.9H362.439ZM365.47 117.445C365.21 117.445 364.99 117.355 364.81 117.175C364.63 116.995 364.54 116.775 364.54 116.515C364.54 116.255 364.63 116.035 364.81 115.855C364.99 115.675 365.21 115.585 365.47 115.585C365.72 115.585 365.93 115.675 366.1 115.855C366.28 116.035 366.37 116.255 366.37 116.515C366.37 116.775 366.28 116.995 366.1 117.175C365.93 117.355 365.72 117.445 365.47 117.445ZM366.13 118.78V127H364.765V118.78H366.13ZM375.957 122.575C375.957 122.835 375.942 123.11 375.912 123.4H369.342C369.392 124.21 369.667 124.845 370.167 125.305C370.677 125.755 371.292 125.98 372.012 125.98C372.602 125.98 373.092 125.845 373.482 125.575C373.882 125.295 374.162 124.925 374.322 124.465H375.792C375.572 125.255 375.132 125.9 374.472 126.4C373.812 126.89 372.992 127.135 372.012 127.135C371.232 127.135 370.532 126.96 369.912 126.61C369.302 126.26 368.822 125.765 368.472 125.125C368.122 124.475 367.947 123.725 367.947 122.875C367.947 122.025 368.117 121.28 368.457 120.64C368.797 120 369.272 119.51 369.882 119.17C370.502 118.82 371.212 118.645 372.012 118.645C372.792 118.645 373.482 118.815 374.082 119.155C374.682 119.495 375.142 119.965 375.462 120.565C375.792 121.155 375.957 121.825 375.957 122.575ZM374.547 122.29C374.547 121.77 374.432 121.325 374.202 120.955C373.972 120.575 373.657 120.29 373.257 120.1C372.867 119.9 372.432 119.8 371.952 119.8C371.262 119.8 370.672 120.02 370.182 120.46C369.702 120.9 369.427 121.51 369.357 122.29H374.547ZM380.669 127.135C380.039 127.135 379.474 127.03 378.974 126.82C378.474 126.6 378.079 126.3 377.789 125.92C377.499 125.53 377.339 125.085 377.309 124.585H378.719C378.759 124.995 378.949 125.33 379.289 125.59C379.639 125.85 380.094 125.98 380.654 125.98C381.174 125.98 381.584 125.865 381.884 125.635C382.184 125.405 382.334 125.115 382.334 124.765C382.334 124.405 382.174 124.14 381.854 123.97C381.534 123.79 381.039 123.615 380.369 123.445C379.759 123.285 379.259 123.125 378.869 122.965C378.489 122.795 378.159 122.55 377.879 122.23C377.609 121.9 377.474 121.47 377.474 120.94C377.474 120.52 377.599 120.135 377.849 119.785C378.099 119.435 378.454 119.16 378.914 118.96C379.374 118.75 379.899 118.645 380.489 118.645C381.399 118.645 382.134 118.875 382.694 119.335C383.254 119.795 383.554 120.425 383.594 121.225H382.229C382.199 120.795 382.024 120.45 381.704 120.19C381.394 119.93 380.974 119.8 380.444 119.8C379.954 119.8 379.564 119.905 379.274 120.115C378.984 120.325 378.839 120.6 378.839 120.94C378.839 121.21 378.924 121.435 379.094 121.615C379.274 121.785 379.494 121.925 379.754 122.035C380.024 122.135 380.394 122.25 380.864 122.38C381.454 122.54 381.934 122.7 382.304 122.86C382.674 123.01 382.989 123.24 383.249 123.55C383.519 123.86 383.659 124.265 383.669 124.765C383.669 125.215 383.544 125.62 383.294 125.98C383.044 126.34 382.689 126.625 382.229 126.835C381.779 127.035 381.259 127.135 380.669 127.135ZM387.005 125.11L385.325 129.145H384.41L385.505 125.11H387.005ZM398.748 124.675H394.188L393.348 127H391.908L395.688 116.605H397.263L401.028 127H399.588L398.748 124.675ZM398.358 123.565L396.468 118.285L394.578 123.565H398.358ZM412.561 118.63C413.201 118.63 413.771 118.765 414.271 119.035C414.771 119.295 415.166 119.69 415.456 120.22C415.746 120.75 415.891 121.395 415.891 122.155V127H414.541V122.35C414.541 121.53 414.336 120.905 413.926 120.475C413.526 120.035 412.981 119.815 412.291 119.815C411.581 119.815 411.016 120.045 410.596 120.505C410.176 120.955 409.966 121.61 409.966 122.47V127H408.616V122.35C408.616 121.53 408.411 120.905 408.001 120.475C407.601 120.035 407.056 119.815 406.366 119.815C405.656 119.815 405.091 120.045 404.671 120.505C404.251 120.955 404.041 121.61 404.041 122.47V127H402.676V118.78H404.041V119.965C404.311 119.535 404.671 119.205 405.121 118.975C405.581 118.745 406.086 118.63 406.636 118.63C407.326 118.63 407.936 118.785 408.466 119.095C408.996 119.405 409.391 119.86 409.651 120.46C409.881 119.88 410.261 119.43 410.791 119.11C411.321 118.79 411.911 118.63 412.561 118.63ZM421.715 127.135C420.945 127.135 420.245 126.96 419.615 126.61C418.995 126.26 418.505 125.765 418.145 125.125C417.795 124.475 417.62 123.725 417.62 122.875C417.62 122.035 417.8 121.295 418.16 120.655C418.53 120.005 419.03 119.51 419.66 119.17C420.29 118.82 420.995 118.645 421.775 118.645C422.555 118.645 423.26 118.82 423.89 119.17C424.52 119.51 425.015 120 425.375 120.64C425.745 121.28 425.93 122.025 425.93 122.875C425.93 123.725 425.74 124.475 425.36 125.125C424.99 125.765 424.485 126.26 423.845 126.61C423.205 126.96 422.495 127.135 421.715 127.135ZM421.715 125.935C422.205 125.935 422.665 125.82 423.095 125.59C423.525 125.36 423.87 125.015 424.13 124.555C424.4 124.095 424.535 123.535 424.535 122.875C424.535 122.215 424.405 121.655 424.145 121.195C423.885 120.735 423.545 120.395 423.125 120.175C422.705 119.945 422.25 119.83 421.76 119.83C421.26 119.83 420.8 119.945 420.38 120.175C419.97 120.395 419.64 120.735 419.39 121.195C419.14 121.655 419.015 122.215 419.015 122.875C419.015 123.545 419.135 124.11 419.375 124.57C419.625 125.03 419.955 125.375 420.365 125.605C420.775 125.825 421.225 125.935 421.715 125.935ZM431.729 118.63C432.729 118.63 433.539 118.935 434.159 119.545C434.779 120.145 435.089 121.015 435.089 122.155V127H433.739V122.35C433.739 121.53 433.534 120.905 433.124 120.475C432.714 120.035 432.154 119.815 431.444 119.815C430.724 119.815 430.149 120.04 429.719 120.49C429.299 120.94 429.089 121.595 429.089 122.455V127H427.724V118.78H429.089V119.95C429.359 119.53 429.724 119.205 430.184 118.975C430.654 118.745 431.169 118.63 431.729 118.63ZM440.709 118.645C441.419 118.645 442.039 118.8 442.569 119.11C443.109 119.42 443.509 119.81 443.769 120.28V118.78H445.149V127.18C445.149 127.93 444.989 128.595 444.669 129.175C444.349 129.765 443.889 130.225 443.289 130.555C442.699 130.885 442.009 131.05 441.219 131.05C440.139 131.05 439.239 130.795 438.519 130.285C437.799 129.775 437.374 129.08 437.244 128.2H438.594C438.744 128.7 439.054 129.1 439.524 129.4C439.994 129.71 440.559 129.865 441.219 129.865C441.969 129.865 442.579 129.63 443.049 129.16C443.529 128.69 443.769 128.03 443.769 127.18V125.455C443.499 125.935 443.099 126.335 442.569 126.655C442.039 126.975 441.419 127.135 440.709 127.135C439.979 127.135 439.314 126.955 438.714 126.595C438.124 126.235 437.659 125.73 437.319 125.08C436.979 124.43 436.809 123.69 436.809 122.86C436.809 122.02 436.979 121.285 437.319 120.655C437.659 120.015 438.124 119.52 438.714 119.17C439.314 118.82 439.979 118.645 440.709 118.645ZM443.769 122.875C443.769 122.255 443.644 121.715 443.394 121.255C443.144 120.795 442.804 120.445 442.374 120.205C441.954 119.955 441.489 119.83 440.979 119.83C440.469 119.83 440.004 119.95 439.584 120.19C439.164 120.43 438.829 120.78 438.579 121.24C438.329 121.7 438.204 122.24 438.204 122.86C438.204 123.49 438.329 124.04 438.579 124.51C438.829 124.97 439.164 125.325 439.584 125.575C440.004 125.815 440.469 125.935 440.979 125.935C441.489 125.935 441.954 125.815 442.374 125.575C442.804 125.325 443.144 124.97 443.394 124.51C443.644 124.04 443.769 123.495 443.769 122.875ZM456.195 127.105C455.225 127.105 454.34 126.88 453.54 126.43C452.74 125.97 452.105 125.335 451.635 124.525C451.175 123.705 450.945 122.785 450.945 121.765C450.945 120.745 451.175 119.83 451.635 119.02C452.105 118.2 452.74 117.565 453.54 117.115C454.34 116.655 455.225 116.425 456.195 116.425C457.175 116.425 458.065 116.655 458.865 117.115C459.665 117.565 460.295 118.195 460.755 119.005C461.215 119.815 461.445 120.735 461.445 121.765C461.445 122.795 461.215 123.715 460.755 124.525C460.295 125.335 459.665 125.97 458.865 126.43C458.065 126.88 457.175 127.105 456.195 127.105ZM456.195 125.92C456.925 125.92 457.58 125.75 458.16 125.41C458.75 125.07 459.21 124.585 459.54 123.955C459.88 123.325 460.05 122.595 460.05 121.765C460.05 120.925 459.88 120.195 459.54 119.575C459.21 118.945 458.755 118.46 458.175 118.12C457.595 117.78 456.935 117.61 456.195 117.61C455.455 117.61 454.795 117.78 454.215 118.12C453.635 118.46 453.175 118.945 452.835 119.575C452.505 120.195 452.34 120.925 452.34 121.765C452.34 122.595 452.505 123.325 452.835 123.955C453.175 124.585 453.635 125.07 454.215 125.41C454.805 125.75 455.465 125.92 456.195 125.92ZM464.912 119.905V124.75C464.912 125.15 464.997 125.435 465.167 125.605C465.337 125.765 465.632 125.845 466.052 125.845H467.057V127H465.827C465.067 127 464.497 126.825 464.117 126.475C463.737 126.125 463.547 125.55 463.547 124.75V119.905H462.482V118.78H463.547V116.71H464.912V118.78H467.057V119.905H464.912ZM472.791 118.63C473.411 118.63 473.971 118.765 474.471 119.035C474.971 119.295 475.361 119.69 475.641 120.22C475.931 120.75 476.076 121.395 476.076 122.155V127H474.726V122.35C474.726 121.53 474.521 120.905 474.111 120.475C473.701 120.035 473.141 119.815 472.431 119.815C471.711 119.815 471.136 120.04 470.706 120.49C470.286 120.94 470.076 121.595 470.076 122.455V127H468.711V115.9H470.076V119.95C470.346 119.53 470.716 119.205 471.186 118.975C471.666 118.745 472.201 118.63 472.791 118.63ZM485.805 122.575C485.805 122.835 485.79 123.11 485.76 123.4H479.19C479.24 124.21 479.515 124.845 480.015 125.305C480.525 125.755 481.14 125.98 481.86 125.98C482.45 125.98 482.94 125.845 483.33 125.575C483.73 125.295 484.01 124.925 484.17 124.465H485.64C485.42 125.255 484.98 125.9 484.32 126.4C483.66 126.89 482.84 127.135 481.86 127.135C481.08 127.135 480.38 126.96 479.76 126.61C479.15 126.26 478.67 125.765 478.32 125.125C477.97 124.475 477.795 123.725 477.795 122.875C477.795 122.025 477.965 121.28 478.305 120.64C478.645 120 479.12 119.51 479.73 119.17C480.35 118.82 481.06 118.645 481.86 118.645C482.64 118.645 483.33 118.815 483.93 119.155C484.53 119.495 484.99 119.965 485.31 120.565C485.64 121.155 485.805 121.825 485.805 122.575ZM484.395 122.29C484.395 121.77 484.28 121.325 484.05 120.955C483.82 120.575 483.505 120.29 483.105 120.1C482.715 119.9 482.28 119.8 481.8 119.8C481.11 119.8 480.52 120.02 480.03 120.46C479.55 120.9 479.275 121.51 479.205 122.29H484.395ZM488.972 120.115C489.212 119.645 489.552 119.28 489.992 119.02C490.442 118.76 490.987 118.63 491.627 118.63V120.04H491.267C489.737 120.04 488.972 120.87 488.972 122.53V127H487.607V118.78H488.972V120.115ZM496.113 127.135C495.483 127.135 494.918 127.03 494.418 126.82C493.918 126.6 493.523 126.3 493.233 125.92C492.943 125.53 492.783 125.085 492.753 124.585H494.163C494.203 124.995 494.393 125.33 494.733 125.59C495.083 125.85 495.538 125.98 496.098 125.98C496.618 125.98 497.028 125.865 497.328 125.635C497.628 125.405 497.778 125.115 497.778 124.765C497.778 124.405 497.618 124.14 497.298 123.97C496.978 123.79 496.483 123.615 495.813 123.445C495.203 123.285 494.703 123.125 494.313 122.965C493.933 122.795 493.603 122.55 493.323 122.23C493.053 121.9 492.918 121.47 492.918 120.94C492.918 120.52 493.043 120.135 493.293 119.785C493.543 119.435 493.898 119.16 494.358 118.96C494.818 118.75 495.343 118.645 495.933 118.645C496.843 118.645 497.578 118.875 498.138 119.335C498.698 119.795 498.998 120.425 499.038 121.225H497.673C497.643 120.795 497.468 120.45 497.148 120.19C496.838 119.93 496.418 119.8 495.888 119.8C495.398 119.8 495.008 119.905 494.718 120.115C494.428 120.325 494.283 120.6 494.283 120.94C494.283 121.21 494.368 121.435 494.538 121.615C494.718 121.785 494.938 121.925 495.198 122.035C495.468 122.135 495.838 122.25 496.308 122.38C496.898 122.54 497.378 122.7 497.748 122.86C498.118 123.01 498.433 123.24 498.693 123.55C498.963 123.86 499.103 124.265 499.113 124.765C499.113 125.215 498.988 125.62 498.738 125.98C498.488 126.34 498.133 126.625 497.673 126.835C497.223 127.035 496.703 127.135 496.113 127.135Z" fill="white"/>
</svg>
