<svg width="535" height="160" viewBox="0 0 535 160" fill="none" xmlns="http://www.w3.org/2000/svg">
<rect width="520" height="160" rx="30" fill="url(#paint0_linear_212_3)"/>
<path d="M43.968 59.032H35.584L34.24 63H28.512L36.64 40.536H42.976L51.104 63H45.312L43.968 59.032ZM42.56 54.808L39.776 46.584L37.024 54.808H42.56ZM59.0498 58.776H66.2178V63H53.5778V40.536H59.0498V58.776ZM74.2998 44.92V49.464H81.6278V53.688H74.2998V58.616H82.5878V63H68.8278V40.536H82.5878V44.92H74.2998ZM97.5963 63L92.9243 54.52H91.6123V63H86.1403V40.536H95.3243C97.0949 40.536 98.5989 40.8453 99.8363 41.464C101.095 42.0827 102.034 42.936 102.652 44.024C103.271 45.0907 103.58 46.2853 103.58 47.608C103.58 49.1013 103.154 50.4347 102.3 51.608C101.468 52.7813 100.231 53.6133 98.5883 54.104L103.772 63H97.5963ZM91.6123 50.648H95.0043C96.0069 50.648 96.7536 50.4027 97.2443 49.912C97.7563 49.4213 98.0123 48.728 98.0123 47.832C98.0123 46.9787 97.7563 46.3067 97.2443 45.816C96.7536 45.3253 96.0069 45.08 95.0043 45.08H91.6123V50.648ZM123.175 40.536V44.92H117.223V63H111.751V44.92H105.799V40.536H123.175ZM134.05 63.224C132.407 63.224 130.935 62.9573 129.634 62.424C128.332 61.8907 127.287 61.1013 126.498 60.056C125.73 59.0107 125.324 57.752 125.282 56.28H131.106C131.191 57.112 131.479 57.752 131.97 58.2C132.46 58.6267 133.1 58.84 133.89 58.84C134.7 58.84 135.34 58.6587 135.81 58.296C136.279 57.912 136.514 57.3893 136.514 56.728C136.514 56.1733 136.322 55.7147 135.938 55.352C135.575 54.9893 135.116 54.6907 134.562 54.456C134.028 54.2213 133.26 53.9547 132.258 53.656C130.807 53.208 129.623 52.76 128.706 52.312C127.788 51.864 126.999 51.2027 126.338 50.328C125.676 49.4533 125.346 48.312 125.346 46.904C125.346 44.8133 126.103 43.1813 127.618 42.008C129.132 40.8133 131.106 40.216 133.538 40.216C136.012 40.216 138.007 40.8133 139.522 42.008C141.036 43.1813 141.847 44.824 141.954 46.936H136.034C135.991 46.2107 135.724 45.6453 135.234 45.24C134.743 44.8133 134.114 44.6 133.345 44.6C132.684 44.6 132.151 44.7813 131.746 45.144C131.34 45.4853 131.138 45.9867 131.138 46.648C131.138 47.3733 131.479 47.9387 132.161 48.344C132.844 48.7493 133.911 49.1867 135.362 49.656C136.812 50.1467 137.986 50.616 138.882 51.064C139.799 51.512 140.588 52.1627 141.25 53.016C141.911 53.8693 142.242 54.968 142.242 56.312C142.242 57.592 141.911 58.7547 141.25 59.8C140.61 60.8453 139.671 61.6773 138.434 62.296C137.196 62.9147 135.735 63.224 134.05 63.224ZM169.574 63L167.494 60.984C165.425 62.5627 162.95 63.352 160.07 63.352C158.342 63.352 156.838 63.0747 155.558 62.52C154.278 61.944 153.286 61.144 152.582 60.12C151.9 59.0747 151.558 57.8587 151.558 56.472C151.558 55.064 151.932 53.7947 152.678 52.664C153.446 51.512 154.588 50.5733 156.102 49.848C155.548 49.1653 155.153 48.5147 154.918 47.896C154.684 47.256 154.566 46.5627 154.566 45.816C154.566 44.7493 154.844 43.7787 155.398 42.904C155.953 42.0293 156.753 41.3467 157.798 40.856C158.865 40.344 160.124 40.088 161.574 40.088C163.046 40.088 164.294 40.3547 165.318 40.888C166.342 41.4213 167.11 42.136 167.622 43.032C168.134 43.928 168.369 44.9093 168.326 45.976H163.174C163.196 45.4 163.046 44.9627 162.726 44.664C162.428 44.344 162.022 44.184 161.51 44.184C160.998 44.184 160.572 44.3333 160.23 44.632C159.889 44.9307 159.718 45.3147 159.718 45.784C159.718 46.232 159.857 46.7013 160.134 47.192C160.433 47.6827 160.892 48.248 161.51 48.888L166.982 54.232C167.025 54.1253 167.078 53.9973 167.142 53.848C167.228 53.6987 167.313 53.528 167.398 53.336L168.582 51.32H174.054L172.518 54.104C171.942 55.3627 171.281 56.5573 170.534 57.688L175.942 63H169.574ZM160.326 58.936C161.756 58.936 163.025 58.5307 164.134 57.72L159.142 52.888C157.606 53.6773 156.838 54.744 156.838 56.088C156.838 56.8987 157.148 57.5813 157.766 58.136C158.406 58.6693 159.26 58.936 160.326 58.936ZM210.143 40.536V63H204.671V49.528L199.647 63H195.231L190.175 49.496V63H184.703V40.536H191.167L197.471 56.088L203.711 40.536H210.143ZM224.702 63.224C222.59 63.224 220.648 62.7333 218.878 61.752C217.128 60.7707 215.731 59.4053 214.686 57.656C213.662 55.8853 213.15 53.9013 213.15 51.704C213.15 49.5067 213.662 47.5333 214.686 45.784C215.731 44.0347 217.128 42.6693 218.878 41.688C220.648 40.7067 222.59 40.216 224.702 40.216C226.814 40.216 228.744 40.7067 230.494 41.688C232.264 42.6693 233.651 44.0347 234.654 45.784C235.678 47.5333 236.19 49.5067 236.19 51.704C236.19 53.9013 235.678 55.8853 234.654 57.656C233.63 59.4053 232.243 60.7707 230.494 61.752C228.744 62.7333 226.814 63.224 224.702 63.224ZM224.702 58.232C226.494 58.232 227.923 57.6347 228.99 56.44C230.078 55.2453 230.622 53.6667 230.622 51.704C230.622 49.72 230.078 48.1413 228.99 46.968C227.923 45.7733 226.494 45.176 224.702 45.176C222.888 45.176 221.438 45.7627 220.35 46.936C219.283 48.1093 218.75 49.6987 218.75 51.704C218.75 53.688 219.283 55.2773 220.35 56.472C221.438 57.6453 222.888 58.232 224.702 58.232ZM259.33 63H253.858L244.706 49.144V63H239.234V40.536H244.706L253.858 54.456V40.536H259.33V63ZM268.769 40.536V63H263.297V40.536H268.769ZM288.894 40.536V44.92H282.942V63H277.47V44.92H271.518V40.536H288.894ZM302.264 63.224C300.152 63.224 298.211 62.7333 296.44 61.752C294.691 60.7707 293.294 59.4053 292.248 57.656C291.224 55.8853 290.712 53.9013 290.712 51.704C290.712 49.5067 291.224 47.5333 292.248 45.784C293.294 44.0347 294.691 42.6693 296.44 41.688C298.211 40.7067 300.152 40.216 302.264 40.216C304.376 40.216 306.307 40.7067 308.056 41.688C309.827 42.6693 311.214 44.0347 312.216 45.784C313.24 47.5333 313.752 49.5067 313.752 51.704C313.752 53.9013 313.24 55.8853 312.216 57.656C311.192 59.4053 309.806 60.7707 308.056 61.752C306.307 62.7333 304.376 63.224 302.264 63.224ZM302.264 58.232C304.056 58.232 305.486 57.6347 306.552 56.44C307.64 55.2453 308.184 53.6667 308.184 51.704C308.184 49.72 307.64 48.1413 306.552 46.968C305.486 45.7733 304.056 45.176 302.264 45.176C300.451 45.176 299 45.7627 297.912 46.936C296.846 48.1093 296.312 49.6987 296.312 51.704C296.312 53.688 296.846 55.2773 297.912 56.472C299 57.6453 300.451 58.232 302.264 58.232ZM328.253 63L323.581 54.52H322.269V63H316.797V40.536H325.981C327.751 40.536 329.255 40.8453 330.493 41.464C331.751 42.0827 332.69 42.936 333.309 44.024C333.927 45.0907 334.237 46.2853 334.237 47.608C334.237 49.1013 333.81 50.4347 332.957 51.608C332.125 52.7813 330.887 53.6133 329.245 54.104L334.429 63H328.253ZM322.269 50.648H325.661C326.663 50.648 327.41 50.4027 327.901 49.912C328.413 49.4213 328.669 48.728 328.669 47.832C328.669 46.9787 328.413 46.3067 327.901 45.816C327.41 45.3253 326.663 45.08 325.661 45.08H322.269V50.648ZM343.144 40.536V63H337.672V40.536H343.144ZM367.205 63H361.733L352.581 49.144V63H347.109V40.536H352.581L361.733 54.456V40.536H367.205V63ZM386.083 47.64C385.678 46.8933 385.092 46.328 384.324 45.944C383.577 45.5387 382.692 45.336 381.668 45.336C379.897 45.336 378.478 45.9227 377.411 47.096C376.345 48.248 375.812 49.7947 375.812 51.736C375.812 53.8053 376.366 55.4267 377.476 56.6C378.606 57.752 380.153 58.328 382.116 58.328C383.46 58.328 384.59 57.9867 385.508 57.304C386.446 56.6213 387.129 55.64 387.556 54.36H380.612V50.328H392.516V55.416C392.11 56.7813 391.417 58.0507 390.436 59.224C389.476 60.3973 388.249 61.3467 386.756 62.072C385.262 62.7973 383.577 63.16 381.7 63.16C379.481 63.16 377.497 62.68 375.748 61.72C374.02 60.7387 372.665 59.384 371.684 57.656C370.724 55.928 370.243 53.9547 370.243 51.736C370.243 49.5173 370.724 47.544 371.684 45.816C372.665 44.0667 374.02 42.712 375.748 41.752C377.476 40.7707 379.449 40.28 381.668 40.28C384.356 40.28 386.617 40.9307 388.452 42.232C390.308 43.5333 391.534 45.336 392.132 47.64H386.083ZM37.075 94.575C36.785 93.965 36.365 93.495 35.815 93.165C35.265 92.825 34.625 92.655 33.895 92.655C33.165 92.655 32.505 92.825 31.915 93.165C31.335 93.495 30.875 93.975 30.535 94.605C30.205 95.225 30.04 95.945 30.04 96.765C30.04 97.585 30.205 98.305 30.535 98.925C30.875 99.545 31.335 100.025 31.915 100.365C32.505 100.695 33.165 100.86 33.895 100.86C34.915 100.86 35.755 100.555 36.415 99.945C37.075 99.335 37.46 98.51 37.57 97.47H33.4V96.36H39.025V97.41C38.945 98.27 38.675 99.06 38.215 99.78C37.755 100.49 37.15 101.055 36.4 101.475C35.65 101.885 34.815 102.09 33.895 102.09C32.925 102.09 32.04 101.865 31.24 101.415C30.44 100.955 29.805 100.32 29.335 99.51C28.875 98.7 28.645 97.785 28.645 96.765C28.645 95.745 28.875 94.83 29.335 94.02C29.805 93.2 30.44 92.565 31.24 92.115C32.04 91.655 32.925 91.425 33.895 91.425C35.005 91.425 35.985 91.7 36.835 92.25C37.695 92.8 38.32 93.575 38.71 94.575H37.075ZM48.3298 97.575C48.3298 97.835 48.3148 98.11 48.2848 98.4H41.7148C41.7648 99.21 42.0398 99.845 42.5398 100.305C43.0498 100.755 43.6648 100.98 44.3848 100.98C44.9748 100.98 45.4648 100.845 45.8548 100.575C46.2548 100.295 46.5348 99.925 46.6948 99.465H48.1648C47.9448 100.255 47.5048 100.9 46.8448 101.4C46.1848 101.89 45.3648 102.135 44.3848 102.135C43.6048 102.135 42.9048 101.96 42.2848 101.61C41.6748 101.26 41.1948 100.765 40.8448 100.125C40.4948 99.475 40.3198 98.725 40.3198 97.875C40.3198 97.025 40.4898 96.28 40.8298 95.64C41.1698 95 41.6448 94.51 42.2548 94.17C42.8748 93.82 43.5848 93.645 44.3848 93.645C45.1648 93.645 45.8548 93.815 46.4548 94.155C47.0548 94.495 47.5148 94.965 47.8348 95.565C48.1648 96.155 48.3298 96.825 48.3298 97.575ZM46.9198 97.29C46.9198 96.77 46.8048 96.325 46.5748 95.955C46.3448 95.575 46.0298 95.29 45.6298 95.1C45.2398 94.9 44.8048 94.8 44.3248 94.8C43.6348 94.8 43.0448 95.02 42.5548 95.46C42.0748 95.9 41.7998 96.51 41.7298 97.29H46.9198ZM51.7966 94.905V99.75C51.7966 100.15 51.8816 100.435 52.0516 100.605C52.2216 100.765 52.5166 100.845 52.9366 100.845H53.9416V102H52.7116C51.9516 102 51.3816 101.825 51.0016 101.475C50.6216 101.125 50.4316 100.55 50.4316 99.75V94.905H49.3666V93.78H50.4316V91.71H51.7966V93.78H53.9416V94.905H51.7966ZM60.9595 92.655V96.15H64.7695V97.275H60.9595V100.875H65.2195V102H59.5945V91.53H65.2195V92.655H60.9595ZM70.5999 102.105C69.9099 102.105 69.2899 101.985 68.7399 101.745C68.1999 101.495 67.7749 101.155 67.4649 100.725C67.1549 100.285 66.9949 99.78 66.9849 99.21H68.4399C68.4899 99.7 68.6899 100.115 69.0399 100.455C69.3999 100.785 69.9199 100.95 70.5999 100.95C71.2499 100.95 71.7599 100.79 72.1299 100.47C72.5099 100.14 72.6999 99.72 72.6999 99.21C72.6999 98.81 72.5899 98.485 72.3699 98.235C72.1499 97.985 71.8749 97.795 71.5449 97.665C71.2149 97.535 70.7699 97.395 70.2099 97.245C69.5199 97.065 68.9649 96.885 68.5449 96.705C68.1349 96.525 67.7799 96.245 67.4799 95.865C67.1899 95.475 67.0449 94.955 67.0449 94.305C67.0449 93.735 67.1899 93.23 67.4799 92.79C67.7699 92.35 68.1749 92.01 68.6949 91.77C69.2249 91.53 69.8299 91.41 70.5099 91.41C71.4899 91.41 72.2899 91.655 72.9099 92.145C73.5399 92.635 73.8949 93.285 73.9749 94.095H72.4749C72.4249 93.695 72.2149 93.345 71.8449 93.045C71.4749 92.735 70.9849 92.58 70.3749 92.58C69.8049 92.58 69.3399 92.73 68.9799 93.03C68.6199 93.32 68.4399 93.73 68.4399 94.26C68.4399 94.64 68.5449 94.95 68.7549 95.19C68.9749 95.43 69.2399 95.615 69.5499 95.745C69.8699 95.865 70.3149 96.005 70.8849 96.165C71.5749 96.355 72.1299 96.545 72.5499 96.735C72.9699 96.915 73.3299 97.2 73.6299 97.59C73.9299 97.97 74.0799 98.49 74.0799 99.15C74.0799 99.66 73.9449 100.14 73.6749 100.59C73.4049 101.04 73.0049 101.405 72.4749 101.685C71.9449 101.965 71.3199 102.105 70.5999 102.105ZM84.0086 94.575C83.7186 93.965 83.2986 93.495 82.7486 93.165C82.1986 92.825 81.5586 92.655 80.8286 92.655C80.0986 92.655 79.4386 92.825 78.8486 93.165C78.2686 93.495 77.8086 93.975 77.4686 94.605C77.1386 95.225 76.9736 95.945 76.9736 96.765C76.9736 97.585 77.1386 98.305 77.4686 98.925C77.8086 99.545 78.2686 100.025 78.8486 100.365C79.4386 100.695 80.0986 100.86 80.8286 100.86C81.8486 100.86 82.6886 100.555 83.3486 99.945C84.0086 99.335 84.3936 98.51 84.5036 97.47H80.3336V96.36H85.9586V97.41C85.8786 98.27 85.6086 99.06 85.1486 99.78C84.6886 100.49 84.0836 101.055 83.3336 101.475C82.5836 101.885 81.7486 102.09 80.8286 102.09C79.8586 102.09 78.9736 101.865 78.1736 101.415C77.3736 100.955 76.7386 100.32 76.2686 99.51C75.8086 98.7 75.5786 97.785 75.5786 96.765C75.5786 95.745 75.8086 94.83 76.2686 94.02C76.7386 93.2 77.3736 92.565 78.1736 92.115C78.9736 91.655 79.8586 91.425 80.8286 91.425C81.9386 91.425 82.9186 91.7 83.7686 92.25C84.6286 92.8 85.2536 93.575 85.6436 94.575H84.0086ZM97.9424 99.675H93.3824L92.5424 102H91.1024L94.8824 91.605H96.4574L100.222 102H98.7824L97.9424 99.675ZM97.5524 98.565L95.6624 93.285L93.7724 98.565H97.5524ZM105.875 93.63C106.875 93.63 107.685 93.935 108.305 94.545C108.925 95.145 109.235 96.015 109.235 97.155V102H107.885V97.35C107.885 96.53 107.68 95.905 107.27 95.475C106.86 95.035 106.3 94.815 105.59 94.815C104.87 94.815 104.295 95.04 103.865 95.49C103.445 95.94 103.235 96.595 103.235 97.455V102H101.87V93.78H103.235V94.95C103.505 94.53 103.87 94.205 104.33 93.975C104.8 93.745 105.315 93.63 105.875 93.63ZM110.955 97.86C110.955 97.02 111.125 96.285 111.465 95.655C111.805 95.015 112.27 94.52 112.86 94.17C113.46 93.82 114.13 93.645 114.87 93.645C115.51 93.645 116.105 93.795 116.655 94.095C117.205 94.385 117.625 94.77 117.915 95.25V90.9H119.295V102H117.915V100.455C117.645 100.945 117.245 101.35 116.715 101.67C116.185 101.98 115.565 102.135 114.855 102.135C114.125 102.135 113.46 101.955 112.86 101.595C112.27 101.235 111.805 100.73 111.465 100.08C111.125 99.43 110.955 98.69 110.955 97.86ZM117.915 97.875C117.915 97.255 117.79 96.715 117.54 96.255C117.29 95.795 116.95 95.445 116.52 95.205C116.1 94.955 115.635 94.83 115.125 94.83C114.615 94.83 114.15 94.95 113.73 95.19C113.31 95.43 112.975 95.78 112.725 96.24C112.475 96.7 112.35 97.24 112.35 97.86C112.35 98.49 112.475 99.04 112.725 99.51C112.975 99.97 113.31 100.325 113.73 100.575C114.15 100.815 114.615 100.935 115.125 100.935C115.635 100.935 116.1 100.815 116.52 100.575C116.95 100.325 117.29 99.97 117.54 99.51C117.79 99.04 117.915 98.495 117.915 97.875ZM128.915 102.105C128.225 102.105 127.605 101.985 127.055 101.745C126.515 101.495 126.09 101.155 125.78 100.725C125.47 100.285 125.31 99.78 125.3 99.21H126.755C126.805 99.7 127.005 100.115 127.355 100.455C127.715 100.785 128.235 100.95 128.915 100.95C129.565 100.95 130.075 100.79 130.445 100.47C130.825 100.14 131.015 99.72 131.015 99.21C131.015 98.81 130.905 98.485 130.685 98.235C130.465 97.985 130.19 97.795 129.86 97.665C129.53 97.535 129.085 97.395 128.525 97.245C127.835 97.065 127.28 96.885 126.86 96.705C126.45 96.525 126.095 96.245 125.795 95.865C125.505 95.475 125.36 94.955 125.36 94.305C125.36 93.735 125.505 93.23 125.795 92.79C126.085 92.35 126.49 92.01 127.01 91.77C127.54 91.53 128.145 91.41 128.825 91.41C129.805 91.41 130.605 91.655 131.225 92.145C131.855 92.635 132.21 93.285 132.29 94.095H130.79C130.74 93.695 130.53 93.345 130.16 93.045C129.79 92.735 129.3 92.58 128.69 92.58C128.12 92.58 127.655 92.73 127.295 93.03C126.935 93.32 126.755 93.73 126.755 94.26C126.755 94.64 126.86 94.95 127.07 95.19C127.29 95.43 127.555 95.615 127.865 95.745C128.185 95.865 128.63 96.005 129.2 96.165C129.89 96.355 130.445 96.545 130.865 96.735C131.285 96.915 131.645 97.2 131.945 97.59C132.245 97.97 132.395 98.49 132.395 99.15C132.395 99.66 132.26 100.14 131.99 100.59C131.72 101.04 131.32 101.405 130.79 101.685C130.26 101.965 129.635 102.105 128.915 102.105ZM137.659 91.545C138.799 91.545 139.784 91.76 140.614 92.19C141.454 92.61 142.094 93.215 142.534 94.005C142.984 94.795 143.209 95.725 143.209 96.795C143.209 97.865 142.984 98.795 142.534 99.585C142.094 100.365 141.454 100.965 140.614 101.385C139.784 101.795 138.799 102 137.659 102H134.404V91.545H137.659ZM137.659 100.875C139.009 100.875 140.039 100.52 140.749 99.81C141.459 99.09 141.814 98.085 141.814 96.795C141.814 95.495 141.454 94.48 140.734 93.75C140.024 93.02 138.999 92.655 137.659 92.655H135.769V100.875H137.659ZM152.929 94.575C152.639 93.965 152.219 93.495 151.669 93.165C151.119 92.825 150.479 92.655 149.749 92.655C149.019 92.655 148.359 92.825 147.769 93.165C147.189 93.495 146.729 93.975 146.389 94.605C146.059 95.225 145.894 95.945 145.894 96.765C145.894 97.585 146.059 98.305 146.389 98.925C146.729 99.545 147.189 100.025 147.769 100.365C148.359 100.695 149.019 100.86 149.749 100.86C150.769 100.86 151.609 100.555 152.269 99.945C152.929 99.335 153.314 98.51 153.424 97.47H149.254V96.36H154.879V97.41C154.799 98.27 154.529 99.06 154.069 99.78C153.609 100.49 153.004 101.055 152.254 101.475C151.504 101.885 150.669 102.09 149.749 102.09C148.779 102.09 147.894 101.865 147.094 101.415C146.294 100.955 145.659 100.32 145.189 99.51C144.729 98.7 144.499 97.785 144.499 96.765C144.499 95.745 144.729 94.83 145.189 94.02C145.659 93.2 146.294 92.565 147.094 92.115C147.894 91.655 148.779 91.425 149.749 91.425C150.859 91.425 151.839 91.7 152.689 92.25C153.549 92.8 154.174 93.575 154.564 94.575H152.929ZM167.118 91.545V92.655H164.268V102H162.903V92.655H160.038V91.545H167.118ZM170.164 95.115C170.404 94.645 170.744 94.28 171.184 94.02C171.634 93.76 172.179 93.63 172.819 93.63V95.04H172.459C170.929 95.04 170.164 95.87 170.164 97.53V102H168.799V93.78H170.164V95.115ZM173.884 97.86C173.884 97.02 174.054 96.285 174.394 95.655C174.734 95.015 175.199 94.52 175.789 94.17C176.389 93.82 177.054 93.645 177.784 93.645C178.504 93.645 179.129 93.8 179.659 94.11C180.189 94.42 180.584 94.81 180.844 95.28V93.78H182.224V102H180.844V100.47C180.574 100.95 180.169 101.35 179.629 101.67C179.099 101.98 178.479 102.135 177.769 102.135C177.039 102.135 176.379 101.955 175.789 101.595C175.199 101.235 174.734 100.73 174.394 100.08C174.054 99.43 173.884 98.69 173.884 97.86ZM180.844 97.875C180.844 97.255 180.719 96.715 180.469 96.255C180.219 95.795 179.879 95.445 179.449 95.205C179.029 94.955 178.564 94.83 178.054 94.83C177.544 94.83 177.079 94.95 176.659 95.19C176.239 95.43 175.904 95.78 175.654 96.24C175.404 96.7 175.279 97.24 175.279 97.86C175.279 98.49 175.404 99.04 175.654 99.51C175.904 99.97 176.239 100.325 176.659 100.575C177.079 100.815 177.544 100.935 178.054 100.935C178.564 100.935 179.029 100.815 179.449 100.575C179.879 100.325 180.219 99.97 180.469 99.51C180.719 99.04 180.844 98.495 180.844 97.875ZM188.536 93.63C189.536 93.63 190.346 93.935 190.966 94.545C191.586 95.145 191.896 96.015 191.896 97.155V102H190.546V97.35C190.546 96.53 190.341 95.905 189.931 95.475C189.521 95.035 188.961 94.815 188.251 94.815C187.531 94.815 186.956 95.04 186.526 95.49C186.106 95.94 185.896 96.595 185.896 97.455V102H184.531V93.78H185.896V94.95C186.166 94.53 186.531 94.205 186.991 93.975C187.461 93.745 187.976 93.63 188.536 93.63ZM197.036 102.135C196.406 102.135 195.841 102.03 195.341 101.82C194.841 101.6 194.446 101.3 194.156 100.92C193.866 100.53 193.706 100.085 193.676 99.585H195.086C195.126 99.995 195.316 100.33 195.656 100.59C196.006 100.85 196.461 100.98 197.021 100.98C197.541 100.98 197.951 100.865 198.251 100.635C198.551 100.405 198.701 100.115 198.701 99.765C198.701 99.405 198.541 99.14 198.221 98.97C197.901 98.79 197.406 98.615 196.736 98.445C196.126 98.285 195.626 98.125 195.236 97.965C194.856 97.795 194.526 97.55 194.246 97.23C193.976 96.9 193.841 96.47 193.841 95.94C193.841 95.52 193.966 95.135 194.216 94.785C194.466 94.435 194.821 94.16 195.281 93.96C195.741 93.75 196.266 93.645 196.856 93.645C197.766 93.645 198.501 93.875 199.061 94.335C199.621 94.795 199.921 95.425 199.961 96.225H198.596C198.566 95.795 198.391 95.45 198.071 95.19C197.761 94.93 197.341 94.8 196.811 94.8C196.321 94.8 195.931 94.905 195.641 95.115C195.351 95.325 195.206 95.6 195.206 95.94C195.206 96.21 195.291 96.435 195.461 96.615C195.641 96.785 195.861 96.925 196.121 97.035C196.391 97.135 196.761 97.25 197.231 97.38C197.821 97.54 198.301 97.7 198.671 97.86C199.041 98.01 199.356 98.24 199.616 98.55C199.886 98.86 200.026 99.265 200.036 99.765C200.036 100.215 199.911 100.62 199.661 100.98C199.411 101.34 199.056 101.625 198.596 101.835C198.146 102.035 197.626 102.135 197.036 102.135ZM203.328 95.295C203.598 94.825 203.998 94.435 204.528 94.125C205.068 93.805 205.693 93.645 206.403 93.645C207.133 93.645 207.793 93.82 208.383 94.17C208.983 94.52 209.453 95.015 209.793 95.655C210.133 96.285 210.303 97.02 210.303 97.86C210.303 98.69 210.133 99.43 209.793 100.08C209.453 100.73 208.983 101.235 208.383 101.595C207.793 101.955 207.133 102.135 206.403 102.135C205.703 102.135 205.083 101.98 204.543 101.67C204.013 101.35 203.608 100.955 203.328 100.485V105.9H201.963V93.78H203.328V95.295ZM208.908 97.86C208.908 97.24 208.783 96.7 208.533 96.24C208.283 95.78 207.943 95.43 207.513 95.19C207.093 94.95 206.628 94.83 206.118 94.83C205.618 94.83 205.153 94.955 204.723 95.205C204.303 95.445 203.963 95.8 203.703 96.27C203.453 96.73 203.328 97.265 203.328 97.875C203.328 98.495 203.453 99.04 203.703 99.51C203.963 99.97 204.303 100.325 204.723 100.575C205.153 100.815 205.618 100.935 206.118 100.935C206.628 100.935 207.093 100.815 207.513 100.575C207.943 100.325 208.283 99.97 208.533 99.51C208.783 99.04 208.908 98.49 208.908 97.86ZM211.589 97.86C211.589 97.02 211.759 96.285 212.099 95.655C212.439 95.015 212.904 94.52 213.494 94.17C214.094 93.82 214.759 93.645 215.489 93.645C216.209 93.645 216.834 93.8 217.364 94.11C217.894 94.42 218.289 94.81 218.549 95.28V93.78H219.929V102H218.549V100.47C218.279 100.95 217.874 101.35 217.334 101.67C216.804 101.98 216.184 102.135 215.474 102.135C214.744 102.135 214.084 101.955 213.494 101.595C212.904 101.235 212.439 100.73 212.099 100.08C211.759 99.43 211.589 98.69 211.589 97.86ZM218.549 97.875C218.549 97.255 218.424 96.715 218.174 96.255C217.924 95.795 217.584 95.445 217.154 95.205C216.734 94.955 216.269 94.83 215.759 94.83C215.249 94.83 214.784 94.95 214.364 95.19C213.944 95.43 213.609 95.78 213.359 96.24C213.109 96.7 212.984 97.24 212.984 97.86C212.984 98.49 213.109 99.04 213.359 99.51C213.609 99.97 213.944 100.325 214.364 100.575C214.784 100.815 215.249 100.935 215.759 100.935C216.269 100.935 216.734 100.815 217.154 100.575C217.584 100.325 217.924 99.97 218.174 99.51C218.424 99.04 218.549 98.495 218.549 97.875ZM223.601 95.115C223.841 94.645 224.181 94.28 224.621 94.02C225.071 93.76 225.616 93.63 226.256 93.63V95.04H225.896C224.366 95.04 223.601 95.87 223.601 97.53V102H222.236V93.78H223.601V95.115ZM235.332 97.575C235.332 97.835 235.317 98.11 235.287 98.4H228.717C228.767 99.21 229.042 99.845 229.542 100.305C230.052 100.755 230.667 100.98 231.387 100.98C231.977 100.98 232.467 100.845 232.857 100.575C233.257 100.295 233.537 99.925 233.697 99.465H235.167C234.947 100.255 234.507 100.9 233.847 101.4C233.187 101.89 232.367 102.135 231.387 102.135C230.607 102.135 229.907 101.96 229.287 101.61C228.677 101.26 228.197 100.765 227.847 100.125C227.497 99.475 227.322 98.725 227.322 97.875C227.322 97.025 227.492 96.28 227.832 95.64C228.172 95 228.647 94.51 229.257 94.17C229.877 93.82 230.587 93.645 231.387 93.645C232.167 93.645 232.857 93.815 233.457 94.155C234.057 94.495 234.517 94.965 234.837 95.565C235.167 96.155 235.332 96.825 235.332 97.575ZM233.922 97.29C233.922 96.77 233.807 96.325 233.577 95.955C233.347 95.575 233.032 95.29 232.632 95.1C232.242 94.9 231.807 94.8 231.327 94.8C230.637 94.8 230.047 95.02 229.557 95.46C229.077 95.9 228.802 96.51 228.732 97.29H233.922ZM241.139 93.63C242.139 93.63 242.949 93.935 243.569 94.545C244.189 95.145 244.499 96.015 244.499 97.155V102H243.149V97.35C243.149 96.53 242.944 95.905 242.534 95.475C242.124 95.035 241.564 94.815 240.854 94.815C240.134 94.815 239.559 95.04 239.129 95.49C238.709 95.94 238.499 96.595 238.499 97.455V102H237.134V93.78H238.499V94.95C238.769 94.53 239.134 94.205 239.594 93.975C240.064 93.745 240.579 93.63 241.139 93.63ZM248.393 94.905V99.75C248.393 100.15 248.478 100.435 248.648 100.605C248.818 100.765 249.113 100.845 249.533 100.845H250.538V102H249.308C248.548 102 247.978 101.825 247.598 101.475C247.218 101.125 247.028 100.55 247.028 99.75V94.905H245.963V93.78H247.028V91.71H248.393V93.78H250.538V94.905H248.393ZM252.627 102.09C252.367 102.09 252.147 102 251.967 101.82C251.787 101.64 251.697 101.42 251.697 101.16C251.697 100.9 251.787 100.68 251.967 100.5C252.147 100.32 252.367 100.23 252.627 100.23C252.877 100.23 253.087 100.32 253.257 100.5C253.437 100.68 253.527 100.9 253.527 101.16C253.527 101.42 253.437 101.64 253.257 101.82C253.087 102 252.877 102.09 252.627 102.09ZM264.846 102L262.356 97.725H260.706V102H259.341V91.545H262.716C263.506 91.545 264.171 91.68 264.711 91.95C265.261 92.22 265.671 92.585 265.941 93.045C266.211 93.505 266.346 94.03 266.346 94.62C266.346 95.34 266.136 95.975 265.716 96.525C265.306 97.075 264.686 97.44 263.856 97.62L266.481 102H264.846ZM260.706 96.63H262.716C263.456 96.63 264.011 96.45 264.381 96.09C264.751 95.72 264.936 95.23 264.936 94.62C264.936 94 264.751 93.52 264.381 93.18C264.021 92.84 263.466 92.67 262.716 92.67H260.706V96.63ZM275.967 97.575C275.967 97.835 275.952 98.11 275.922 98.4H269.352C269.402 99.21 269.677 99.845 270.177 100.305C270.687 100.755 271.302 100.98 272.022 100.98C272.612 100.98 273.102 100.845 273.492 100.575C273.892 100.295 274.172 99.925 274.332 99.465H275.802C275.582 100.255 275.142 100.9 274.482 101.4C273.822 101.89 273.002 102.135 272.022 102.135C271.242 102.135 270.542 101.96 269.922 101.61C269.312 101.26 268.832 100.765 268.482 100.125C268.132 99.475 267.957 98.725 267.957 97.875C267.957 97.025 268.127 96.28 268.467 95.64C268.807 95 269.282 94.51 269.892 94.17C270.512 93.82 271.222 93.645 272.022 93.645C272.802 93.645 273.492 93.815 274.092 94.155C274.692 94.495 275.152 94.965 275.472 95.565C275.802 96.155 275.967 96.825 275.967 97.575ZM274.557 97.29C274.557 96.77 274.442 96.325 274.212 95.955C273.982 95.575 273.667 95.29 273.267 95.1C272.877 94.9 272.442 94.8 271.962 94.8C271.272 94.8 270.682 95.02 270.192 95.46C269.712 95.9 269.437 96.51 269.367 97.29H274.557ZM277.258 97.86C277.258 97.02 277.428 96.285 277.768 95.655C278.108 95.015 278.573 94.52 279.163 94.17C279.763 93.82 280.428 93.645 281.158 93.645C281.878 93.645 282.503 93.8 283.033 94.11C283.563 94.42 283.958 94.81 284.218 95.28V93.78H285.598V102H284.218V100.47C283.948 100.95 283.543 101.35 283.003 101.67C282.473 101.98 281.853 102.135 281.143 102.135C280.413 102.135 279.753 101.955 279.163 101.595C278.573 101.235 278.108 100.73 277.768 100.08C277.428 99.43 277.258 98.69 277.258 97.86ZM284.218 97.875C284.218 97.255 284.093 96.715 283.843 96.255C283.593 95.795 283.253 95.445 282.823 95.205C282.403 94.955 281.938 94.83 281.428 94.83C280.918 94.83 280.453 94.95 280.033 95.19C279.613 95.43 279.278 95.78 279.028 96.24C278.778 96.7 278.653 97.24 278.653 97.86C278.653 98.49 278.778 99.04 279.028 99.51C279.278 99.97 279.613 100.325 280.033 100.575C280.453 100.815 280.918 100.935 281.428 100.935C281.938 100.935 282.403 100.815 282.823 100.575C283.253 100.325 283.593 99.97 283.843 99.51C284.093 99.04 284.218 98.495 284.218 97.875ZM289.27 90.9V102H287.905V90.9H289.27ZM297.296 95.925V97.08H291.311V95.925H297.296ZM306.293 91.545V92.655H303.443V102H302.078V92.655H299.213V91.545H306.293ZM308.678 92.445C308.418 92.445 308.198 92.355 308.018 92.175C307.838 91.995 307.748 91.775 307.748 91.515C307.748 91.255 307.838 91.035 308.018 90.855C308.198 90.675 308.418 90.585 308.678 90.585C308.928 90.585 309.138 90.675 309.308 90.855C309.488 91.035 309.578 91.255 309.578 91.515C309.578 91.775 309.488 91.995 309.308 92.175C309.138 92.355 308.928 92.445 308.678 92.445ZM309.338 93.78V102H307.973V93.78H309.338ZM321.55 93.63C322.19 93.63 322.76 93.765 323.26 94.035C323.76 94.295 324.155 94.69 324.445 95.22C324.735 95.75 324.88 96.395 324.88 97.155V102H323.53V97.35C323.53 96.53 323.325 95.905 322.915 95.475C322.515 95.035 321.97 94.815 321.28 94.815C320.57 94.815 320.005 95.045 319.585 95.505C319.165 95.955 318.955 96.61 318.955 97.47V102H317.605V97.35C317.605 96.53 317.4 95.905 316.99 95.475C316.59 95.035 316.045 94.815 315.355 94.815C314.645 94.815 314.08 95.045 313.66 95.505C313.24 95.955 313.03 96.61 313.03 97.47V102H311.665V93.78H313.03V94.965C313.3 94.535 313.66 94.205 314.11 93.975C314.57 93.745 315.075 93.63 315.625 93.63C316.315 93.63 316.925 93.785 317.455 94.095C317.985 94.405 318.38 94.86 318.64 95.46C318.87 94.88 319.25 94.43 319.78 94.11C320.31 93.79 320.9 93.63 321.55 93.63ZM334.619 97.575C334.619 97.835 334.604 98.11 334.574 98.4H328.004C328.054 99.21 328.329 99.845 328.829 100.305C329.339 100.755 329.954 100.98 330.674 100.98C331.264 100.98 331.754 100.845 332.144 100.575C332.544 100.295 332.824 99.925 332.984 99.465H334.454C334.234 100.255 333.794 100.9 333.134 101.4C332.474 101.89 331.654 102.135 330.674 102.135C329.894 102.135 329.194 101.96 328.574 101.61C327.964 101.26 327.484 100.765 327.134 100.125C326.784 99.475 326.609 98.725 326.609 97.875C326.609 97.025 326.779 96.28 327.119 95.64C327.459 95 327.934 94.51 328.544 94.17C329.164 93.82 329.874 93.645 330.674 93.645C331.454 93.645 332.144 93.815 332.744 94.155C333.344 94.495 333.804 94.965 334.124 95.565C334.454 96.155 334.619 96.825 334.619 97.575ZM333.209 97.29C333.209 96.77 333.094 96.325 332.864 95.955C332.634 95.575 332.319 95.29 331.919 95.1C331.529 94.9 331.094 94.8 330.614 94.8C329.924 94.8 329.334 95.02 328.844 95.46C328.364 95.9 328.089 96.51 328.019 97.29H333.209ZM341.785 91.545V102H340.42V91.545H341.785ZM348.116 93.63C349.116 93.63 349.926 93.935 350.546 94.545C351.166 95.145 351.476 96.015 351.476 97.155V102H350.126V97.35C350.126 96.53 349.921 95.905 349.511 95.475C349.101 95.035 348.541 94.815 347.831 94.815C347.111 94.815 346.536 95.04 346.106 95.49C345.686 95.94 345.476 96.595 345.476 97.455V102H344.111V93.78H345.476V94.95C345.746 94.53 346.111 94.205 346.571 93.975C347.041 93.745 347.556 93.63 348.116 93.63ZM356.616 102.135C355.986 102.135 355.421 102.03 354.921 101.82C354.421 101.6 354.026 101.3 353.736 100.92C353.446 100.53 353.286 100.085 353.256 99.585H354.666C354.706 99.995 354.896 100.33 355.236 100.59C355.586 100.85 356.041 100.98 356.601 100.98C357.121 100.98 357.531 100.865 357.831 100.635C358.131 100.405 358.281 100.115 358.281 99.765C358.281 99.405 358.121 99.14 357.801 98.97C357.481 98.79 356.986 98.615 356.316 98.445C355.706 98.285 355.206 98.125 354.816 97.965C354.436 97.795 354.106 97.55 353.826 97.23C353.556 96.9 353.421 96.47 353.421 95.94C353.421 95.52 353.546 95.135 353.796 94.785C354.046 94.435 354.401 94.16 354.861 93.96C355.321 93.75 355.846 93.645 356.436 93.645C357.346 93.645 358.081 93.875 358.641 94.335C359.201 94.795 359.501 95.425 359.541 96.225H358.176C358.146 95.795 357.971 95.45 357.651 95.19C357.341 94.93 356.921 94.8 356.391 94.8C355.901 94.8 355.511 94.905 355.221 95.115C354.931 95.325 354.786 95.6 354.786 95.94C354.786 96.21 354.871 96.435 355.041 96.615C355.221 96.785 355.441 96.925 355.701 97.035C355.971 97.135 356.341 97.25 356.811 97.38C357.401 97.54 357.881 97.7 358.251 97.86C358.621 98.01 358.936 98.24 359.196 98.55C359.466 98.86 359.606 99.265 359.616 99.765C359.616 100.215 359.491 100.62 359.241 100.98C358.991 101.34 358.636 101.625 358.176 101.835C357.726 102.035 357.206 102.135 356.616 102.135ZM362.248 92.445C361.988 92.445 361.768 92.355 361.588 92.175C361.408 91.995 361.318 91.775 361.318 91.515C361.318 91.255 361.408 91.035 361.588 90.855C361.768 90.675 361.988 90.585 362.248 90.585C362.498 90.585 362.708 90.675 362.878 90.855C363.058 91.035 363.148 91.255 363.148 91.515C363.148 91.775 363.058 91.995 362.878 92.175C362.708 92.355 362.498 92.445 362.248 92.445ZM362.908 93.78V102H361.543V93.78H362.908ZM368.624 93.645C369.334 93.645 369.954 93.8 370.484 94.11C371.024 94.42 371.424 94.81 371.684 95.28V93.78H373.064V102.18C373.064 102.93 372.904 103.595 372.584 104.175C372.264 104.765 371.804 105.225 371.204 105.555C370.614 105.885 369.924 106.05 369.134 106.05C368.054 106.05 367.154 105.795 366.434 105.285C365.714 104.775 365.289 104.08 365.159 103.2H366.509C366.659 103.7 366.969 104.1 367.439 104.4C367.909 104.71 368.474 104.865 369.134 104.865C369.884 104.865 370.494 104.63 370.964 104.16C371.444 103.69 371.684 103.03 371.684 102.18V100.455C371.414 100.935 371.014 101.335 370.484 101.655C369.954 101.975 369.334 102.135 368.624 102.135C367.894 102.135 367.229 101.955 366.629 101.595C366.039 101.235 365.574 100.73 365.234 100.08C364.894 99.43 364.724 98.69 364.724 97.86C364.724 97.02 364.894 96.285 365.234 95.655C365.574 95.015 366.039 94.52 366.629 94.17C367.229 93.82 367.894 93.645 368.624 93.645ZM371.684 97.875C371.684 97.255 371.559 96.715 371.309 96.255C371.059 95.795 370.719 95.445 370.289 95.205C369.869 94.955 369.404 94.83 368.894 94.83C368.384 94.83 367.919 94.95 367.499 95.19C367.079 95.43 366.744 95.78 366.494 96.24C366.244 96.7 366.119 97.24 366.119 97.86C366.119 98.49 366.244 99.04 366.494 99.51C366.744 99.97 367.079 100.325 367.499 100.575C367.919 100.815 368.384 100.935 368.894 100.935C369.404 100.935 369.869 100.815 370.289 100.575C370.719 100.325 371.059 99.97 371.309 99.51C371.559 99.04 371.684 98.495 371.684 97.875ZM379.451 93.63C380.071 93.63 380.631 93.765 381.131 94.035C381.631 94.295 382.021 94.69 382.301 95.22C382.591 95.75 382.736 96.395 382.736 97.155V102H381.386V97.35C381.386 96.53 381.181 95.905 380.771 95.475C380.361 95.035 379.801 94.815 379.091 94.815C378.371 94.815 377.796 95.04 377.366 95.49C376.946 95.94 376.736 96.595 376.736 97.455V102H375.371V90.9H376.736V94.95C377.006 94.53 377.376 94.205 377.846 93.975C378.326 93.745 378.861 93.63 379.451 93.63ZM386.631 94.905V99.75C386.631 100.15 386.716 100.435 386.886 100.605C387.056 100.765 387.351 100.845 387.771 100.845H388.776V102H387.546C386.786 102 386.216 101.825 385.836 101.475C385.456 101.125 385.266 100.55 385.266 99.75V94.905H384.201V93.78H385.266V91.71H386.631V93.78H388.776V94.905H386.631ZM393.339 102.135C392.709 102.135 392.144 102.03 391.644 101.82C391.144 101.6 390.749 101.3 390.459 100.92C390.169 100.53 390.009 100.085 389.979 99.585H391.389C391.429 99.995 391.619 100.33 391.959 100.59C392.309 100.85 392.764 100.98 393.324 100.98C393.844 100.98 394.254 100.865 394.554 100.635C394.854 100.405 395.004 100.115 395.004 99.765C395.004 99.405 394.844 99.14 394.524 98.97C394.204 98.79 393.709 98.615 393.039 98.445C392.429 98.285 391.929 98.125 391.539 97.965C391.159 97.795 390.829 97.55 390.549 97.23C390.279 96.9 390.144 96.47 390.144 95.94C390.144 95.52 390.269 95.135 390.519 94.785C390.769 94.435 391.124 94.16 391.584 93.96C392.044 93.75 392.569 93.645 393.159 93.645C394.069 93.645 394.804 93.875 395.364 94.335C395.924 94.795 396.224 95.425 396.264 96.225H394.899C394.869 95.795 394.694 95.45 394.374 95.19C394.064 94.93 393.644 94.8 393.114 94.8C392.624 94.8 392.234 94.905 391.944 95.115C391.654 95.325 391.509 95.6 391.509 95.94C391.509 96.21 391.594 96.435 391.764 96.615C391.944 96.785 392.164 96.925 392.424 97.035C392.694 97.135 393.064 97.25 393.534 97.38C394.124 97.54 394.604 97.7 394.974 97.86C395.344 98.01 395.659 98.24 395.919 98.55C396.189 98.86 396.329 99.265 396.339 99.765C396.339 100.215 396.214 100.62 395.964 100.98C395.714 101.34 395.359 101.625 394.899 101.835C394.449 102.035 393.929 102.135 393.339 102.135ZM407.005 102.105C406.035 102.105 405.15 101.88 404.35 101.43C403.55 100.97 402.915 100.335 402.445 99.525C401.985 98.705 401.755 97.785 401.755 96.765C401.755 95.745 401.985 94.83 402.445 94.02C402.915 93.2 403.55 92.565 404.35 92.115C405.15 91.655 406.035 91.425 407.005 91.425C407.985 91.425 408.875 91.655 409.675 92.115C410.475 92.565 411.105 93.195 411.565 94.005C412.025 94.815 412.255 95.735 412.255 96.765C412.255 97.795 412.025 98.715 411.565 99.525C411.105 100.335 410.475 100.97 409.675 101.43C408.875 101.88 407.985 102.105 407.005 102.105ZM407.005 100.92C407.735 100.92 408.39 100.75 408.97 100.41C409.56 100.07 410.02 99.585 410.35 98.955C410.69 98.325 410.86 97.595 410.86 96.765C410.86 95.925 410.69 95.195 410.35 94.575C410.02 93.945 409.565 93.46 408.985 93.12C408.405 92.78 407.745 92.61 407.005 92.61C406.265 92.61 405.605 92.78 405.025 93.12C404.445 93.46 403.985 93.945 403.645 94.575C403.315 95.195 403.15 95.925 403.15 96.765C403.15 97.595 403.315 98.325 403.645 98.955C403.985 99.585 404.445 100.07 405.025 100.41C405.615 100.75 406.275 100.92 407.005 100.92ZM418.062 93.63C419.062 93.63 419.872 93.935 420.492 94.545C421.112 95.145 421.422 96.015 421.422 97.155V102H420.072V97.35C420.072 96.53 419.867 95.905 419.457 95.475C419.047 95.035 418.487 94.815 417.777 94.815C417.057 94.815 416.482 95.04 416.052 95.49C415.632 95.94 415.422 96.595 415.422 97.455V102H414.057V93.78H415.422V94.95C415.692 94.53 416.057 94.205 416.517 93.975C416.987 93.745 417.502 93.63 418.062 93.63ZM434.971 91.545L431.566 98.055V102H430.201V98.055L426.781 91.545H428.296L430.876 96.84L433.456 91.545H434.971ZM439.996 102.135C439.226 102.135 438.526 101.96 437.896 101.61C437.276 101.26 436.786 100.765 436.426 100.125C436.076 99.475 435.901 98.725 435.901 97.875C435.901 97.035 436.081 96.295 436.441 95.655C436.811 95.005 437.311 94.51 437.941 94.17C438.571 93.82 439.276 93.645 440.056 93.645C440.836 93.645 441.541 93.82 442.171 94.17C442.801 94.51 443.296 95 443.656 95.64C444.026 96.28 444.211 97.025 444.211 97.875C444.211 98.725 444.021 99.475 443.641 100.125C443.271 100.765 442.766 101.26 442.126 101.61C441.486 101.96 440.776 102.135 439.996 102.135ZM439.996 100.935C440.486 100.935 440.946 100.82 441.376 100.59C441.806 100.36 442.151 100.015 442.411 99.555C442.681 99.095 442.816 98.535 442.816 97.875C442.816 97.215 442.686 96.655 442.426 96.195C442.166 95.735 441.826 95.395 441.406 95.175C440.986 94.945 440.531 94.83 440.041 94.83C439.541 94.83 439.081 94.945 438.661 95.175C438.251 95.395 437.921 95.735 437.671 96.195C437.421 96.655 437.296 97.215 437.296 97.875C437.296 98.545 437.416 99.11 437.656 99.57C437.906 100.03 438.236 100.375 438.646 100.605C439.056 100.825 439.506 100.935 439.996 100.935ZM453.296 93.78V102H451.931V100.785C451.671 101.205 451.306 101.535 450.836 101.775C450.376 102.005 449.866 102.12 449.306 102.12C448.666 102.12 448.091 101.99 447.581 101.73C447.071 101.46 446.666 101.06 446.366 100.53C446.076 100 445.931 99.355 445.931 98.595V93.78H447.281V98.415C447.281 99.225 447.486 99.85 447.896 100.29C448.306 100.72 448.866 100.935 449.576 100.935C450.306 100.935 450.881 100.71 451.301 100.26C451.721 99.81 451.931 99.155 451.931 98.295V93.78H453.296ZM456.965 95.115C457.205 94.645 457.545 94.28 457.985 94.02C458.435 93.76 458.98 93.63 459.62 93.63V95.04H459.26C457.73 95.04 456.965 95.87 456.965 97.53V102H455.6V93.78H456.965V95.115ZM33.895 125.105C32.925 125.105 32.04 124.88 31.24 124.43C30.44 123.97 29.805 123.335 29.335 122.525C28.875 121.705 28.645 120.785 28.645 119.765C28.645 118.745 28.875 117.83 29.335 117.02C29.805 116.2 30.44 115.565 31.24 115.115C32.04 114.655 32.925 114.425 33.895 114.425C34.875 114.425 35.765 114.655 36.565 115.115C37.365 115.565 37.995 116.195 38.455 117.005C38.915 117.815 39.145 118.735 39.145 119.765C39.145 120.795 38.915 121.715 38.455 122.525C37.995 123.335 37.365 123.97 36.565 124.43C35.765 124.88 34.875 125.105 33.895 125.105ZM33.895 123.92C34.625 123.92 35.28 123.75 35.86 123.41C36.45 123.07 36.91 122.585 37.24 121.955C37.58 121.325 37.75 120.595 37.75 119.765C37.75 118.925 37.58 118.195 37.24 117.575C36.91 116.945 36.455 116.46 35.875 116.12C35.295 115.78 34.635 115.61 33.895 115.61C33.155 115.61 32.495 115.78 31.915 116.12C31.335 116.46 30.875 116.945 30.535 117.575C30.205 118.195 30.04 118.925 30.04 119.765C30.04 120.595 30.205 121.325 30.535 121.955C30.875 122.585 31.335 123.07 31.915 123.41C32.505 123.75 33.165 123.92 33.895 123.92ZM42.312 118.115C42.552 117.645 42.892 117.28 43.332 117.02C43.782 116.76 44.327 116.63 44.967 116.63V118.04H44.607C43.077 118.04 42.312 118.87 42.312 120.53V125H40.947V116.78H42.312V118.115ZM49.9327 116.645C50.6427 116.645 51.2627 116.8 51.7927 117.11C52.3327 117.42 52.7327 117.81 52.9927 118.28V116.78H54.3727V125.18C54.3727 125.93 54.2127 126.595 53.8927 127.175C53.5727 127.765 53.1127 128.225 52.5127 128.555C51.9227 128.885 51.2327 129.05 50.4427 129.05C49.3627 129.05 48.4627 128.795 47.7427 128.285C47.0227 127.775 46.5977 127.08 46.4677 126.2H47.8177C47.9677 126.7 48.2777 127.1 48.7477 127.4C49.2177 127.71 49.7827 127.865 50.4427 127.865C51.1927 127.865 51.8027 127.63 52.2727 127.16C52.7527 126.69 52.9927 126.03 52.9927 125.18V123.455C52.7227 123.935 52.3227 124.335 51.7927 124.655C51.2627 124.975 50.6427 125.135 49.9327 125.135C49.2027 125.135 48.5377 124.955 47.9377 124.595C47.3477 124.235 46.8827 123.73 46.5427 123.08C46.2027 122.43 46.0327 121.69 46.0327 120.86C46.0327 120.02 46.2027 119.285 46.5427 118.655C46.8827 118.015 47.3477 117.52 47.9377 117.17C48.5377 116.82 49.2027 116.645 49.9327 116.645ZM52.9927 120.875C52.9927 120.255 52.8677 119.715 52.6177 119.255C52.3677 118.795 52.0277 118.445 51.5977 118.205C51.1777 117.955 50.7127 117.83 50.2027 117.83C49.6927 117.83 49.2277 117.95 48.8077 118.19C48.3877 118.43 48.0527 118.78 47.8027 119.24C47.5527 119.7 47.4277 120.24 47.4277 120.86C47.4277 121.49 47.5527 122.04 47.8027 122.51C48.0527 122.97 48.3877 123.325 48.8077 123.575C49.2277 123.815 49.6927 123.935 50.2027 123.935C50.7127 123.935 51.1777 123.815 51.5977 123.575C52.0277 123.325 52.3677 122.97 52.6177 122.51C52.8677 122.04 52.9927 121.495 52.9927 120.875ZM56.1694 120.86C56.1694 120.02 56.3394 119.285 56.6794 118.655C57.0194 118.015 57.4844 117.52 58.0744 117.17C58.6744 116.82 59.3394 116.645 60.0694 116.645C60.7894 116.645 61.4144 116.8 61.9444 117.11C62.4744 117.42 62.8694 117.81 63.1294 118.28V116.78H64.5094V125H63.1294V123.47C62.8594 123.95 62.4544 124.35 61.9144 124.67C61.3844 124.98 60.7644 125.135 60.0544 125.135C59.3244 125.135 58.6644 124.955 58.0744 124.595C57.4844 124.235 57.0194 123.73 56.6794 123.08C56.3394 122.43 56.1694 121.69 56.1694 120.86ZM63.1294 120.875C63.1294 120.255 63.0044 119.715 62.7544 119.255C62.5044 118.795 62.1644 118.445 61.7344 118.205C61.3144 117.955 60.8494 117.83 60.3394 117.83C59.8294 117.83 59.3644 117.95 58.9444 118.19C58.5244 118.43 58.1894 118.78 57.9394 119.24C57.6894 119.7 57.5644 120.24 57.5644 120.86C57.5644 121.49 57.6894 122.04 57.9394 122.51C58.1894 122.97 58.5244 123.325 58.9444 123.575C59.3644 123.815 59.8294 123.935 60.3394 123.935C60.8494 123.935 61.3144 123.815 61.7344 123.575C62.1644 123.325 62.5044 122.97 62.7544 122.51C63.0044 122.04 63.1294 121.495 63.1294 120.875ZM70.8211 116.63C71.8211 116.63 72.6311 116.935 73.2511 117.545C73.8711 118.145 74.1811 119.015 74.1811 120.155V125H72.8311V120.35C72.8311 119.53 72.6261 118.905 72.2161 118.475C71.8061 118.035 71.2461 117.815 70.5361 117.815C69.8161 117.815 69.2411 118.04 68.8111 118.49C68.3911 118.94 68.1811 119.595 68.1811 120.455V125H66.8161V116.78H68.1811V117.95C68.4511 117.53 68.8161 117.205 69.2761 116.975C69.7461 116.745 70.2611 116.63 70.8211 116.63ZM77.1159 115.445C76.8559 115.445 76.6359 115.355 76.4559 115.175C76.2759 114.995 76.1859 114.775 76.1859 114.515C76.1859 114.255 76.2759 114.035 76.4559 113.855C76.6359 113.675 76.8559 113.585 77.1159 113.585C77.3659 113.585 77.5759 113.675 77.7459 113.855C77.9259 114.035 78.0159 114.255 78.0159 114.515C78.0159 114.775 77.9259 114.995 77.7459 115.175C77.5759 115.355 77.3659 115.445 77.1159 115.445ZM77.7759 116.78V125H76.4109V116.78H77.7759ZM81.1223 123.875H85.1573V125H79.5623V123.875L83.5523 117.89H79.5923V116.78H85.1273V117.89L81.1223 123.875ZM86.4184 120.86C86.4184 120.02 86.5884 119.285 86.9284 118.655C87.2684 118.015 87.7334 117.52 88.3234 117.17C88.9234 116.82 89.5884 116.645 90.3184 116.645C91.0384 116.645 91.6634 116.8 92.1934 117.11C92.7234 117.42 93.1184 117.81 93.3784 118.28V116.78H94.7584V125H93.3784V123.47C93.1084 123.95 92.7034 124.35 92.1634 124.67C91.6334 124.98 91.0134 125.135 90.3034 125.135C89.5734 125.135 88.9134 124.955 88.3234 124.595C87.7334 124.235 87.2684 123.73 86.9284 123.08C86.5884 122.43 86.4184 121.69 86.4184 120.86ZM93.3784 120.875C93.3784 120.255 93.2534 119.715 93.0034 119.255C92.7534 118.795 92.4134 118.445 91.9834 118.205C91.5634 117.955 91.0984 117.83 90.5884 117.83C90.0784 117.83 89.6134 117.95 89.1934 118.19C88.7734 118.43 88.4384 118.78 88.1884 119.24C87.9384 119.7 87.8134 120.24 87.8134 120.86C87.8134 121.49 87.9384 122.04 88.1884 122.51C88.4384 122.97 88.7734 123.325 89.1934 123.575C89.6134 123.815 90.0784 123.935 90.5884 123.935C91.0984 123.935 91.5634 123.815 91.9834 123.575C92.4134 123.325 92.7534 122.97 93.0034 122.51C93.2534 122.04 93.3784 121.495 93.3784 120.875ZM98.7302 117.905V122.75C98.7302 123.15 98.8152 123.435 98.9852 123.605C99.1552 123.765 99.4502 123.845 99.8702 123.845H100.875V125H99.6452C98.8852 125 98.3152 124.825 97.9352 124.475C97.5552 124.125 97.3652 123.55 97.3652 122.75V117.905H96.3002V116.78H97.3652V114.71H98.7302V116.78H100.875V117.905H98.7302ZM103.234 115.445C102.974 115.445 102.754 115.355 102.574 115.175C102.394 114.995 102.304 114.775 102.304 114.515C102.304 114.255 102.394 114.035 102.574 113.855C102.754 113.675 102.974 113.585 103.234 113.585C103.484 113.585 103.694 113.675 103.864 113.855C104.044 114.035 104.134 114.255 104.134 114.515C104.134 114.775 104.044 114.995 103.864 115.175C103.694 115.355 103.484 115.445 103.234 115.445ZM103.894 116.78V125H102.529V116.78H103.894ZM109.805 125.135C109.035 125.135 108.335 124.96 107.705 124.61C107.085 124.26 106.595 123.765 106.235 123.125C105.885 122.475 105.71 121.725 105.71 120.875C105.71 120.035 105.89 119.295 106.25 118.655C106.62 118.005 107.12 117.51 107.75 117.17C108.38 116.82 109.085 116.645 109.865 116.645C110.645 116.645 111.35 116.82 111.98 117.17C112.61 117.51 113.105 118 113.465 118.64C113.835 119.28 114.02 120.025 114.02 120.875C114.02 121.725 113.83 122.475 113.45 123.125C113.08 123.765 112.575 124.26 111.935 124.61C111.295 124.96 110.585 125.135 109.805 125.135ZM109.805 123.935C110.295 123.935 110.755 123.82 111.185 123.59C111.615 123.36 111.96 123.015 112.22 122.555C112.49 122.095 112.625 121.535 112.625 120.875C112.625 120.215 112.495 119.655 112.235 119.195C111.975 118.735 111.635 118.395 111.215 118.175C110.795 117.945 110.34 117.83 109.85 117.83C109.35 117.83 108.89 117.945 108.47 118.175C108.06 118.395 107.73 118.735 107.48 119.195C107.23 119.655 107.105 120.215 107.105 120.875C107.105 121.545 107.225 122.11 107.465 122.57C107.715 123.03 108.045 123.375 108.455 123.605C108.865 123.825 109.315 123.935 109.805 123.935ZM119.82 116.63C120.82 116.63 121.63 116.935 122.25 117.545C122.87 118.145 123.18 119.015 123.18 120.155V125H121.83V120.35C121.83 119.53 121.625 118.905 121.215 118.475C120.805 118.035 120.245 117.815 119.535 117.815C118.815 117.815 118.24 118.04 117.81 118.49C117.39 118.94 117.18 119.595 117.18 120.455V125H115.815V116.78H117.18V117.95C117.45 117.53 117.815 117.205 118.275 116.975C118.745 116.745 119.26 116.63 119.82 116.63ZM136.399 117.605C136.399 118.475 136.099 119.2 135.499 119.78C134.909 120.35 134.004 120.635 132.784 120.635H130.774V125H129.409V114.545H132.784C133.964 114.545 134.859 114.83 135.469 115.4C136.089 115.97 136.399 116.705 136.399 117.605ZM132.784 119.51C133.544 119.51 134.104 119.345 134.464 119.015C134.824 118.685 135.004 118.215 135.004 117.605C135.004 116.315 134.264 115.67 132.784 115.67H130.774V119.51H132.784ZM141.68 125.135C140.91 125.135 140.21 124.96 139.58 124.61C138.96 124.26 138.47 123.765 138.11 123.125C137.76 122.475 137.585 121.725 137.585 120.875C137.585 120.035 137.765 119.295 138.125 118.655C138.495 118.005 138.995 117.51 139.625 117.17C140.255 116.82 140.96 116.645 141.74 116.645C142.52 116.645 143.225 116.82 143.855 117.17C144.485 117.51 144.98 118 145.34 118.64C145.71 119.28 145.895 120.025 145.895 120.875C145.895 121.725 145.705 122.475 145.325 123.125C144.955 123.765 144.45 124.26 143.81 124.61C143.17 124.96 142.46 125.135 141.68 125.135ZM141.68 123.935C142.17 123.935 142.63 123.82 143.06 123.59C143.49 123.36 143.835 123.015 144.095 122.555C144.365 122.095 144.5 121.535 144.5 120.875C144.5 120.215 144.37 119.655 144.11 119.195C143.85 118.735 143.51 118.395 143.09 118.175C142.67 117.945 142.215 117.83 141.725 117.83C141.225 117.83 140.765 117.945 140.345 118.175C139.935 118.395 139.605 118.735 139.355 119.195C139.105 119.655 138.98 120.215 138.98 120.875C138.98 121.545 139.1 122.11 139.34 122.57C139.59 123.03 139.92 123.375 140.33 123.605C140.74 123.825 141.19 123.935 141.68 123.935ZM149.055 118.115C149.295 117.645 149.635 117.28 150.075 117.02C150.525 116.76 151.07 116.63 151.71 116.63V118.04H151.35C149.82 118.04 149.055 118.87 149.055 120.53V125H147.69V116.78H149.055V118.115ZM154.951 117.905V122.75C154.951 123.15 155.036 123.435 155.206 123.605C155.376 123.765 155.671 123.845 156.091 123.845H157.096V125H155.866C155.106 125 154.536 124.825 154.156 124.475C153.776 124.125 153.586 123.55 153.586 122.75V117.905H152.521V116.78H153.586V114.71H154.951V116.78H157.096V117.905H154.951ZM162.095 117.905H160.37V125H159.005V117.905H157.94V116.78H159.005V116.195C159.005 115.275 159.24 114.605 159.71 114.185C160.19 113.755 160.955 113.54 162.005 113.54V114.68C161.405 114.68 160.98 114.8 160.73 115.04C160.49 115.27 160.37 115.655 160.37 116.195V116.78H162.095V117.905ZM167.271 125.135C166.501 125.135 165.801 124.96 165.171 124.61C164.551 124.26 164.061 123.765 163.701 123.125C163.351 122.475 163.176 121.725 163.176 120.875C163.176 120.035 163.356 119.295 163.716 118.655C164.086 118.005 164.586 117.51 165.216 117.17C165.846 116.82 166.551 116.645 167.331 116.645C168.111 116.645 168.816 116.82 169.446 117.17C170.076 117.51 170.571 118 170.931 118.64C171.301 119.28 171.486 120.025 171.486 120.875C171.486 121.725 171.296 122.475 170.916 123.125C170.546 123.765 170.041 124.26 169.401 124.61C168.761 124.96 168.051 125.135 167.271 125.135ZM167.271 123.935C167.761 123.935 168.221 123.82 168.651 123.59C169.081 123.36 169.426 123.015 169.686 122.555C169.956 122.095 170.091 121.535 170.091 120.875C170.091 120.215 169.961 119.655 169.701 119.195C169.441 118.735 169.101 118.395 168.681 118.175C168.261 117.945 167.806 117.83 167.316 117.83C166.816 117.83 166.356 117.945 165.936 118.175C165.526 118.395 165.196 118.735 164.946 119.195C164.696 119.655 164.571 120.215 164.571 120.875C164.571 121.545 164.691 122.11 164.931 122.57C165.181 123.03 165.511 123.375 165.921 123.605C166.331 123.825 166.781 123.935 167.271 123.935ZM174.646 113.9V125H173.281V113.9H174.646ZM177.677 115.445C177.417 115.445 177.197 115.355 177.017 115.175C176.837 114.995 176.747 114.775 176.747 114.515C176.747 114.255 176.837 114.035 177.017 113.855C177.197 113.675 177.417 113.585 177.677 113.585C177.927 113.585 178.137 113.675 178.307 113.855C178.487 114.035 178.577 114.255 178.577 114.515C178.577 114.775 178.487 114.995 178.307 115.175C178.137 115.355 177.927 115.445 177.677 115.445ZM178.337 116.78V125H176.972V116.78H178.337ZM184.249 125.135C183.479 125.135 182.779 124.96 182.149 124.61C181.529 124.26 181.039 123.765 180.679 123.125C180.329 122.475 180.154 121.725 180.154 120.875C180.154 120.035 180.334 119.295 180.694 118.655C181.064 118.005 181.564 117.51 182.194 117.17C182.824 116.82 183.529 116.645 184.309 116.645C185.089 116.645 185.794 116.82 186.424 117.17C187.054 117.51 187.549 118 187.909 118.64C188.279 119.28 188.464 120.025 188.464 120.875C188.464 121.725 188.274 122.475 187.894 123.125C187.524 123.765 187.019 124.26 186.379 124.61C185.739 124.96 185.029 125.135 184.249 125.135ZM184.249 123.935C184.739 123.935 185.199 123.82 185.629 123.59C186.059 123.36 186.404 123.015 186.664 122.555C186.934 122.095 187.069 121.535 187.069 120.875C187.069 120.215 186.939 119.655 186.679 119.195C186.419 118.735 186.079 118.395 185.659 118.175C185.239 117.945 184.784 117.83 184.294 117.83C183.794 117.83 183.334 117.945 182.914 118.175C182.504 118.395 182.174 118.735 181.924 119.195C181.674 119.655 181.549 120.215 181.549 120.875C181.549 121.545 181.669 122.11 181.909 122.57C182.159 123.03 182.489 123.375 182.899 123.605C183.309 123.825 183.759 123.935 184.249 123.935ZM193.748 119.765C193.748 118.745 193.978 117.83 194.438 117.02C194.898 116.2 195.523 115.56 196.313 115.1C197.113 114.64 197.998 114.41 198.968 114.41C200.108 114.41 201.103 114.685 201.953 115.235C202.803 115.785 203.423 116.565 203.813 117.575H202.178C201.888 116.945 201.468 116.46 200.918 116.12C200.378 115.78 199.728 115.61 198.968 115.61C198.238 115.61 197.583 115.78 197.003 116.12C196.423 116.46 195.968 116.945 195.638 117.575C195.308 118.195 195.143 118.925 195.143 119.765C195.143 120.595 195.308 121.325 195.638 121.955C195.968 122.575 196.423 123.055 197.003 123.395C197.583 123.735 198.238 123.905 198.968 123.905C199.728 123.905 200.378 123.74 200.918 123.41C201.468 123.07 201.888 122.585 202.178 121.955H203.813C203.423 122.955 202.803 123.73 201.953 124.28C201.103 124.82 200.108 125.09 198.968 125.09C197.998 125.09 197.113 124.865 196.313 124.415C195.523 123.955 194.898 123.32 194.438 122.51C193.978 121.7 193.748 120.785 193.748 119.765ZM209.429 125.135C208.659 125.135 207.959 124.96 207.329 124.61C206.709 124.26 206.219 123.765 205.859 123.125C205.509 122.475 205.334 121.725 205.334 120.875C205.334 120.035 205.514 119.295 205.874 118.655C206.244 118.005 206.744 117.51 207.374 117.17C208.004 116.82 208.709 116.645 209.489 116.645C210.269 116.645 210.974 116.82 211.604 117.17C212.234 117.51 212.729 118 213.089 118.64C213.459 119.28 213.644 120.025 213.644 120.875C213.644 121.725 213.454 122.475 213.074 123.125C212.704 123.765 212.199 124.26 211.559 124.61C210.919 124.96 210.209 125.135 209.429 125.135ZM209.429 123.935C209.919 123.935 210.379 123.82 210.809 123.59C211.239 123.36 211.584 123.015 211.844 122.555C212.114 122.095 212.249 121.535 212.249 120.875C212.249 120.215 212.119 119.655 211.859 119.195C211.599 118.735 211.259 118.395 210.839 118.175C210.419 117.945 209.964 117.83 209.474 117.83C208.974 117.83 208.514 117.945 208.094 118.175C207.684 118.395 207.354 118.735 207.104 119.195C206.854 119.655 206.729 120.215 206.729 120.875C206.729 121.545 206.849 122.11 207.089 122.57C207.339 123.03 207.669 123.375 208.079 123.605C208.489 123.825 208.939 123.935 209.429 123.935ZM225.324 116.63C225.964 116.63 226.534 116.765 227.034 117.035C227.534 117.295 227.929 117.69 228.219 118.22C228.509 118.75 228.654 119.395 228.654 120.155V125H227.304V120.35C227.304 119.53 227.099 118.905 226.689 118.475C226.289 118.035 225.744 117.815 225.054 117.815C224.344 117.815 223.779 118.045 223.359 118.505C222.939 118.955 222.729 119.61 222.729 120.47V125H221.379V120.35C221.379 119.53 221.174 118.905 220.764 118.475C220.364 118.035 219.819 117.815 219.129 117.815C218.419 117.815 217.854 118.045 217.434 118.505C217.014 118.955 216.804 119.61 216.804 120.47V125H215.439V116.78H216.804V117.965C217.074 117.535 217.434 117.205 217.884 116.975C218.344 116.745 218.849 116.63 219.399 116.63C220.089 116.63 220.699 116.785 221.229 117.095C221.759 117.405 222.154 117.86 222.414 118.46C222.644 117.88 223.024 117.43 223.554 117.11C224.084 116.79 224.674 116.63 225.324 116.63ZM232.258 118.295C232.528 117.825 232.928 117.435 233.458 117.125C233.998 116.805 234.623 116.645 235.333 116.645C236.063 116.645 236.723 116.82 237.313 117.17C237.913 117.52 238.383 118.015 238.723 118.655C239.063 119.285 239.233 120.02 239.233 120.86C239.233 121.69 239.063 122.43 238.723 123.08C238.383 123.73 237.913 124.235 237.313 124.595C236.723 124.955 236.063 125.135 235.333 125.135C234.633 125.135 234.013 124.98 233.473 124.67C232.943 124.35 232.538 123.955 232.258 123.485V128.9H230.893V116.78H232.258V118.295ZM237.838 120.86C237.838 120.24 237.713 119.7 237.463 119.24C237.213 118.78 236.873 118.43 236.443 118.19C236.023 117.95 235.558 117.83 235.048 117.83C234.548 117.83 234.083 117.955 233.653 118.205C233.233 118.445 232.893 118.8 232.633 119.27C232.383 119.73 232.258 120.265 232.258 120.875C232.258 121.495 232.383 122.04 232.633 122.51C232.893 122.97 233.233 123.325 233.653 123.575C234.083 123.815 234.548 123.935 235.048 123.935C235.558 123.935 236.023 123.815 236.443 123.575C236.873 123.325 237.213 122.97 237.463 122.51C237.713 122.04 237.838 121.49 237.838 120.86ZM240.52 120.86C240.52 120.02 240.69 119.285 241.03 118.655C241.37 118.015 241.835 117.52 242.425 117.17C243.025 116.82 243.69 116.645 244.42 116.645C245.14 116.645 245.765 116.8 246.295 117.11C246.825 117.42 247.22 117.81 247.48 118.28V116.78H248.86V125H247.48V123.47C247.21 123.95 246.805 124.35 246.265 124.67C245.735 124.98 245.115 125.135 244.405 125.135C243.675 125.135 243.015 124.955 242.425 124.595C241.835 124.235 241.37 123.73 241.03 123.08C240.69 122.43 240.52 121.69 240.52 120.86ZM247.48 120.875C247.48 120.255 247.355 119.715 247.105 119.255C246.855 118.795 246.515 118.445 246.085 118.205C245.665 117.955 245.2 117.83 244.69 117.83C244.18 117.83 243.715 117.95 243.295 118.19C242.875 118.43 242.54 118.78 242.29 119.24C242.04 119.7 241.915 120.24 241.915 120.86C241.915 121.49 242.04 122.04 242.29 122.51C242.54 122.97 242.875 123.325 243.295 123.575C243.715 123.815 244.18 123.935 244.69 123.935C245.2 123.935 245.665 123.815 246.085 123.575C246.515 123.325 246.855 122.97 247.105 122.51C247.355 122.04 247.48 121.495 247.48 120.875ZM255.172 116.63C256.172 116.63 256.982 116.935 257.602 117.545C258.222 118.145 258.532 119.015 258.532 120.155V125H257.182V120.35C257.182 119.53 256.977 118.905 256.567 118.475C256.157 118.035 255.597 117.815 254.887 117.815C254.167 117.815 253.592 118.04 253.162 118.49C252.742 118.94 252.532 119.595 252.532 120.455V125H251.167V116.78H252.532V117.95C252.802 117.53 253.167 117.205 253.627 116.975C254.097 116.745 254.612 116.63 255.172 116.63ZM261.466 115.445C261.206 115.445 260.986 115.355 260.806 115.175C260.626 114.995 260.536 114.775 260.536 114.515C260.536 114.255 260.626 114.035 260.806 113.855C260.986 113.675 261.206 113.585 261.466 113.585C261.716 113.585 261.926 113.675 262.096 113.855C262.276 114.035 262.366 114.255 262.366 114.515C262.366 114.775 262.276 114.995 262.096 115.175C261.926 115.355 261.716 115.445 261.466 115.445ZM262.126 116.78V125H260.761V116.78H262.126ZM271.953 120.575C271.953 120.835 271.938 121.11 271.908 121.4H265.338C265.388 122.21 265.663 122.845 266.163 123.305C266.673 123.755 267.288 123.98 268.008 123.98C268.598 123.98 269.088 123.845 269.478 123.575C269.878 123.295 270.158 122.925 270.318 122.465H271.788C271.568 123.255 271.128 123.9 270.468 124.4C269.808 124.89 268.988 125.135 268.008 125.135C267.228 125.135 266.528 124.96 265.908 124.61C265.298 124.26 264.818 123.765 264.468 123.125C264.118 122.475 263.943 121.725 263.943 120.875C263.943 120.025 264.113 119.28 264.453 118.64C264.793 118 265.268 117.51 265.878 117.17C266.498 116.82 267.208 116.645 268.008 116.645C268.788 116.645 269.478 116.815 270.078 117.155C270.678 117.495 271.138 117.965 271.458 118.565C271.788 119.155 271.953 119.825 271.953 120.575ZM270.543 120.29C270.543 119.77 270.428 119.325 270.198 118.955C269.968 118.575 269.653 118.29 269.253 118.1C268.863 117.9 268.428 117.8 267.948 117.8C267.258 117.8 266.668 118.02 266.178 118.46C265.698 118.9 265.423 119.51 265.353 120.29H270.543ZM276.665 125.135C276.035 125.135 275.47 125.03 274.97 124.82C274.47 124.6 274.075 124.3 273.785 123.92C273.495 123.53 273.335 123.085 273.305 122.585H274.715C274.755 122.995 274.945 123.33 275.285 123.59C275.635 123.85 276.09 123.98 276.65 123.98C277.17 123.98 277.58 123.865 277.88 123.635C278.18 123.405 278.33 123.115 278.33 122.765C278.33 122.405 278.17 122.14 277.85 121.97C277.53 121.79 277.035 121.615 276.365 121.445C275.755 121.285 275.255 121.125 274.865 120.965C274.485 120.795 274.155 120.55 273.875 120.23C273.605 119.9 273.47 119.47 273.47 118.94C273.47 118.52 273.595 118.135 273.845 117.785C274.095 117.435 274.45 117.16 274.91 116.96C275.37 116.75 275.895 116.645 276.485 116.645C277.395 116.645 278.13 116.875 278.69 117.335C279.25 117.795 279.55 118.425 279.59 119.225H278.225C278.195 118.795 278.02 118.45 277.7 118.19C277.39 117.93 276.97 117.8 276.44 117.8C275.95 117.8 275.56 117.905 275.27 118.115C274.98 118.325 274.835 118.6 274.835 118.94C274.835 119.21 274.92 119.435 275.09 119.615C275.27 119.785 275.49 119.925 275.75 120.035C276.02 120.135 276.39 120.25 276.86 120.38C277.45 120.54 277.93 120.7 278.3 120.86C278.67 121.01 278.985 121.24 279.245 121.55C279.515 121.86 279.655 122.265 279.665 122.765C279.665 123.215 279.54 123.62 279.29 123.98C279.04 124.34 278.685 124.625 278.225 124.835C277.775 125.035 277.255 125.135 276.665 125.135ZM283.002 123.11L281.322 127.145H280.407L281.502 123.11H283.002ZM294.744 122.675H290.184L289.344 125H287.904L291.684 114.605H293.259L297.024 125H295.584L294.744 122.675ZM294.354 121.565L292.464 116.285L290.574 121.565H294.354ZM302.677 116.63C303.677 116.63 304.487 116.935 305.107 117.545C305.727 118.145 306.037 119.015 306.037 120.155V125H304.687V120.35C304.687 119.53 304.482 118.905 304.072 118.475C303.662 118.035 303.102 117.815 302.392 117.815C301.672 117.815 301.097 118.04 300.667 118.49C300.247 118.94 300.037 119.595 300.037 120.455V125H298.672V116.78H300.037V117.95C300.307 117.53 300.672 117.205 301.132 116.975C301.602 116.745 302.117 116.63 302.677 116.63ZM307.756 120.86C307.756 120.02 307.926 119.285 308.266 118.655C308.606 118.015 309.071 117.52 309.661 117.17C310.261 116.82 310.931 116.645 311.671 116.645C312.311 116.645 312.906 116.795 313.456 117.095C314.006 117.385 314.426 117.77 314.716 118.25V113.9H316.096V125H314.716V123.455C314.446 123.945 314.046 124.35 313.516 124.67C312.986 124.98 312.366 125.135 311.656 125.135C310.926 125.135 310.261 124.955 309.661 124.595C309.071 124.235 308.606 123.73 308.266 123.08C307.926 122.43 307.756 121.69 307.756 120.86ZM314.716 120.875C314.716 120.255 314.591 119.715 314.341 119.255C314.091 118.795 313.751 118.445 313.321 118.205C312.901 117.955 312.436 117.83 311.926 117.83C311.416 117.83 310.951 117.95 310.531 118.19C310.111 118.43 309.776 118.78 309.526 119.24C309.276 119.7 309.151 120.24 309.151 120.86C309.151 121.49 309.276 122.04 309.526 122.51C309.776 122.97 310.111 123.325 310.531 123.575C310.951 123.815 311.416 123.935 311.926 123.935C312.436 123.935 312.901 123.815 313.321 123.575C313.751 123.325 314.091 122.97 314.341 122.51C314.591 122.04 314.716 121.495 314.716 120.875ZM325.717 125.105C325.027 125.105 324.407 124.985 323.857 124.745C323.317 124.495 322.892 124.155 322.582 123.725C322.272 123.285 322.112 122.78 322.102 122.21H323.557C323.607 122.7 323.807 123.115 324.157 123.455C324.517 123.785 325.037 123.95 325.717 123.95C326.367 123.95 326.877 123.79 327.247 123.47C327.627 123.14 327.817 122.72 327.817 122.21C327.817 121.81 327.707 121.485 327.487 121.235C327.267 120.985 326.992 120.795 326.662 120.665C326.332 120.535 325.887 120.395 325.327 120.245C324.637 120.065 324.082 119.885 323.662 119.705C323.252 119.525 322.897 119.245 322.597 118.865C322.307 118.475 322.162 117.955 322.162 117.305C322.162 116.735 322.307 116.23 322.597 115.79C322.887 115.35 323.292 115.01 323.812 114.77C324.342 114.53 324.947 114.41 325.627 114.41C326.607 114.41 327.407 114.655 328.027 115.145C328.657 115.635 329.012 116.285 329.092 117.095H327.592C327.542 116.695 327.332 116.345 326.962 116.045C326.592 115.735 326.102 115.58 325.492 115.58C324.922 115.58 324.457 115.73 324.097 116.03C323.737 116.32 323.557 116.73 323.557 117.26C323.557 117.64 323.662 117.95 323.872 118.19C324.092 118.43 324.357 118.615 324.667 118.745C324.987 118.865 325.432 119.005 326.002 119.165C326.692 119.355 327.247 119.545 327.667 119.735C328.087 119.915 328.447 120.2 328.747 120.59C329.047 120.97 329.197 121.49 329.197 122.15C329.197 122.66 329.062 123.14 328.792 123.59C328.522 124.04 328.122 124.405 327.592 124.685C327.062 124.965 326.437 125.105 325.717 125.105ZM338.496 116.78V125H337.131V123.785C336.871 124.205 336.506 124.535 336.036 124.775C335.576 125.005 335.066 125.12 334.506 125.12C333.866 125.12 333.291 124.99 332.781 124.73C332.271 124.46 331.866 124.06 331.566 123.53C331.276 123 331.131 122.355 331.131 121.595V116.78H332.481V121.415C332.481 122.225 332.686 122.85 333.096 123.29C333.506 123.72 334.066 123.935 334.776 123.935C335.506 123.935 336.081 123.71 336.501 123.26C336.921 122.81 337.131 122.155 337.131 121.295V116.78H338.496ZM342.166 118.295C342.436 117.825 342.836 117.435 343.366 117.125C343.906 116.805 344.531 116.645 345.241 116.645C345.971 116.645 346.631 116.82 347.221 117.17C347.821 117.52 348.291 118.015 348.631 118.655C348.971 119.285 349.141 120.02 349.141 120.86C349.141 121.69 348.971 122.43 348.631 123.08C348.291 123.73 347.821 124.235 347.221 124.595C346.631 124.955 345.971 125.135 345.241 125.135C344.541 125.135 343.921 124.98 343.381 124.67C342.851 124.35 342.446 123.955 342.166 123.485V128.9H340.801V116.78H342.166V118.295ZM347.746 120.86C347.746 120.24 347.621 119.7 347.371 119.24C347.121 118.78 346.781 118.43 346.351 118.19C345.931 117.95 345.466 117.83 344.956 117.83C344.456 117.83 343.991 117.955 343.561 118.205C343.141 118.445 342.801 118.8 342.541 119.27C342.291 119.73 342.166 120.265 342.166 120.875C342.166 121.495 342.291 122.04 342.541 122.51C342.801 122.97 343.141 123.325 343.561 123.575C343.991 123.815 344.456 123.935 344.956 123.935C345.466 123.935 345.931 123.815 346.351 123.575C346.781 123.325 347.121 122.97 347.371 122.51C347.621 122.04 347.746 121.49 347.746 120.86ZM352.302 118.295C352.572 117.825 352.972 117.435 353.502 117.125C354.042 116.805 354.667 116.645 355.377 116.645C356.107 116.645 356.767 116.82 357.357 117.17C357.957 117.52 358.427 118.015 358.767 118.655C359.107 119.285 359.277 120.02 359.277 120.86C359.277 121.69 359.107 122.43 358.767 123.08C358.427 123.73 357.957 124.235 357.357 124.595C356.767 124.955 356.107 125.135 355.377 125.135C354.677 125.135 354.057 124.98 353.517 124.67C352.987 124.35 352.582 123.955 352.302 123.485V128.9H350.937V116.78H352.302V118.295ZM357.882 120.86C357.882 120.24 357.757 119.7 357.507 119.24C357.257 118.78 356.917 118.43 356.487 118.19C356.067 117.95 355.602 117.83 355.092 117.83C354.592 117.83 354.127 117.955 353.697 118.205C353.277 118.445 352.937 118.8 352.677 119.27C352.427 119.73 352.302 120.265 352.302 120.875C352.302 121.495 352.427 122.04 352.677 122.51C352.937 122.97 353.277 123.325 353.697 123.575C354.127 123.815 354.592 123.935 355.092 123.935C355.602 123.935 356.067 123.815 356.487 123.575C356.917 123.325 357.257 122.97 357.507 122.51C357.757 122.04 357.882 121.49 357.882 120.86ZM362.439 113.9V125H361.074V113.9H362.439ZM365.47 115.445C365.21 115.445 364.99 115.355 364.81 115.175C364.63 114.995 364.54 114.775 364.54 114.515C364.54 114.255 364.63 114.035 364.81 113.855C364.99 113.675 365.21 113.585 365.47 113.585C365.72 113.585 365.93 113.675 366.1 113.855C366.28 114.035 366.37 114.255 366.37 114.515C366.37 114.775 366.28 114.995 366.1 115.175C365.93 115.355 365.72 115.445 365.47 115.445ZM366.13 116.78V125H364.765V116.78H366.13ZM375.957 120.575C375.957 120.835 375.942 121.11 375.912 121.4H369.342C369.392 122.21 369.667 122.845 370.167 123.305C370.677 123.755 371.292 123.98 372.012 123.98C372.602 123.98 373.092 123.845 373.482 123.575C373.882 123.295 374.162 122.925 374.322 122.465H375.792C375.572 123.255 375.132 123.9 374.472 124.4C373.812 124.89 372.992 125.135 372.012 125.135C371.232 125.135 370.532 124.96 369.912 124.61C369.302 124.26 368.822 123.765 368.472 123.125C368.122 122.475 367.947 121.725 367.947 120.875C367.947 120.025 368.117 119.28 368.457 118.64C368.797 118 369.272 117.51 369.882 117.17C370.502 116.82 371.212 116.645 372.012 116.645C372.792 116.645 373.482 116.815 374.082 117.155C374.682 117.495 375.142 117.965 375.462 118.565C375.792 119.155 375.957 119.825 375.957 120.575ZM374.547 120.29C374.547 119.77 374.432 119.325 374.202 118.955C373.972 118.575 373.657 118.29 373.257 118.1C372.867 117.9 372.432 117.8 371.952 117.8C371.262 117.8 370.672 118.02 370.182 118.46C369.702 118.9 369.427 119.51 369.357 120.29H374.547ZM380.669 125.135C380.039 125.135 379.474 125.03 378.974 124.82C378.474 124.6 378.079 124.3 377.789 123.92C377.499 123.53 377.339 123.085 377.309 122.585H378.719C378.759 122.995 378.949 123.33 379.289 123.59C379.639 123.85 380.094 123.98 380.654 123.98C381.174 123.98 381.584 123.865 381.884 123.635C382.184 123.405 382.334 123.115 382.334 122.765C382.334 122.405 382.174 122.14 381.854 121.97C381.534 121.79 381.039 121.615 380.369 121.445C379.759 121.285 379.259 121.125 378.869 120.965C378.489 120.795 378.159 120.55 377.879 120.23C377.609 119.9 377.474 119.47 377.474 118.94C377.474 118.52 377.599 118.135 377.849 117.785C378.099 117.435 378.454 117.16 378.914 116.96C379.374 116.75 379.899 116.645 380.489 116.645C381.399 116.645 382.134 116.875 382.694 117.335C383.254 117.795 383.554 118.425 383.594 119.225H382.229C382.199 118.795 382.024 118.45 381.704 118.19C381.394 117.93 380.974 117.8 380.444 117.8C379.954 117.8 379.564 117.905 379.274 118.115C378.984 118.325 378.839 118.6 378.839 118.94C378.839 119.21 378.924 119.435 379.094 119.615C379.274 119.785 379.494 119.925 379.754 120.035C380.024 120.135 380.394 120.25 380.864 120.38C381.454 120.54 381.934 120.7 382.304 120.86C382.674 121.01 382.989 121.24 383.249 121.55C383.519 121.86 383.659 122.265 383.669 122.765C383.669 123.215 383.544 123.62 383.294 123.98C383.044 124.34 382.689 124.625 382.229 124.835C381.779 125.035 381.259 125.135 380.669 125.135ZM387.005 123.11L385.325 127.145H384.41L385.505 123.11H387.005ZM398.748 122.675H394.188L393.348 125H391.908L395.688 114.605H397.263L401.028 125H399.588L398.748 122.675ZM398.358 121.565L396.468 116.285L394.578 121.565H398.358ZM412.561 116.63C413.201 116.63 413.771 116.765 414.271 117.035C414.771 117.295 415.166 117.69 415.456 118.22C415.746 118.75 415.891 119.395 415.891 120.155V125H414.541V120.35C414.541 119.53 414.336 118.905 413.926 118.475C413.526 118.035 412.981 117.815 412.291 117.815C411.581 117.815 411.016 118.045 410.596 118.505C410.176 118.955 409.966 119.61 409.966 120.47V125H408.616V120.35C408.616 119.53 408.411 118.905 408.001 118.475C407.601 118.035 407.056 117.815 406.366 117.815C405.656 117.815 405.091 118.045 404.671 118.505C404.251 118.955 404.041 119.61 404.041 120.47V125H402.676V116.78H404.041V117.965C404.311 117.535 404.671 117.205 405.121 116.975C405.581 116.745 406.086 116.63 406.636 116.63C407.326 116.63 407.936 116.785 408.466 117.095C408.996 117.405 409.391 117.86 409.651 118.46C409.881 117.88 410.261 117.43 410.791 117.11C411.321 116.79 411.911 116.63 412.561 116.63ZM421.715 125.135C420.945 125.135 420.245 124.96 419.615 124.61C418.995 124.26 418.505 123.765 418.145 123.125C417.795 122.475 417.62 121.725 417.62 120.875C417.62 120.035 417.8 119.295 418.16 118.655C418.53 118.005 419.03 117.51 419.66 117.17C420.29 116.82 420.995 116.645 421.775 116.645C422.555 116.645 423.26 116.82 423.89 117.17C424.52 117.51 425.015 118 425.375 118.64C425.745 119.28 425.93 120.025 425.93 120.875C425.93 121.725 425.74 122.475 425.36 123.125C424.99 123.765 424.485 124.26 423.845 124.61C423.205 124.96 422.495 125.135 421.715 125.135ZM421.715 123.935C422.205 123.935 422.665 123.82 423.095 123.59C423.525 123.36 423.87 123.015 424.13 122.555C424.4 122.095 424.535 121.535 424.535 120.875C424.535 120.215 424.405 119.655 424.145 119.195C423.885 118.735 423.545 118.395 423.125 118.175C422.705 117.945 422.25 117.83 421.76 117.83C421.26 117.83 420.8 117.945 420.38 118.175C419.97 118.395 419.64 118.735 419.39 119.195C419.14 119.655 419.015 120.215 419.015 120.875C419.015 121.545 419.135 122.11 419.375 122.57C419.625 123.03 419.955 123.375 420.365 123.605C420.775 123.825 421.225 123.935 421.715 123.935ZM431.729 116.63C432.729 116.63 433.539 116.935 434.159 117.545C434.779 118.145 435.089 119.015 435.089 120.155V125H433.739V120.35C433.739 119.53 433.534 118.905 433.124 118.475C432.714 118.035 432.154 117.815 431.444 117.815C430.724 117.815 430.149 118.04 429.719 118.49C429.299 118.94 429.089 119.595 429.089 120.455V125H427.724V116.78H429.089V117.95C429.359 117.53 429.724 117.205 430.184 116.975C430.654 116.745 431.169 116.63 431.729 116.63ZM440.709 116.645C441.419 116.645 442.039 116.8 442.569 117.11C443.109 117.42 443.509 117.81 443.769 118.28V116.78H445.149V125.18C445.149 125.93 444.989 126.595 444.669 127.175C444.349 127.765 443.889 128.225 443.289 128.555C442.699 128.885 442.009 129.05 441.219 129.05C440.139 129.05 439.239 128.795 438.519 128.285C437.799 127.775 437.374 127.08 437.244 126.2H438.594C438.744 126.7 439.054 127.1 439.524 127.4C439.994 127.71 440.559 127.865 441.219 127.865C441.969 127.865 442.579 127.63 443.049 127.16C443.529 126.69 443.769 126.03 443.769 125.18V123.455C443.499 123.935 443.099 124.335 442.569 124.655C442.039 124.975 441.419 125.135 440.709 125.135C439.979 125.135 439.314 124.955 438.714 124.595C438.124 124.235 437.659 123.73 437.319 123.08C436.979 122.43 436.809 121.69 436.809 120.86C436.809 120.02 436.979 119.285 437.319 118.655C437.659 118.015 438.124 117.52 438.714 117.17C439.314 116.82 439.979 116.645 440.709 116.645ZM443.769 120.875C443.769 120.255 443.644 119.715 443.394 119.255C443.144 118.795 442.804 118.445 442.374 118.205C441.954 117.955 441.489 117.83 440.979 117.83C440.469 117.83 440.004 117.95 439.584 118.19C439.164 118.43 438.829 118.78 438.579 119.24C438.329 119.7 438.204 120.24 438.204 120.86C438.204 121.49 438.329 122.04 438.579 122.51C438.829 122.97 439.164 123.325 439.584 123.575C440.004 123.815 440.469 123.935 440.979 123.935C441.489 123.935 441.954 123.815 442.374 123.575C442.804 123.325 443.144 122.97 443.394 122.51C443.644 122.04 443.769 121.495 443.769 120.875ZM456.195 125.105C455.225 125.105 454.34 124.88 453.54 124.43C452.74 123.97 452.105 123.335 451.635 122.525C451.175 121.705 450.945 120.785 450.945 119.765C450.945 118.745 451.175 117.83 451.635 117.02C452.105 116.2 452.74 115.565 453.54 115.115C454.34 114.655 455.225 114.425 456.195 114.425C457.175 114.425 458.065 114.655 458.865 115.115C459.665 115.565 460.295 116.195 460.755 117.005C461.215 117.815 461.445 118.735 461.445 119.765C461.445 120.795 461.215 121.715 460.755 122.525C460.295 123.335 459.665 123.97 458.865 124.43C458.065 124.88 457.175 125.105 456.195 125.105ZM456.195 123.92C456.925 123.92 457.58 123.75 458.16 123.41C458.75 123.07 459.21 122.585 459.54 121.955C459.88 121.325 460.05 120.595 460.05 119.765C460.05 118.925 459.88 118.195 459.54 117.575C459.21 116.945 458.755 116.46 458.175 116.12C457.595 115.78 456.935 115.61 456.195 115.61C455.455 115.61 454.795 115.78 454.215 116.12C453.635 116.46 453.175 116.945 452.835 117.575C452.505 118.195 452.34 118.925 452.34 119.765C452.34 120.595 452.505 121.325 452.835 121.955C453.175 122.585 453.635 123.07 454.215 123.41C454.805 123.75 455.465 123.92 456.195 123.92ZM464.912 117.905V122.75C464.912 123.15 464.997 123.435 465.167 123.605C465.337 123.765 465.632 123.845 466.052 123.845H467.057V125H465.827C465.067 125 464.497 124.825 464.117 124.475C463.737 124.125 463.547 123.55 463.547 122.75V117.905H462.482V116.78H463.547V114.71H464.912V116.78H467.057V117.905H464.912ZM472.791 116.63C473.411 116.63 473.971 116.765 474.471 117.035C474.971 117.295 475.361 117.69 475.641 118.22C475.931 118.75 476.076 119.395 476.076 120.155V125H474.726V120.35C474.726 119.53 474.521 118.905 474.111 118.475C473.701 118.035 473.141 117.815 472.431 117.815C471.711 117.815 471.136 118.04 470.706 118.49C470.286 118.94 470.076 119.595 470.076 120.455V125H468.711V113.9H470.076V117.95C470.346 117.53 470.716 117.205 471.186 116.975C471.666 116.745 472.201 116.63 472.791 116.63ZM485.805 120.575C485.805 120.835 485.79 121.11 485.76 121.4H479.19C479.24 122.21 479.515 122.845 480.015 123.305C480.525 123.755 481.14 123.98 481.86 123.98C482.45 123.98 482.94 123.845 483.33 123.575C483.73 123.295 484.01 122.925 484.17 122.465H485.64C485.42 123.255 484.98 123.9 484.32 124.4C483.66 124.89 482.84 125.135 481.86 125.135C481.08 125.135 480.38 124.96 479.76 124.61C479.15 124.26 478.67 123.765 478.32 123.125C477.97 122.475 477.795 121.725 477.795 120.875C477.795 120.025 477.965 119.28 478.305 118.64C478.645 118 479.12 117.51 479.73 117.17C480.35 116.82 481.06 116.645 481.86 116.645C482.64 116.645 483.33 116.815 483.93 117.155C484.53 117.495 484.99 117.965 485.31 118.565C485.64 119.155 485.805 119.825 485.805 120.575ZM484.395 120.29C484.395 119.77 484.28 119.325 484.05 118.955C483.82 118.575 483.505 118.29 483.105 118.1C482.715 117.9 482.28 117.8 481.8 117.8C481.11 117.8 480.52 118.02 480.03 118.46C479.55 118.9 479.275 119.51 479.205 120.29H484.395ZM488.972 118.115C489.212 117.645 489.552 117.28 489.992 117.02C490.442 116.76 490.987 116.63 491.627 116.63V118.04H491.267C489.737 118.04 488.972 118.87 488.972 120.53V125H487.607V116.78H488.972V118.115ZM496.113 125.135C495.483 125.135 494.918 125.03 494.418 124.82C493.918 124.6 493.523 124.3 493.233 123.92C492.943 123.53 492.783 123.085 492.753 122.585H494.163C494.203 122.995 494.393 123.33 494.733 123.59C495.083 123.85 495.538 123.98 496.098 123.98C496.618 123.98 497.028 123.865 497.328 123.635C497.628 123.405 497.778 123.115 497.778 122.765C497.778 122.405 497.618 122.14 497.298 121.97C496.978 121.79 496.483 121.615 495.813 121.445C495.203 121.285 494.703 121.125 494.313 120.965C493.933 120.795 493.603 120.55 493.323 120.23C493.053 119.9 492.918 119.47 492.918 118.94C492.918 118.52 493.043 118.135 493.293 117.785C493.543 117.435 493.898 117.16 494.358 116.96C494.818 116.75 495.343 116.645 495.933 116.645C496.843 116.645 497.578 116.875 498.138 117.335C498.698 117.795 498.998 118.425 499.038 119.225H497.673C497.643 118.795 497.468 118.45 497.148 118.19C496.838 117.93 496.418 117.8 495.888 117.8C495.398 117.8 495.008 117.905 494.718 118.115C494.428 118.325 494.283 118.6 494.283 118.94C494.283 119.21 494.368 119.435 494.538 119.615C494.718 119.785 494.938 119.925 495.198 120.035C495.468 120.135 495.838 120.25 496.308 120.38C496.898 120.54 497.378 120.7 497.748 120.86C498.118 121.01 498.433 121.24 498.693 121.55C498.963 121.86 499.103 122.265 499.113 122.765C499.113 123.215 498.988 123.62 498.738 123.98C498.488 124.34 498.133 124.625 497.673 124.835C497.223 125.035 496.703 125.135 496.113 125.135Z" fill="white"/>
<defs>
<linearGradient id="paint0_linear_212_3" x1="260" y1="0" x2="260" y2="160" gradientUnits="userSpaceOnUse">
<stop stop-color="#007DFC" stop-opacity="0.1"/>
<stop offset="1" stop-color="#007DFC"/>
</linearGradient>
</defs>
</svg>
