<svg width="200" height="50" viewBox="0 0 200 50" fill="none" xmlns="http://www.w3.org/2000/svg">
<rect width="200" height="50" rx="25" fill="#010222"/>
<rect width="200" height="50" rx="25" stroke="#010222"/>
<path d="M45.8679 29.3921H50.4679V31.6121H43.0679V17.6521H45.8679V29.3921ZM63.2476 25.8321C63.2476 26.2321 63.2209 26.5921 63.1676 26.9121H55.0676C55.1342 27.7121 55.4142 28.3387 55.9076 28.7921C56.4009 29.2454 57.0076 29.4721 57.7276 29.4721C58.7676 29.4721 59.5076 29.0254 59.9476 28.1321H62.9676C62.6476 29.1987 62.0342 30.0787 61.1276 30.7721C60.2209 31.4521 59.1076 31.7921 57.7876 31.7921C56.7209 31.7921 55.7609 31.5587 54.9076 31.0921C54.0676 30.6121 53.4076 29.9387 52.9276 29.0721C52.4609 28.2054 52.2276 27.2054 52.2276 26.0721C52.2276 24.9254 52.4609 23.9187 52.9276 23.0521C53.3942 22.1854 54.0476 21.5187 54.8876 21.0521C55.7276 20.5854 56.6942 20.3521 57.7876 20.3521C58.8409 20.3521 59.7809 20.5787 60.6076 21.0321C61.4476 21.4854 62.0942 22.1321 62.5476 22.9721C63.0142 23.7987 63.2476 24.7521 63.2476 25.8321ZM60.3476 25.0321C60.3342 24.3121 60.0742 23.7387 59.5676 23.3121C59.0609 22.8721 58.4409 22.6521 57.7076 22.6521C57.0142 22.6521 56.4276 22.8654 55.9476 23.2921C55.4809 23.7054 55.1942 24.2854 55.0876 25.0321H60.3476ZM65.2713 26.0321C65.2713 24.9121 65.4913 23.9187 65.9313 23.0521C66.3847 22.1854 66.9913 21.5187 67.7513 21.0521C68.5247 20.5854 69.3847 20.3521 70.3313 20.3521C71.158 20.3521 71.878 20.5187 72.4913 20.8521C73.118 21.1854 73.618 21.6054 73.9913 22.1121V20.5321H76.8113V31.6121H73.9913V29.9921C73.6313 30.5121 73.1313 30.9454 72.4913 31.2921C71.8647 31.6254 71.138 31.7921 70.3113 31.7921C69.378 31.7921 68.5247 31.5521 67.7513 31.0721C66.9913 30.5921 66.3847 29.9187 65.9313 29.0521C65.4913 28.1721 65.2713 27.1654 65.2713 26.0321ZM73.9913 26.0721C73.9913 25.3921 73.858 24.8121 73.5913 24.3321C73.3247 23.8387 72.9647 23.4654 72.5113 23.2121C72.058 22.9454 71.5713 22.8121 71.0513 22.8121C70.5313 22.8121 70.0513 22.9387 69.6113 23.1921C69.1713 23.4454 68.8113 23.8187 68.5313 24.3121C68.2647 24.7921 68.1313 25.3654 68.1313 26.0321C68.1313 26.6987 68.2647 27.2854 68.5313 27.7921C68.8113 28.2854 69.1713 28.6654 69.6113 28.9321C70.0647 29.1987 70.5447 29.3321 71.0513 29.3321C71.5713 29.3321 72.058 29.2054 72.5113 28.9521C72.9647 28.6854 73.3247 28.3121 73.5913 27.8321C73.858 27.3387 73.9913 26.7521 73.9913 26.0721ZM83.046 22.2521C83.406 21.6654 83.8727 21.2054 84.446 20.8721C85.0327 20.5387 85.6993 20.3721 86.446 20.3721V23.3121H85.706C84.826 23.3121 84.1593 23.5187 83.706 23.9321C83.266 24.3454 83.046 25.0654 83.046 26.0921V31.6121H80.246V20.5321H83.046V22.2521ZM95.172 20.3721C96.492 20.3721 97.5586 20.7921 98.372 21.6321C99.1853 22.4587 99.592 23.6187 99.592 25.1121V31.6121H96.792V25.4921C96.792 24.6121 96.572 23.9387 96.132 23.4721C95.692 22.9921 95.092 22.7521 94.332 22.7521C93.5586 22.7521 92.9453 22.9921 92.492 23.4721C92.052 23.9387 91.832 24.6121 91.832 25.4921V31.6121H89.032V20.5321H91.832V21.9121C92.2053 21.4321 92.6786 21.0587 93.252 20.7921C93.8386 20.5121 94.4786 20.3721 95.172 20.3721ZM123.64 17.6521V31.6121H120.84V22.5321L117.1 31.6121H114.98L111.22 22.5321V31.6121H108.42V17.6521H111.6L116.04 28.0321L120.48 17.6521H123.64ZM132.029 31.7921C130.962 31.7921 130.002 31.5587 129.149 31.0921C128.295 30.6121 127.622 29.9387 127.129 29.0721C126.649 28.2054 126.409 27.2054 126.409 26.0721C126.409 24.9387 126.655 23.9387 127.149 23.0721C127.655 22.2054 128.342 21.5387 129.209 21.0721C130.075 20.5921 131.042 20.3521 132.109 20.3521C133.175 20.3521 134.142 20.5921 135.009 21.0721C135.875 21.5387 136.555 22.2054 137.049 23.0721C137.555 23.9387 137.809 24.9387 137.809 26.0721C137.809 27.2054 137.549 28.2054 137.029 29.0721C136.522 29.9387 135.829 30.6121 134.949 31.0921C134.082 31.5587 133.109 31.7921 132.029 31.7921ZM132.029 29.3521C132.535 29.3521 133.009 29.2321 133.449 28.9921C133.902 28.7387 134.262 28.3654 134.529 27.8721C134.795 27.3787 134.929 26.7787 134.929 26.0721C134.929 25.0187 134.649 24.2121 134.089 23.6521C133.542 23.0787 132.869 22.7921 132.069 22.7921C131.269 22.7921 130.595 23.0787 130.049 23.6521C129.515 24.2121 129.249 25.0187 129.249 26.0721C129.249 27.1254 129.509 27.9387 130.029 28.5121C130.562 29.0721 131.229 29.3521 132.029 29.3521ZM143.362 22.2521C143.722 21.6654 144.189 21.2054 144.762 20.8721C145.349 20.5387 146.016 20.3721 146.762 20.3721V23.3121H146.022C145.142 23.3121 144.476 23.5187 144.022 23.9321C143.582 24.3454 143.362 25.0654 143.362 26.0921V31.6121H140.562V20.5321H143.362V22.2521ZM159.648 25.8321C159.648 26.2321 159.622 26.5921 159.568 26.9121H151.468C151.535 27.7121 151.815 28.3387 152.308 28.7921C152.802 29.2454 153.408 29.4721 154.128 29.4721C155.168 29.4721 155.908 29.0254 156.348 28.1321H159.368C159.048 29.1987 158.435 30.0787 157.528 30.7721C156.622 31.4521 155.508 31.7921 154.188 31.7921C153.122 31.7921 152.162 31.5587 151.308 31.0921C150.468 30.6121 149.808 29.9387 149.328 29.0721C148.862 28.2054 148.628 27.2054 148.628 26.0721C148.628 24.9254 148.862 23.9187 149.328 23.0521C149.795 22.1854 150.448 21.5187 151.288 21.0521C152.128 20.5854 153.095 20.3521 154.188 20.3521C155.242 20.3521 156.182 20.5787 157.008 21.0321C157.848 21.4854 158.495 22.1321 158.948 22.9721C159.415 23.7987 159.648 24.7521 159.648 25.8321ZM156.748 25.0321C156.735 24.3121 156.475 23.7387 155.968 23.3121C155.462 22.8721 154.842 22.6521 154.108 22.6521C153.415 22.6521 152.828 22.8654 152.348 23.2921C151.882 23.7054 151.595 24.2854 151.488 25.0321H156.748Z" fill="white"/>
</svg>
