<svg width="431" height="101" viewBox="0 0 431 101" fill="none" xmlns="http://www.w3.org/2000/svg">
<rect x="0.5" y="0.5" width="430" height="100" rx="50" fill="#010222" stroke="black"/>
<rect x="14" y="17" width="70" height="67" rx="33.5" fill="#AA9AB7"/>
<path d="M114.01 42.96C115.49 42.96 116.783 43.2533 117.89 43.84C118.996 44.4267 119.85 45.2533 120.45 46.32C121.063 47.3733 121.37 48.5933 121.37 49.98C121.37 51.3533 121.063 52.5733 120.45 53.64C119.85 54.7067 118.99 55.5333 117.87 56.12C116.763 56.7067 115.476 57 114.01 57H108.75V42.96H114.01ZM113.79 54.04C115.083 54.04 116.09 53.6867 116.81 52.98C117.53 52.2733 117.89 51.2733 117.89 49.98C117.89 48.6867 117.53 47.68 116.81 46.96C116.09 46.24 115.083 45.88 113.79 45.88H112.17V54.04H113.79ZM126.701 42.96V57H123.281V42.96H126.701ZM134.259 57.14C133.233 57.14 132.313 56.9733 131.499 56.64C130.686 56.3067 130.033 55.8133 129.539 55.16C129.059 54.5067 128.806 53.72 128.779 52.8H132.419C132.473 53.32 132.653 53.72 132.959 54C133.266 54.2667 133.666 54.4 134.159 54.4C134.666 54.4 135.066 54.2867 135.359 54.06C135.653 53.82 135.799 53.4933 135.799 53.08C135.799 52.7333 135.679 52.4467 135.439 52.22C135.213 51.9933 134.926 51.8067 134.579 51.66C134.246 51.5133 133.766 51.3467 133.139 51.16C132.233 50.88 131.493 50.6 130.919 50.32C130.346 50.04 129.853 49.6267 129.439 49.08C129.026 48.5333 128.819 47.82 128.819 46.94C128.819 45.6333 129.293 44.6133 130.239 43.88C131.186 43.1333 132.419 42.76 133.939 42.76C135.486 42.76 136.733 43.1333 137.679 43.88C138.626 44.6133 139.133 45.64 139.199 46.96H135.499C135.473 46.5067 135.306 46.1533 134.999 45.9C134.693 45.6333 134.299 45.5 133.819 45.5C133.406 45.5 133.073 45.6133 132.819 45.84C132.566 46.0533 132.439 46.3667 132.439 46.78C132.439 47.2333 132.653 47.5867 133.079 47.84C133.506 48.0933 134.173 48.3667 135.079 48.66C135.986 48.9667 136.719 49.26 137.279 49.54C137.853 49.82 138.346 50.2267 138.759 50.76C139.173 51.2933 139.379 51.98 139.379 52.82C139.379 53.62 139.173 54.3467 138.759 55C138.359 55.6533 137.773 56.1733 136.999 56.56C136.226 56.9467 135.313 57.14 134.259 57.14ZM140.904 49.96C140.904 48.5733 141.204 47.34 141.804 46.26C142.404 45.1667 143.237 44.32 144.304 43.72C145.384 43.1067 146.604 42.8 147.964 42.8C149.631 42.8 151.057 43.24 152.244 44.12C153.431 45 154.224 46.2 154.624 47.72H150.864C150.584 47.1333 150.184 46.6867 149.664 46.38C149.157 46.0733 148.577 45.92 147.924 45.92C146.871 45.92 146.017 46.2867 145.364 47.02C144.711 47.7533 144.384 48.7333 144.384 49.96C144.384 51.1867 144.711 52.1667 145.364 52.9C146.017 53.6333 146.871 54 147.924 54C148.577 54 149.157 53.8467 149.664 53.54C150.184 53.2333 150.584 52.7867 150.864 52.2H154.624C154.224 53.72 153.431 54.92 152.244 55.8C151.057 56.6667 149.631 57.1 147.964 57.1C146.604 57.1 145.384 56.8 144.304 56.2C143.237 55.5867 142.404 54.74 141.804 53.66C141.204 52.58 140.904 51.3467 140.904 49.96ZM163.359 57.14C162.039 57.14 160.825 56.8333 159.719 56.22C158.625 55.6067 157.752 54.7533 157.099 53.66C156.459 52.5533 156.139 51.3133 156.139 49.94C156.139 48.5667 156.459 47.3333 157.099 46.24C157.752 45.1467 158.625 44.2933 159.719 43.68C160.825 43.0667 162.039 42.76 163.359 42.76C164.679 42.76 165.885 43.0667 166.979 43.68C168.085 44.2933 168.952 45.1467 169.579 46.24C170.219 47.3333 170.539 48.5667 170.539 49.94C170.539 51.3133 170.219 52.5533 169.579 53.66C168.939 54.7533 168.072 55.6067 166.979 56.22C165.885 56.8333 164.679 57.14 163.359 57.14ZM163.359 54.02C164.479 54.02 165.372 53.6467 166.039 52.9C166.719 52.1533 167.059 51.1667 167.059 49.94C167.059 48.7 166.719 47.7133 166.039 46.98C165.372 46.2333 164.479 45.86 163.359 45.86C162.225 45.86 161.319 46.2267 160.639 46.96C159.972 47.6933 159.639 48.6867 159.639 49.94C159.639 51.18 159.972 52.1733 160.639 52.92C161.319 53.6533 162.225 54.02 163.359 54.02ZM185.621 42.96L180.641 57H176.361L171.381 42.96H175.021L178.501 53.56L182.001 42.96H185.621ZM190.471 45.7V48.54H195.051V51.18H190.471V54.26H195.651V57H187.051V42.96H195.651V45.7H190.471ZM205.031 57L202.111 51.7H201.291V57H197.871V42.96H203.611C204.718 42.96 205.658 43.1533 206.431 43.54C207.218 43.9267 207.804 44.46 208.191 45.14C208.578 45.8067 208.771 46.5533 208.771 47.38C208.771 48.3133 208.504 49.1467 207.971 49.88C207.451 50.6133 206.678 51.1333 205.651 51.44L208.891 57H205.031ZM201.291 49.28H203.411C204.038 49.28 204.504 49.1267 204.811 48.82C205.131 48.5133 205.291 48.08 205.291 47.52C205.291 46.9867 205.131 46.5667 204.811 46.26C204.504 45.9533 204.038 45.8 203.411 45.8H201.291V49.28ZM221.796 57.14C220.476 57.14 219.263 56.8333 218.156 56.22C217.063 55.6067 216.189 54.7533 215.536 53.66C214.896 52.5533 214.576 51.3133 214.576 49.94C214.576 48.5667 214.896 47.3333 215.536 46.24C216.189 45.1467 217.063 44.2933 218.156 43.68C219.263 43.0667 220.476 42.76 221.796 42.76C223.116 42.76 224.323 43.0667 225.416 43.68C226.523 44.2933 227.389 45.1467 228.016 46.24C228.656 47.3333 228.976 48.5667 228.976 49.94C228.976 51.3133 228.656 52.5533 228.016 53.66C227.376 54.7533 226.509 55.6067 225.416 56.22C224.323 56.8333 223.116 57.14 221.796 57.14ZM221.796 54.02C222.916 54.02 223.809 53.6467 224.476 52.9C225.156 52.1533 225.496 51.1667 225.496 49.94C225.496 48.7 225.156 47.7133 224.476 46.98C223.809 46.2333 222.916 45.86 221.796 45.86C220.663 45.86 219.756 46.2267 219.076 46.96C218.409 47.6933 218.076 48.6867 218.076 49.94C218.076 51.18 218.409 52.1733 219.076 52.92C219.756 53.6533 220.663 54.02 221.796 54.02ZM244.059 42.96L239.079 57H234.799L229.819 42.96H233.459L236.939 53.56L240.439 42.96H244.059ZM248.908 45.7V48.54H253.488V51.18H248.908V54.26H254.088V57H245.488V42.96H254.088V45.7H248.908ZM263.468 57L260.548 51.7H259.728V57H256.308V42.96H262.048C263.155 42.96 264.095 43.1533 264.868 43.54C265.655 43.9267 266.242 44.46 266.628 45.14C267.015 45.8067 267.208 46.5533 267.208 47.38C267.208 48.3133 266.942 49.1467 266.408 49.88C265.888 50.6133 265.115 51.1333 264.088 51.44L267.328 57H263.468ZM259.728 49.28H261.848C262.475 49.28 262.942 49.1267 263.248 48.82C263.568 48.5133 263.728 48.08 263.728 47.52C263.728 46.9867 263.568 46.5667 263.248 46.26C262.942 45.9533 262.475 45.8 261.848 45.8H259.728V49.28ZM278.674 57.14C277.647 57.14 276.727 56.9733 275.914 56.64C275.1 56.3067 274.447 55.8133 273.954 55.16C273.474 54.5067 273.22 53.72 273.194 52.8H276.834C276.887 53.32 277.067 53.72 277.374 54C277.68 54.2667 278.08 54.4 278.574 54.4C279.08 54.4 279.48 54.2867 279.774 54.06C280.067 53.82 280.214 53.4933 280.214 53.08C280.214 52.7333 280.094 52.4467 279.854 52.22C279.627 51.9933 279.34 51.8067 278.994 51.66C278.66 51.5133 278.18 51.3467 277.554 51.16C276.647 50.88 275.907 50.6 275.334 50.32C274.76 50.04 274.267 49.6267 273.854 49.08C273.44 48.5333 273.234 47.82 273.234 46.94C273.234 45.6333 273.707 44.6133 274.654 43.88C275.6 43.1333 276.834 42.76 278.354 42.76C279.9 42.76 281.147 43.1333 282.094 43.88C283.04 44.6133 283.547 45.64 283.614 46.96H279.914C279.887 46.5067 279.72 46.1533 279.414 45.9C279.107 45.6333 278.714 45.5 278.234 45.5C277.82 45.5 277.487 45.6133 277.234 45.84C276.98 46.0533 276.854 46.3667 276.854 46.78C276.854 47.2333 277.067 47.5867 277.494 47.84C277.92 48.0933 278.587 48.3667 279.494 48.66C280.4 48.9667 281.134 49.26 281.694 49.54C282.267 49.82 282.76 50.2267 283.174 50.76C283.587 51.2933 283.794 51.98 283.794 52.82C283.794 53.62 283.587 54.3467 283.174 55C282.774 55.6533 282.187 56.1733 281.414 56.56C280.64 56.9467 279.727 57.14 278.674 57.14ZM292.538 57.14C291.218 57.14 290.005 56.8333 288.898 56.22C287.805 55.6067 286.932 54.7533 286.278 53.66C285.638 52.5533 285.318 51.3133 285.318 49.94C285.318 48.5667 285.638 47.3333 286.278 46.24C286.932 45.1467 287.805 44.2933 288.898 43.68C290.005 43.0667 291.218 42.76 292.538 42.76C293.858 42.76 295.065 43.0667 296.158 43.68C297.265 44.2933 298.132 45.1467 298.758 46.24C299.398 47.3333 299.718 48.5667 299.718 49.94C299.718 51.3133 299.398 52.5533 298.758 53.66C298.118 54.7533 297.252 55.6067 296.158 56.22C295.065 56.8333 293.858 57.14 292.538 57.14ZM292.538 54.02C293.658 54.02 294.552 53.6467 295.218 52.9C295.898 52.1533 296.238 51.1667 296.238 49.94C296.238 48.7 295.898 47.7133 295.218 46.98C294.552 46.2333 293.658 45.86 292.538 45.86C291.405 45.86 290.498 46.2267 289.818 46.96C289.152 47.6933 288.818 48.6867 288.818 49.94C288.818 51.18 289.152 52.1733 289.818 52.92C290.498 53.6533 291.405 54.02 292.538 54.02ZM305.041 54.36H309.521V57H301.621V42.96H305.041V54.36ZM314.512 42.96V51.36C314.512 52.2 314.719 52.8467 315.132 53.3C315.545 53.7533 316.152 53.98 316.952 53.98C317.752 53.98 318.365 53.7533 318.792 53.3C319.219 52.8467 319.432 52.2 319.432 51.36V42.96H322.852V51.34C322.852 52.5933 322.585 53.6533 322.052 54.52C321.519 55.3867 320.799 56.04 319.892 56.48C318.999 56.92 317.999 57.14 316.892 57.14C315.785 57.14 314.792 56.9267 313.912 56.5C313.045 56.06 312.359 55.4067 311.852 54.54C311.345 53.66 311.092 52.5933 311.092 51.34V42.96H314.512ZM335.354 42.96V45.7H331.634V57H328.214V45.7H324.494V42.96H335.354ZM340.49 42.96V57H337.07V42.96H340.49ZM349.609 57.14C348.289 57.14 347.075 56.8333 345.969 56.22C344.875 55.6067 344.002 54.7533 343.349 53.66C342.709 52.5533 342.389 51.3133 342.389 49.94C342.389 48.5667 342.709 47.3333 343.349 46.24C344.002 45.1467 344.875 44.2933 345.969 43.68C347.075 43.0667 348.289 42.76 349.609 42.76C350.929 42.76 352.135 43.0667 353.229 43.68C354.335 44.2933 355.202 45.1467 355.829 46.24C356.469 47.3333 356.789 48.5667 356.789 49.94C356.789 51.3133 356.469 52.5533 355.829 53.66C355.189 54.7533 354.322 55.6067 353.229 56.22C352.135 56.8333 350.929 57.14 349.609 57.14ZM349.609 54.02C350.729 54.02 351.622 53.6467 352.289 52.9C352.969 52.1533 353.309 51.1667 353.309 49.94C353.309 48.7 352.969 47.7133 352.289 46.98C351.622 46.2333 350.729 45.86 349.609 45.86C348.475 45.86 347.569 46.2267 346.889 46.96C346.222 47.6933 345.889 48.6867 345.889 49.94C345.889 51.18 346.222 52.1733 346.889 52.92C347.569 53.6533 348.475 54.02 349.609 54.02ZM371.251 57H367.831L362.111 48.34V57H358.691V42.96H362.111L367.831 51.66V42.96H371.251V57Z" fill="#CBB8DB"/>
<path d="M72.4289 49.3675L37.9785 70.6451L36.7767 30.1714L72.4289 49.3675Z" fill="white"/>
</svg>
