<svg width="535" height="160" viewBox="0 0 535 160" fill="none" xmlns="http://www.w3.org/2000/svg">
<rect width="520" height="160" rx="30" fill="#31324C"/>
<path d="M35.456 45.92V50.464H42.784V54.688H35.456V59.616H43.744V64H29.984V41.536H43.744V45.92H35.456ZM55.4245 64.224C53.7818 64.224 52.3098 63.9573 51.0085 63.424C49.7072 62.8907 48.6618 62.1013 47.8725 61.056C47.1045 60.0107 46.6992 58.752 46.6565 57.28H52.4805C52.5658 58.112 52.8538 58.752 53.3445 59.2C53.8352 59.6267 54.4752 59.84 55.2645 59.84C56.0752 59.84 56.7152 59.6587 57.1845 59.296C57.6538 58.912 57.8885 58.3893 57.8885 57.728C57.8885 57.1733 57.6965 56.7147 57.3125 56.352C56.9498 55.9893 56.4912 55.6907 55.9365 55.456C55.4032 55.2213 54.6352 54.9547 53.6325 54.656C52.1818 54.208 50.9978 53.76 50.0805 53.312C49.1632 52.864 48.3738 52.2027 47.7125 51.328C47.0512 50.4533 46.7205 49.312 46.7205 47.904C46.7205 45.8133 47.4778 44.1813 48.9925 43.008C50.5072 41.8133 52.4805 41.216 54.9125 41.216C57.3872 41.216 59.3818 41.8133 60.8965 43.008C62.4112 44.1813 63.2218 45.824 63.3285 47.936H57.4085C57.3658 47.2107 57.0992 46.6453 56.6085 46.24C56.1178 45.8133 55.4885 45.6 54.7205 45.6C54.0592 45.6 53.5258 45.7813 53.1205 46.144C52.7152 46.4853 52.5125 46.9867 52.5125 47.648C52.5125 48.3733 52.8538 48.9387 53.5365 49.344C54.2192 49.7493 55.2858 50.1867 56.7365 50.656C58.1872 51.1467 59.3605 51.616 60.2565 52.064C61.1738 52.512 61.9632 53.1627 62.6245 54.016C63.2858 54.8693 63.6165 55.968 63.6165 57.312C63.6165 58.592 63.2858 59.7547 62.6245 60.8C61.9845 61.8453 61.0458 62.6773 59.8085 63.296C58.5712 63.9147 57.1098 64.224 55.4245 64.224ZM75.4 41.536C77.768 41.536 79.8373 42.0053 81.608 42.944C83.3787 43.8827 84.744 45.2053 85.704 46.912C86.6853 48.5973 87.176 50.5493 87.176 52.768C87.176 54.9653 86.6853 56.9173 85.704 58.624C84.744 60.3307 83.368 61.6533 81.576 62.592C79.8053 63.5307 77.7467 64 75.4 64H66.984V41.536H75.4ZM75.048 59.264C77.1173 59.264 78.728 58.6987 79.88 57.568C81.032 56.4373 81.608 54.8373 81.608 52.768C81.608 50.6987 81.032 49.088 79.88 47.936C78.728 46.784 77.1173 46.208 75.048 46.208H72.456V59.264H75.048ZM114.199 64L112.119 61.984C110.05 63.5627 107.575 64.352 104.695 64.352C102.967 64.352 101.463 64.0747 100.183 63.52C98.9033 62.944 97.9113 62.144 97.2073 61.12C96.5246 60.0747 96.1833 58.8587 96.1833 57.472C96.1833 56.064 96.5566 54.7947 97.3033 53.664C98.0713 52.512 99.2126 51.5733 100.727 50.848C100.173 50.1653 99.7779 49.5147 99.5433 48.896C99.3086 48.256 99.1913 47.5627 99.1913 46.816C99.1913 45.7493 99.4686 44.7787 100.023 43.904C100.578 43.0293 101.378 42.3467 102.423 41.856C103.49 41.344 104.749 41.088 106.199 41.088C107.671 41.088 108.919 41.3547 109.943 41.888C110.967 42.4213 111.735 43.136 112.247 44.032C112.759 44.928 112.994 45.9093 112.951 46.976H107.799C107.821 46.4 107.671 45.9627 107.351 45.664C107.053 45.344 106.647 45.184 106.135 45.184C105.623 45.184 105.197 45.3333 104.855 45.632C104.514 45.9307 104.343 46.3147 104.343 46.784C104.343 47.232 104.482 47.7013 104.759 48.192C105.058 48.6827 105.517 49.248 106.135 49.888L111.607 55.232C111.65 55.1253 111.703 54.9973 111.767 54.848C111.853 54.6987 111.938 54.528 112.023 54.336L113.207 52.32H118.679L117.143 55.104C116.567 56.3627 115.906 57.5573 115.159 58.688L120.567 64H114.199ZM104.951 59.936C106.381 59.936 107.65 59.5307 108.759 58.72L103.767 53.888C102.231 54.6773 101.463 55.744 101.463 57.088C101.463 57.8987 101.773 58.5813 102.391 59.136C103.031 59.6693 103.885 59.936 104.951 59.936ZM137.456 64.224C135.813 64.224 134.341 63.9573 133.04 63.424C131.738 62.8907 130.693 62.1013 129.904 61.056C129.136 60.0107 128.73 58.752 128.688 57.28H134.512C134.597 58.112 134.885 58.752 135.376 59.2C135.866 59.6267 136.506 59.84 137.296 59.84C138.106 59.84 138.746 59.6587 139.216 59.296C139.685 58.912 139.92 58.3893 139.92 57.728C139.92 57.1733 139.728 56.7147 139.344 56.352C138.981 55.9893 138.522 55.6907 137.968 55.456C137.434 55.2213 136.666 54.9547 135.664 54.656C134.213 54.208 133.029 53.76 132.112 53.312C131.194 52.864 130.405 52.2027 129.744 51.328C129.082 50.4533 128.752 49.312 128.752 47.904C128.752 45.8133 129.509 44.1813 131.024 43.008C132.538 41.8133 134.512 41.216 136.944 41.216C139.418 41.216 141.413 41.8133 142.928 43.008C144.442 44.1813 145.253 45.824 145.36 47.936H139.44C139.397 47.2107 139.13 46.6453 138.64 46.24C138.149 45.8133 137.52 45.6 136.752 45.6C136.09 45.6 135.557 45.7813 135.152 46.144C134.746 46.4853 134.544 46.9867 134.544 47.648C134.544 48.3733 134.885 48.9387 135.568 49.344C136.25 49.7493 137.317 50.1867 138.768 50.656C140.218 51.1467 141.392 51.616 142.288 52.064C143.205 52.512 143.994 53.1627 144.656 54.016C145.317 54.8693 145.648 55.968 145.648 57.312C145.648 58.592 145.317 59.7547 144.656 60.8C144.016 61.8453 143.077 62.6773 141.84 63.296C140.602 63.9147 139.141 64.224 137.456 64.224ZM157.431 41.536C159.799 41.536 161.869 42.0053 163.639 42.944C165.41 43.8827 166.775 45.2053 167.735 46.912C168.717 48.5973 169.207 50.5493 169.207 52.768C169.207 54.9653 168.717 56.9173 167.735 58.624C166.775 60.3307 165.399 61.6533 163.607 62.592C161.837 63.5307 159.778 64 157.431 64H149.015V41.536H157.431ZM157.079 59.264C159.149 59.264 160.759 58.6987 161.911 57.568C163.063 56.4373 163.639 54.8373 163.639 52.768C163.639 50.6987 163.063 49.088 161.911 47.936C160.759 46.784 159.149 46.208 157.079 46.208H154.487V59.264H157.079ZM187.177 48.64C186.772 47.8933 186.185 47.328 185.417 46.944C184.671 46.5387 183.785 46.336 182.761 46.336C180.991 46.336 179.572 46.9227 178.505 48.096C177.439 49.248 176.905 50.7947 176.905 52.736C176.905 54.8053 177.46 56.4267 178.569 57.6C179.7 58.752 181.247 59.328 183.209 59.328C184.553 59.328 185.684 58.9867 186.601 58.304C187.54 57.6213 188.223 56.64 188.649 55.36H181.705V51.328H193.609V56.416C193.204 57.7813 192.511 59.0507 191.529 60.224C190.569 61.3973 189.343 62.3467 187.849 63.072C186.356 63.7973 184.671 64.16 182.793 64.16C180.575 64.16 178.591 63.68 176.841 62.72C175.113 61.7387 173.759 60.384 172.777 58.656C171.817 56.928 171.337 54.9547 171.337 52.736C171.337 50.5173 171.817 48.544 172.777 46.816C173.759 45.0667 175.113 43.712 176.841 42.752C178.569 41.7707 180.543 41.28 182.761 41.28C185.449 41.28 187.711 41.9307 189.545 43.232C191.401 44.5333 192.628 46.336 193.225 48.64H187.177ZM208.894 41.536V64H203.422V41.536H208.894ZM232.955 64H227.483L218.331 50.144V64H212.859V41.536H218.331L227.483 55.456V41.536H232.955V64ZM245.05 64.224C243.407 64.224 241.935 63.9573 240.634 63.424C239.332 62.8907 238.287 62.1013 237.498 61.056C236.73 60.0107 236.324 58.752 236.282 57.28H242.106C242.191 58.112 242.479 58.752 242.97 59.2C243.46 59.6267 244.1 59.84 244.89 59.84C245.7 59.84 246.34 59.6587 246.81 59.296C247.279 58.912 247.514 58.3893 247.514 57.728C247.514 57.1733 247.322 56.7147 246.938 56.352C246.575 55.9893 246.116 55.6907 245.562 55.456C245.028 55.2213 244.26 54.9547 243.258 54.656C241.807 54.208 240.623 53.76 239.706 53.312C238.788 52.864 237.999 52.2027 237.338 51.328C236.676 50.4533 236.346 49.312 236.346 47.904C236.346 45.8133 237.103 44.1813 238.618 43.008C240.132 41.8133 242.106 41.216 244.538 41.216C247.012 41.216 249.007 41.8133 250.522 43.008C252.036 44.1813 252.847 45.824 252.954 47.936H247.034C246.991 47.2107 246.724 46.6453 246.234 46.24C245.743 45.8133 245.114 45.6 244.345 45.6C243.684 45.6 243.151 45.7813 242.746 46.144C242.34 46.4853 242.138 46.9867 242.138 47.648C242.138 48.3733 242.479 48.9387 243.161 49.344C243.844 49.7493 244.911 50.1867 246.362 50.656C247.812 51.1467 248.986 51.616 249.882 52.064C250.799 52.512 251.588 53.1627 252.25 54.016C252.911 54.8693 253.242 55.968 253.242 57.312C253.242 58.592 252.911 59.7547 252.25 60.8C251.61 61.8453 250.671 62.6773 249.434 63.296C248.196 63.9147 246.735 64.224 245.05 64.224ZM262.081 41.536V64H256.609V41.536H262.081ZM280.958 48.64C280.553 47.8933 279.967 47.328 279.199 46.944C278.452 46.5387 277.567 46.336 276.543 46.336C274.772 46.336 273.353 46.9227 272.286 48.096C271.22 49.248 270.687 50.7947 270.687 52.736C270.687 54.8053 271.241 56.4267 272.351 57.6C273.481 58.752 275.028 59.328 276.991 59.328C278.335 59.328 279.465 58.9867 280.383 58.304C281.321 57.6213 282.004 56.64 282.431 55.36H275.487V51.328H287.391V56.416C286.985 57.7813 286.292 59.0507 285.311 60.224C284.351 61.3973 283.124 62.3467 281.631 63.072C280.137 63.7973 278.452 64.16 276.575 64.16C274.356 64.16 272.372 63.68 270.623 62.72C268.895 61.7387 267.54 60.384 266.559 58.656C265.599 56.928 265.118 54.9547 265.118 52.736C265.118 50.5173 265.599 48.544 266.559 46.816C267.54 45.0667 268.895 43.712 270.623 42.752C272.351 41.7707 274.324 41.28 276.543 41.28C279.231 41.28 281.492 41.9307 283.327 43.232C285.183 44.5333 286.409 46.336 287.007 48.64H280.958ZM309.878 41.536V64H304.406V54.752H295.894V64H290.422V41.536H295.894V50.336H304.406V41.536H309.878ZM329.988 41.536V45.92H324.036V64H318.564V45.92H312.612V41.536H329.988ZM37.075 95.575C36.785 94.965 36.365 94.495 35.815 94.165C35.265 93.825 34.625 93.655 33.895 93.655C33.165 93.655 32.505 93.825 31.915 94.165C31.335 94.495 30.875 94.975 30.535 95.605C30.205 96.225 30.04 96.945 30.04 97.765C30.04 98.585 30.205 99.305 30.535 99.925C30.875 100.545 31.335 101.025 31.915 101.365C32.505 101.695 33.165 101.86 33.895 101.86C34.915 101.86 35.755 101.555 36.415 100.945C37.075 100.335 37.46 99.51 37.57 98.47H33.4V97.36H39.025V98.41C38.945 99.27 38.675 100.06 38.215 100.78C37.755 101.49 37.15 102.055 36.4 102.475C35.65 102.885 34.815 103.09 33.895 103.09C32.925 103.09 32.04 102.865 31.24 102.415C30.44 101.955 29.805 101.32 29.335 100.51C28.875 99.7 28.645 98.785 28.645 97.765C28.645 96.745 28.875 95.83 29.335 95.02C29.805 94.2 30.44 93.565 31.24 93.115C32.04 92.655 32.925 92.425 33.895 92.425C35.005 92.425 35.985 92.7 36.835 93.25C37.695 93.8 38.32 94.575 38.71 95.575H37.075ZM48.3298 98.575C48.3298 98.835 48.3148 99.11 48.2848 99.4H41.7148C41.7648 100.21 42.0398 100.845 42.5398 101.305C43.0498 101.755 43.6648 101.98 44.3848 101.98C44.9748 101.98 45.4648 101.845 45.8548 101.575C46.2548 101.295 46.5348 100.925 46.6948 100.465H48.1648C47.9448 101.255 47.5048 101.9 46.8448 102.4C46.1848 102.89 45.3648 103.135 44.3848 103.135C43.6048 103.135 42.9048 102.96 42.2848 102.61C41.6748 102.26 41.1948 101.765 40.8448 101.125C40.4948 100.475 40.3198 99.725 40.3198 98.875C40.3198 98.025 40.4898 97.28 40.8298 96.64C41.1698 96 41.6448 95.51 42.2548 95.17C42.8748 94.82 43.5848 94.645 44.3848 94.645C45.1648 94.645 45.8548 94.815 46.4548 95.155C47.0548 95.495 47.5148 95.965 47.8348 96.565C48.1648 97.155 48.3298 97.825 48.3298 98.575ZM46.9198 98.29C46.9198 97.77 46.8048 97.325 46.5748 96.955C46.3448 96.575 46.0298 96.29 45.6298 96.1C45.2398 95.9 44.8048 95.8 44.3248 95.8C43.6348 95.8 43.0448 96.02 42.5548 96.46C42.0748 96.9 41.7998 97.51 41.7298 98.29H46.9198ZM51.7966 95.905V100.75C51.7966 101.15 51.8816 101.435 52.0516 101.605C52.2216 101.765 52.5166 101.845 52.9366 101.845H53.9416V103H52.7116C51.9516 103 51.3816 102.825 51.0016 102.475C50.6216 102.125 50.4316 101.55 50.4316 100.75V95.905H49.3666V94.78H50.4316V92.71H51.7966V94.78H53.9416V95.905H51.7966ZM60.9595 93.655V97.15H64.7695V98.275H60.9595V101.875H65.2195V103H59.5945V92.53H65.2195V93.655H60.9595ZM70.5999 103.105C69.9099 103.105 69.2899 102.985 68.7399 102.745C68.1999 102.495 67.7749 102.155 67.4649 101.725C67.1549 101.285 66.9949 100.78 66.9849 100.21H68.4399C68.4899 100.7 68.6899 101.115 69.0399 101.455C69.3999 101.785 69.9199 101.95 70.5999 101.95C71.2499 101.95 71.7599 101.79 72.1299 101.47C72.5099 101.14 72.6999 100.72 72.6999 100.21C72.6999 99.81 72.5899 99.485 72.3699 99.235C72.1499 98.985 71.8749 98.795 71.5449 98.665C71.2149 98.535 70.7699 98.395 70.2099 98.245C69.5199 98.065 68.9649 97.885 68.5449 97.705C68.1349 97.525 67.7799 97.245 67.4799 96.865C67.1899 96.475 67.0449 95.955 67.0449 95.305C67.0449 94.735 67.1899 94.23 67.4799 93.79C67.7699 93.35 68.1749 93.01 68.6949 92.77C69.2249 92.53 69.8299 92.41 70.5099 92.41C71.4899 92.41 72.2899 92.655 72.9099 93.145C73.5399 93.635 73.8949 94.285 73.9749 95.095H72.4749C72.4249 94.695 72.2149 94.345 71.8449 94.045C71.4749 93.735 70.9849 93.58 70.3749 93.58C69.8049 93.58 69.3399 93.73 68.9799 94.03C68.6199 94.32 68.4399 94.73 68.4399 95.26C68.4399 95.64 68.5449 95.95 68.7549 96.19C68.9749 96.43 69.2399 96.615 69.5499 96.745C69.8699 96.865 70.3149 97.005 70.8849 97.165C71.5749 97.355 72.1299 97.545 72.5499 97.735C72.9699 97.915 73.3299 98.2 73.6299 98.59C73.9299 98.97 74.0799 99.49 74.0799 100.15C74.0799 100.66 73.9449 101.14 73.6749 101.59C73.4049 102.04 73.0049 102.405 72.4749 102.685C71.9449 102.965 71.3199 103.105 70.5999 103.105ZM84.0086 95.575C83.7186 94.965 83.2986 94.495 82.7486 94.165C82.1986 93.825 81.5586 93.655 80.8286 93.655C80.0986 93.655 79.4386 93.825 78.8486 94.165C78.2686 94.495 77.8086 94.975 77.4686 95.605C77.1386 96.225 76.9736 96.945 76.9736 97.765C76.9736 98.585 77.1386 99.305 77.4686 99.925C77.8086 100.545 78.2686 101.025 78.8486 101.365C79.4386 101.695 80.0986 101.86 80.8286 101.86C81.8486 101.86 82.6886 101.555 83.3486 100.945C84.0086 100.335 84.3936 99.51 84.5036 98.47H80.3336V97.36H85.9586V98.41C85.8786 99.27 85.6086 100.06 85.1486 100.78C84.6886 101.49 84.0836 102.055 83.3336 102.475C82.5836 102.885 81.7486 103.09 80.8286 103.09C79.8586 103.09 78.9736 102.865 78.1736 102.415C77.3736 101.955 76.7386 101.32 76.2686 100.51C75.8086 99.7 75.5786 98.785 75.5786 97.765C75.5786 96.745 75.8086 95.83 76.2686 95.02C76.7386 94.2 77.3736 93.565 78.1736 93.115C78.9736 92.655 79.8586 92.425 80.8286 92.425C81.9386 92.425 82.9186 92.7 83.7686 93.25C84.6286 93.8 85.2536 94.575 85.6436 95.575H84.0086ZM97.9424 100.675H93.3824L92.5424 103H91.1024L94.8824 92.605H96.4574L100.222 103H98.7824L97.9424 100.675ZM97.5524 99.565L95.6624 94.285L93.7724 99.565H97.5524ZM105.875 94.63C106.875 94.63 107.685 94.935 108.305 95.545C108.925 96.145 109.235 97.015 109.235 98.155V103H107.885V98.35C107.885 97.53 107.68 96.905 107.27 96.475C106.86 96.035 106.3 95.815 105.59 95.815C104.87 95.815 104.295 96.04 103.865 96.49C103.445 96.94 103.235 97.595 103.235 98.455V103H101.87V94.78H103.235V95.95C103.505 95.53 103.87 95.205 104.33 94.975C104.8 94.745 105.315 94.63 105.875 94.63ZM110.955 98.86C110.955 98.02 111.125 97.285 111.465 96.655C111.805 96.015 112.27 95.52 112.86 95.17C113.46 94.82 114.13 94.645 114.87 94.645C115.51 94.645 116.105 94.795 116.655 95.095C117.205 95.385 117.625 95.77 117.915 96.25V91.9H119.295V103H117.915V101.455C117.645 101.945 117.245 102.35 116.715 102.67C116.185 102.98 115.565 103.135 114.855 103.135C114.125 103.135 113.46 102.955 112.86 102.595C112.27 102.235 111.805 101.73 111.465 101.08C111.125 100.43 110.955 99.69 110.955 98.86ZM117.915 98.875C117.915 98.255 117.79 97.715 117.54 97.255C117.29 96.795 116.95 96.445 116.52 96.205C116.1 95.955 115.635 95.83 115.125 95.83C114.615 95.83 114.15 95.95 113.73 96.19C113.31 96.43 112.975 96.78 112.725 97.24C112.475 97.7 112.35 98.24 112.35 98.86C112.35 99.49 112.475 100.04 112.725 100.51C112.975 100.97 113.31 101.325 113.73 101.575C114.15 101.815 114.615 101.935 115.125 101.935C115.635 101.935 116.1 101.815 116.52 101.575C116.95 101.325 117.29 100.97 117.54 100.51C117.79 100.04 117.915 99.495 117.915 98.875ZM128.915 103.105C128.225 103.105 127.605 102.985 127.055 102.745C126.515 102.495 126.09 102.155 125.78 101.725C125.47 101.285 125.31 100.78 125.3 100.21H126.755C126.805 100.7 127.005 101.115 127.355 101.455C127.715 101.785 128.235 101.95 128.915 101.95C129.565 101.95 130.075 101.79 130.445 101.47C130.825 101.14 131.015 100.72 131.015 100.21C131.015 99.81 130.905 99.485 130.685 99.235C130.465 98.985 130.19 98.795 129.86 98.665C129.53 98.535 129.085 98.395 128.525 98.245C127.835 98.065 127.28 97.885 126.86 97.705C126.45 97.525 126.095 97.245 125.795 96.865C125.505 96.475 125.36 95.955 125.36 95.305C125.36 94.735 125.505 94.23 125.795 93.79C126.085 93.35 126.49 93.01 127.01 92.77C127.54 92.53 128.145 92.41 128.825 92.41C129.805 92.41 130.605 92.655 131.225 93.145C131.855 93.635 132.21 94.285 132.29 95.095H130.79C130.74 94.695 130.53 94.345 130.16 94.045C129.79 93.735 129.3 93.58 128.69 93.58C128.12 93.58 127.655 93.73 127.295 94.03C126.935 94.32 126.755 94.73 126.755 95.26C126.755 95.64 126.86 95.95 127.07 96.19C127.29 96.43 127.555 96.615 127.865 96.745C128.185 96.865 128.63 97.005 129.2 97.165C129.89 97.355 130.445 97.545 130.865 97.735C131.285 97.915 131.645 98.2 131.945 98.59C132.245 98.97 132.395 99.49 132.395 100.15C132.395 100.66 132.26 101.14 131.99 101.59C131.72 102.04 131.32 102.405 130.79 102.685C130.26 102.965 129.635 103.105 128.915 103.105ZM137.659 92.545C138.799 92.545 139.784 92.76 140.614 93.19C141.454 93.61 142.094 94.215 142.534 95.005C142.984 95.795 143.209 96.725 143.209 97.795C143.209 98.865 142.984 99.795 142.534 100.585C142.094 101.365 141.454 101.965 140.614 102.385C139.784 102.795 138.799 103 137.659 103H134.404V92.545H137.659ZM137.659 101.875C139.009 101.875 140.039 101.52 140.749 100.81C141.459 100.09 141.814 99.085 141.814 97.795C141.814 96.495 141.454 95.48 140.734 94.75C140.024 94.02 138.999 93.655 137.659 93.655H135.769V101.875H137.659ZM152.929 95.575C152.639 94.965 152.219 94.495 151.669 94.165C151.119 93.825 150.479 93.655 149.749 93.655C149.019 93.655 148.359 93.825 147.769 94.165C147.189 94.495 146.729 94.975 146.389 95.605C146.059 96.225 145.894 96.945 145.894 97.765C145.894 98.585 146.059 99.305 146.389 99.925C146.729 100.545 147.189 101.025 147.769 101.365C148.359 101.695 149.019 101.86 149.749 101.86C150.769 101.86 151.609 101.555 152.269 100.945C152.929 100.335 153.314 99.51 153.424 98.47H149.254V97.36H154.879V98.41C154.799 99.27 154.529 100.06 154.069 100.78C153.609 101.49 153.004 102.055 152.254 102.475C151.504 102.885 150.669 103.09 149.749 103.09C148.779 103.09 147.894 102.865 147.094 102.415C146.294 101.955 145.659 101.32 145.189 100.51C144.729 99.7 144.499 98.785 144.499 97.765C144.499 96.745 144.729 95.83 145.189 95.02C145.659 94.2 146.294 93.565 147.094 93.115C147.894 92.655 148.779 92.425 149.749 92.425C150.859 92.425 151.839 92.7 152.689 93.25C153.549 93.8 154.174 94.575 154.564 95.575H152.929ZM167.118 92.545V93.655H164.268V103H162.903V93.655H160.038V92.545H167.118ZM170.164 96.115C170.404 95.645 170.744 95.28 171.184 95.02C171.634 94.76 172.179 94.63 172.819 94.63V96.04H172.459C170.929 96.04 170.164 96.87 170.164 98.53V103H168.799V94.78H170.164V96.115ZM173.884 98.86C173.884 98.02 174.054 97.285 174.394 96.655C174.734 96.015 175.199 95.52 175.789 95.17C176.389 94.82 177.054 94.645 177.784 94.645C178.504 94.645 179.129 94.8 179.659 95.11C180.189 95.42 180.584 95.81 180.844 96.28V94.78H182.224V103H180.844V101.47C180.574 101.95 180.169 102.35 179.629 102.67C179.099 102.98 178.479 103.135 177.769 103.135C177.039 103.135 176.379 102.955 175.789 102.595C175.199 102.235 174.734 101.73 174.394 101.08C174.054 100.43 173.884 99.69 173.884 98.86ZM180.844 98.875C180.844 98.255 180.719 97.715 180.469 97.255C180.219 96.795 179.879 96.445 179.449 96.205C179.029 95.955 178.564 95.83 178.054 95.83C177.544 95.83 177.079 95.95 176.659 96.19C176.239 96.43 175.904 96.78 175.654 97.24C175.404 97.7 175.279 98.24 175.279 98.86C175.279 99.49 175.404 100.04 175.654 100.51C175.904 100.97 176.239 101.325 176.659 101.575C177.079 101.815 177.544 101.935 178.054 101.935C178.564 101.935 179.029 101.815 179.449 101.575C179.879 101.325 180.219 100.97 180.469 100.51C180.719 100.04 180.844 99.495 180.844 98.875ZM188.536 94.63C189.536 94.63 190.346 94.935 190.966 95.545C191.586 96.145 191.896 97.015 191.896 98.155V103H190.546V98.35C190.546 97.53 190.341 96.905 189.931 96.475C189.521 96.035 188.961 95.815 188.251 95.815C187.531 95.815 186.956 96.04 186.526 96.49C186.106 96.94 185.896 97.595 185.896 98.455V103H184.531V94.78H185.896V95.95C186.166 95.53 186.531 95.205 186.991 94.975C187.461 94.745 187.976 94.63 188.536 94.63ZM197.036 103.135C196.406 103.135 195.841 103.03 195.341 102.82C194.841 102.6 194.446 102.3 194.156 101.92C193.866 101.53 193.706 101.085 193.676 100.585H195.086C195.126 100.995 195.316 101.33 195.656 101.59C196.006 101.85 196.461 101.98 197.021 101.98C197.541 101.98 197.951 101.865 198.251 101.635C198.551 101.405 198.701 101.115 198.701 100.765C198.701 100.405 198.541 100.14 198.221 99.97C197.901 99.79 197.406 99.615 196.736 99.445C196.126 99.285 195.626 99.125 195.236 98.965C194.856 98.795 194.526 98.55 194.246 98.23C193.976 97.9 193.841 97.47 193.841 96.94C193.841 96.52 193.966 96.135 194.216 95.785C194.466 95.435 194.821 95.16 195.281 94.96C195.741 94.75 196.266 94.645 196.856 94.645C197.766 94.645 198.501 94.875 199.061 95.335C199.621 95.795 199.921 96.425 199.961 97.225H198.596C198.566 96.795 198.391 96.45 198.071 96.19C197.761 95.93 197.341 95.8 196.811 95.8C196.321 95.8 195.931 95.905 195.641 96.115C195.351 96.325 195.206 96.6 195.206 96.94C195.206 97.21 195.291 97.435 195.461 97.615C195.641 97.785 195.861 97.925 196.121 98.035C196.391 98.135 196.761 98.25 197.231 98.38C197.821 98.54 198.301 98.7 198.671 98.86C199.041 99.01 199.356 99.24 199.616 99.55C199.886 99.86 200.026 100.265 200.036 100.765C200.036 101.215 199.911 101.62 199.661 101.98C199.411 102.34 199.056 102.625 198.596 102.835C198.146 103.035 197.626 103.135 197.036 103.135ZM203.328 96.295C203.598 95.825 203.998 95.435 204.528 95.125C205.068 94.805 205.693 94.645 206.403 94.645C207.133 94.645 207.793 94.82 208.383 95.17C208.983 95.52 209.453 96.015 209.793 96.655C210.133 97.285 210.303 98.02 210.303 98.86C210.303 99.69 210.133 100.43 209.793 101.08C209.453 101.73 208.983 102.235 208.383 102.595C207.793 102.955 207.133 103.135 206.403 103.135C205.703 103.135 205.083 102.98 204.543 102.67C204.013 102.35 203.608 101.955 203.328 101.485V106.9H201.963V94.78H203.328V96.295ZM208.908 98.86C208.908 98.24 208.783 97.7 208.533 97.24C208.283 96.78 207.943 96.43 207.513 96.19C207.093 95.95 206.628 95.83 206.118 95.83C205.618 95.83 205.153 95.955 204.723 96.205C204.303 96.445 203.963 96.8 203.703 97.27C203.453 97.73 203.328 98.265 203.328 98.875C203.328 99.495 203.453 100.04 203.703 100.51C203.963 100.97 204.303 101.325 204.723 101.575C205.153 101.815 205.618 101.935 206.118 101.935C206.628 101.935 207.093 101.815 207.513 101.575C207.943 101.325 208.283 100.97 208.533 100.51C208.783 100.04 208.908 99.49 208.908 98.86ZM211.589 98.86C211.589 98.02 211.759 97.285 212.099 96.655C212.439 96.015 212.904 95.52 213.494 95.17C214.094 94.82 214.759 94.645 215.489 94.645C216.209 94.645 216.834 94.8 217.364 95.11C217.894 95.42 218.289 95.81 218.549 96.28V94.78H219.929V103H218.549V101.47C218.279 101.95 217.874 102.35 217.334 102.67C216.804 102.98 216.184 103.135 215.474 103.135C214.744 103.135 214.084 102.955 213.494 102.595C212.904 102.235 212.439 101.73 212.099 101.08C211.759 100.43 211.589 99.69 211.589 98.86ZM218.549 98.875C218.549 98.255 218.424 97.715 218.174 97.255C217.924 96.795 217.584 96.445 217.154 96.205C216.734 95.955 216.269 95.83 215.759 95.83C215.249 95.83 214.784 95.95 214.364 96.19C213.944 96.43 213.609 96.78 213.359 97.24C213.109 97.7 212.984 98.24 212.984 98.86C212.984 99.49 213.109 100.04 213.359 100.51C213.609 100.97 213.944 101.325 214.364 101.575C214.784 101.815 215.249 101.935 215.759 101.935C216.269 101.935 216.734 101.815 217.154 101.575C217.584 101.325 217.924 100.97 218.174 100.51C218.424 100.04 218.549 99.495 218.549 98.875ZM223.601 96.115C223.841 95.645 224.181 95.28 224.621 95.02C225.071 94.76 225.616 94.63 226.256 94.63V96.04H225.896C224.366 96.04 223.601 96.87 223.601 98.53V103H222.236V94.78H223.601V96.115ZM235.332 98.575C235.332 98.835 235.317 99.11 235.287 99.4H228.717C228.767 100.21 229.042 100.845 229.542 101.305C230.052 101.755 230.667 101.98 231.387 101.98C231.977 101.98 232.467 101.845 232.857 101.575C233.257 101.295 233.537 100.925 233.697 100.465H235.167C234.947 101.255 234.507 101.9 233.847 102.4C233.187 102.89 232.367 103.135 231.387 103.135C230.607 103.135 229.907 102.96 229.287 102.61C228.677 102.26 228.197 101.765 227.847 101.125C227.497 100.475 227.322 99.725 227.322 98.875C227.322 98.025 227.492 97.28 227.832 96.64C228.172 96 228.647 95.51 229.257 95.17C229.877 94.82 230.587 94.645 231.387 94.645C232.167 94.645 232.857 94.815 233.457 95.155C234.057 95.495 234.517 95.965 234.837 96.565C235.167 97.155 235.332 97.825 235.332 98.575ZM233.922 98.29C233.922 97.77 233.807 97.325 233.577 96.955C233.347 96.575 233.032 96.29 232.632 96.1C232.242 95.9 231.807 95.8 231.327 95.8C230.637 95.8 230.047 96.02 229.557 96.46C229.077 96.9 228.802 97.51 228.732 98.29H233.922ZM241.139 94.63C242.139 94.63 242.949 94.935 243.569 95.545C244.189 96.145 244.499 97.015 244.499 98.155V103H243.149V98.35C243.149 97.53 242.944 96.905 242.534 96.475C242.124 96.035 241.564 95.815 240.854 95.815C240.134 95.815 239.559 96.04 239.129 96.49C238.709 96.94 238.499 97.595 238.499 98.455V103H237.134V94.78H238.499V95.95C238.769 95.53 239.134 95.205 239.594 94.975C240.064 94.745 240.579 94.63 241.139 94.63ZM248.393 95.905V100.75C248.393 101.15 248.478 101.435 248.648 101.605C248.818 101.765 249.113 101.845 249.533 101.845H250.538V103H249.308C248.548 103 247.978 102.825 247.598 102.475C247.218 102.125 247.028 101.55 247.028 100.75V95.905H245.963V94.78H247.028V92.71H248.393V94.78H250.538V95.905H248.393ZM252.627 103.09C252.367 103.09 252.147 103 251.967 102.82C251.787 102.64 251.697 102.42 251.697 102.16C251.697 101.9 251.787 101.68 251.967 101.5C252.147 101.32 252.367 101.23 252.627 101.23C252.877 101.23 253.087 101.32 253.257 101.5C253.437 101.68 253.527 101.9 253.527 102.16C253.527 102.42 253.437 102.64 253.257 102.82C253.087 103 252.877 103.09 252.627 103.09ZM264.846 103L262.356 98.725H260.706V103H259.341V92.545H262.716C263.506 92.545 264.171 92.68 264.711 92.95C265.261 93.22 265.671 93.585 265.941 94.045C266.211 94.505 266.346 95.03 266.346 95.62C266.346 96.34 266.136 96.975 265.716 97.525C265.306 98.075 264.686 98.44 263.856 98.62L266.481 103H264.846ZM260.706 97.63H262.716C263.456 97.63 264.011 97.45 264.381 97.09C264.751 96.72 264.936 96.23 264.936 95.62C264.936 95 264.751 94.52 264.381 94.18C264.021 93.84 263.466 93.67 262.716 93.67H260.706V97.63ZM275.967 98.575C275.967 98.835 275.952 99.11 275.922 99.4H269.352C269.402 100.21 269.677 100.845 270.177 101.305C270.687 101.755 271.302 101.98 272.022 101.98C272.612 101.98 273.102 101.845 273.492 101.575C273.892 101.295 274.172 100.925 274.332 100.465H275.802C275.582 101.255 275.142 101.9 274.482 102.4C273.822 102.89 273.002 103.135 272.022 103.135C271.242 103.135 270.542 102.96 269.922 102.61C269.312 102.26 268.832 101.765 268.482 101.125C268.132 100.475 267.957 99.725 267.957 98.875C267.957 98.025 268.127 97.28 268.467 96.64C268.807 96 269.282 95.51 269.892 95.17C270.512 94.82 271.222 94.645 272.022 94.645C272.802 94.645 273.492 94.815 274.092 95.155C274.692 95.495 275.152 95.965 275.472 96.565C275.802 97.155 275.967 97.825 275.967 98.575ZM274.557 98.29C274.557 97.77 274.442 97.325 274.212 96.955C273.982 96.575 273.667 96.29 273.267 96.1C272.877 95.9 272.442 95.8 271.962 95.8C271.272 95.8 270.682 96.02 270.192 96.46C269.712 96.9 269.437 97.51 269.367 98.29H274.557ZM277.258 98.86C277.258 98.02 277.428 97.285 277.768 96.655C278.108 96.015 278.573 95.52 279.163 95.17C279.763 94.82 280.428 94.645 281.158 94.645C281.878 94.645 282.503 94.8 283.033 95.11C283.563 95.42 283.958 95.81 284.218 96.28V94.78H285.598V103H284.218V101.47C283.948 101.95 283.543 102.35 283.003 102.67C282.473 102.98 281.853 103.135 281.143 103.135C280.413 103.135 279.753 102.955 279.163 102.595C278.573 102.235 278.108 101.73 277.768 101.08C277.428 100.43 277.258 99.69 277.258 98.86ZM284.218 98.875C284.218 98.255 284.093 97.715 283.843 97.255C283.593 96.795 283.253 96.445 282.823 96.205C282.403 95.955 281.938 95.83 281.428 95.83C280.918 95.83 280.453 95.95 280.033 96.19C279.613 96.43 279.278 96.78 279.028 97.24C278.778 97.7 278.653 98.24 278.653 98.86C278.653 99.49 278.778 100.04 279.028 100.51C279.278 100.97 279.613 101.325 280.033 101.575C280.453 101.815 280.918 101.935 281.428 101.935C281.938 101.935 282.403 101.815 282.823 101.575C283.253 101.325 283.593 100.97 283.843 100.51C284.093 100.04 284.218 99.495 284.218 98.875ZM289.27 91.9V103H287.905V91.9H289.27ZM297.296 96.925V98.08H291.311V96.925H297.296ZM306.293 92.545V93.655H303.443V103H302.078V93.655H299.213V92.545H306.293ZM308.678 93.445C308.418 93.445 308.198 93.355 308.018 93.175C307.838 92.995 307.748 92.775 307.748 92.515C307.748 92.255 307.838 92.035 308.018 91.855C308.198 91.675 308.418 91.585 308.678 91.585C308.928 91.585 309.138 91.675 309.308 91.855C309.488 92.035 309.578 92.255 309.578 92.515C309.578 92.775 309.488 92.995 309.308 93.175C309.138 93.355 308.928 93.445 308.678 93.445ZM309.338 94.78V103H307.973V94.78H309.338ZM321.55 94.63C322.19 94.63 322.76 94.765 323.26 95.035C323.76 95.295 324.155 95.69 324.445 96.22C324.735 96.75 324.88 97.395 324.88 98.155V103H323.53V98.35C323.53 97.53 323.325 96.905 322.915 96.475C322.515 96.035 321.97 95.815 321.28 95.815C320.57 95.815 320.005 96.045 319.585 96.505C319.165 96.955 318.955 97.61 318.955 98.47V103H317.605V98.35C317.605 97.53 317.4 96.905 316.99 96.475C316.59 96.035 316.045 95.815 315.355 95.815C314.645 95.815 314.08 96.045 313.66 96.505C313.24 96.955 313.03 97.61 313.03 98.47V103H311.665V94.78H313.03V95.965C313.3 95.535 313.66 95.205 314.11 94.975C314.57 94.745 315.075 94.63 315.625 94.63C316.315 94.63 316.925 94.785 317.455 95.095C317.985 95.405 318.38 95.86 318.64 96.46C318.87 95.88 319.25 95.43 319.78 95.11C320.31 94.79 320.9 94.63 321.55 94.63ZM334.619 98.575C334.619 98.835 334.604 99.11 334.574 99.4H328.004C328.054 100.21 328.329 100.845 328.829 101.305C329.339 101.755 329.954 101.98 330.674 101.98C331.264 101.98 331.754 101.845 332.144 101.575C332.544 101.295 332.824 100.925 332.984 100.465H334.454C334.234 101.255 333.794 101.9 333.134 102.4C332.474 102.89 331.654 103.135 330.674 103.135C329.894 103.135 329.194 102.96 328.574 102.61C327.964 102.26 327.484 101.765 327.134 101.125C326.784 100.475 326.609 99.725 326.609 98.875C326.609 98.025 326.779 97.28 327.119 96.64C327.459 96 327.934 95.51 328.544 95.17C329.164 94.82 329.874 94.645 330.674 94.645C331.454 94.645 332.144 94.815 332.744 95.155C333.344 95.495 333.804 95.965 334.124 96.565C334.454 97.155 334.619 97.825 334.619 98.575ZM333.209 98.29C333.209 97.77 333.094 97.325 332.864 96.955C332.634 96.575 332.319 96.29 331.919 96.1C331.529 95.9 331.094 95.8 330.614 95.8C329.924 95.8 329.334 96.02 328.844 96.46C328.364 96.9 328.089 97.51 328.019 98.29H333.209ZM341.785 92.545V103H340.42V92.545H341.785ZM348.116 94.63C349.116 94.63 349.926 94.935 350.546 95.545C351.166 96.145 351.476 97.015 351.476 98.155V103H350.126V98.35C350.126 97.53 349.921 96.905 349.511 96.475C349.101 96.035 348.541 95.815 347.831 95.815C347.111 95.815 346.536 96.04 346.106 96.49C345.686 96.94 345.476 97.595 345.476 98.455V103H344.111V94.78H345.476V95.95C345.746 95.53 346.111 95.205 346.571 94.975C347.041 94.745 347.556 94.63 348.116 94.63ZM356.616 103.135C355.986 103.135 355.421 103.03 354.921 102.82C354.421 102.6 354.026 102.3 353.736 101.92C353.446 101.53 353.286 101.085 353.256 100.585H354.666C354.706 100.995 354.896 101.33 355.236 101.59C355.586 101.85 356.041 101.98 356.601 101.98C357.121 101.98 357.531 101.865 357.831 101.635C358.131 101.405 358.281 101.115 358.281 100.765C358.281 100.405 358.121 100.14 357.801 99.97C357.481 99.79 356.986 99.615 356.316 99.445C355.706 99.285 355.206 99.125 354.816 98.965C354.436 98.795 354.106 98.55 353.826 98.23C353.556 97.9 353.421 97.47 353.421 96.94C353.421 96.52 353.546 96.135 353.796 95.785C354.046 95.435 354.401 95.16 354.861 94.96C355.321 94.75 355.846 94.645 356.436 94.645C357.346 94.645 358.081 94.875 358.641 95.335C359.201 95.795 359.501 96.425 359.541 97.225H358.176C358.146 96.795 357.971 96.45 357.651 96.19C357.341 95.93 356.921 95.8 356.391 95.8C355.901 95.8 355.511 95.905 355.221 96.115C354.931 96.325 354.786 96.6 354.786 96.94C354.786 97.21 354.871 97.435 355.041 97.615C355.221 97.785 355.441 97.925 355.701 98.035C355.971 98.135 356.341 98.25 356.811 98.38C357.401 98.54 357.881 98.7 358.251 98.86C358.621 99.01 358.936 99.24 359.196 99.55C359.466 99.86 359.606 100.265 359.616 100.765C359.616 101.215 359.491 101.62 359.241 101.98C358.991 102.34 358.636 102.625 358.176 102.835C357.726 103.035 357.206 103.135 356.616 103.135ZM362.248 93.445C361.988 93.445 361.768 93.355 361.588 93.175C361.408 92.995 361.318 92.775 361.318 92.515C361.318 92.255 361.408 92.035 361.588 91.855C361.768 91.675 361.988 91.585 362.248 91.585C362.498 91.585 362.708 91.675 362.878 91.855C363.058 92.035 363.148 92.255 363.148 92.515C363.148 92.775 363.058 92.995 362.878 93.175C362.708 93.355 362.498 93.445 362.248 93.445ZM362.908 94.78V103H361.543V94.78H362.908ZM368.624 94.645C369.334 94.645 369.954 94.8 370.484 95.11C371.024 95.42 371.424 95.81 371.684 96.28V94.78H373.064V103.18C373.064 103.93 372.904 104.595 372.584 105.175C372.264 105.765 371.804 106.225 371.204 106.555C370.614 106.885 369.924 107.05 369.134 107.05C368.054 107.05 367.154 106.795 366.434 106.285C365.714 105.775 365.289 105.08 365.159 104.2H366.509C366.659 104.7 366.969 105.1 367.439 105.4C367.909 105.71 368.474 105.865 369.134 105.865C369.884 105.865 370.494 105.63 370.964 105.16C371.444 104.69 371.684 104.03 371.684 103.18V101.455C371.414 101.935 371.014 102.335 370.484 102.655C369.954 102.975 369.334 103.135 368.624 103.135C367.894 103.135 367.229 102.955 366.629 102.595C366.039 102.235 365.574 101.73 365.234 101.08C364.894 100.43 364.724 99.69 364.724 98.86C364.724 98.02 364.894 97.285 365.234 96.655C365.574 96.015 366.039 95.52 366.629 95.17C367.229 94.82 367.894 94.645 368.624 94.645ZM371.684 98.875C371.684 98.255 371.559 97.715 371.309 97.255C371.059 96.795 370.719 96.445 370.289 96.205C369.869 95.955 369.404 95.83 368.894 95.83C368.384 95.83 367.919 95.95 367.499 96.19C367.079 96.43 366.744 96.78 366.494 97.24C366.244 97.7 366.119 98.24 366.119 98.86C366.119 99.49 366.244 100.04 366.494 100.51C366.744 100.97 367.079 101.325 367.499 101.575C367.919 101.815 368.384 101.935 368.894 101.935C369.404 101.935 369.869 101.815 370.289 101.575C370.719 101.325 371.059 100.97 371.309 100.51C371.559 100.04 371.684 99.495 371.684 98.875ZM379.451 94.63C380.071 94.63 380.631 94.765 381.131 95.035C381.631 95.295 382.021 95.69 382.301 96.22C382.591 96.75 382.736 97.395 382.736 98.155V103H381.386V98.35C381.386 97.53 381.181 96.905 380.771 96.475C380.361 96.035 379.801 95.815 379.091 95.815C378.371 95.815 377.796 96.04 377.366 96.49C376.946 96.94 376.736 97.595 376.736 98.455V103H375.371V91.9H376.736V95.95C377.006 95.53 377.376 95.205 377.846 94.975C378.326 94.745 378.861 94.63 379.451 94.63ZM386.631 95.905V100.75C386.631 101.15 386.716 101.435 386.886 101.605C387.056 101.765 387.351 101.845 387.771 101.845H388.776V103H387.546C386.786 103 386.216 102.825 385.836 102.475C385.456 102.125 385.266 101.55 385.266 100.75V95.905H384.201V94.78H385.266V92.71H386.631V94.78H388.776V95.905H386.631ZM393.339 103.135C392.709 103.135 392.144 103.03 391.644 102.82C391.144 102.6 390.749 102.3 390.459 101.92C390.169 101.53 390.009 101.085 389.979 100.585H391.389C391.429 100.995 391.619 101.33 391.959 101.59C392.309 101.85 392.764 101.98 393.324 101.98C393.844 101.98 394.254 101.865 394.554 101.635C394.854 101.405 395.004 101.115 395.004 100.765C395.004 100.405 394.844 100.14 394.524 99.97C394.204 99.79 393.709 99.615 393.039 99.445C392.429 99.285 391.929 99.125 391.539 98.965C391.159 98.795 390.829 98.55 390.549 98.23C390.279 97.9 390.144 97.47 390.144 96.94C390.144 96.52 390.269 96.135 390.519 95.785C390.769 95.435 391.124 95.16 391.584 94.96C392.044 94.75 392.569 94.645 393.159 94.645C394.069 94.645 394.804 94.875 395.364 95.335C395.924 95.795 396.224 96.425 396.264 97.225H394.899C394.869 96.795 394.694 96.45 394.374 96.19C394.064 95.93 393.644 95.8 393.114 95.8C392.624 95.8 392.234 95.905 391.944 96.115C391.654 96.325 391.509 96.6 391.509 96.94C391.509 97.21 391.594 97.435 391.764 97.615C391.944 97.785 392.164 97.925 392.424 98.035C392.694 98.135 393.064 98.25 393.534 98.38C394.124 98.54 394.604 98.7 394.974 98.86C395.344 99.01 395.659 99.24 395.919 99.55C396.189 99.86 396.329 100.265 396.339 100.765C396.339 101.215 396.214 101.62 395.964 101.98C395.714 102.34 395.359 102.625 394.899 102.835C394.449 103.035 393.929 103.135 393.339 103.135ZM407.005 103.105C406.035 103.105 405.15 102.88 404.35 102.43C403.55 101.97 402.915 101.335 402.445 100.525C401.985 99.705 401.755 98.785 401.755 97.765C401.755 96.745 401.985 95.83 402.445 95.02C402.915 94.2 403.55 93.565 404.35 93.115C405.15 92.655 406.035 92.425 407.005 92.425C407.985 92.425 408.875 92.655 409.675 93.115C410.475 93.565 411.105 94.195 411.565 95.005C412.025 95.815 412.255 96.735 412.255 97.765C412.255 98.795 412.025 99.715 411.565 100.525C411.105 101.335 410.475 101.97 409.675 102.43C408.875 102.88 407.985 103.105 407.005 103.105ZM407.005 101.92C407.735 101.92 408.39 101.75 408.97 101.41C409.56 101.07 410.02 100.585 410.35 99.955C410.69 99.325 410.86 98.595 410.86 97.765C410.86 96.925 410.69 96.195 410.35 95.575C410.02 94.945 409.565 94.46 408.985 94.12C408.405 93.78 407.745 93.61 407.005 93.61C406.265 93.61 405.605 93.78 405.025 94.12C404.445 94.46 403.985 94.945 403.645 95.575C403.315 96.195 403.15 96.925 403.15 97.765C403.15 98.595 403.315 99.325 403.645 99.955C403.985 100.585 404.445 101.07 405.025 101.41C405.615 101.75 406.275 101.92 407.005 101.92ZM418.062 94.63C419.062 94.63 419.872 94.935 420.492 95.545C421.112 96.145 421.422 97.015 421.422 98.155V103H420.072V98.35C420.072 97.53 419.867 96.905 419.457 96.475C419.047 96.035 418.487 95.815 417.777 95.815C417.057 95.815 416.482 96.04 416.052 96.49C415.632 96.94 415.422 97.595 415.422 98.455V103H414.057V94.78H415.422V95.95C415.692 95.53 416.057 95.205 416.517 94.975C416.987 94.745 417.502 94.63 418.062 94.63ZM434.971 92.545L431.566 99.055V103H430.201V99.055L426.781 92.545H428.296L430.876 97.84L433.456 92.545H434.971ZM439.996 103.135C439.226 103.135 438.526 102.96 437.896 102.61C437.276 102.26 436.786 101.765 436.426 101.125C436.076 100.475 435.901 99.725 435.901 98.875C435.901 98.035 436.081 97.295 436.441 96.655C436.811 96.005 437.311 95.51 437.941 95.17C438.571 94.82 439.276 94.645 440.056 94.645C440.836 94.645 441.541 94.82 442.171 95.17C442.801 95.51 443.296 96 443.656 96.64C444.026 97.28 444.211 98.025 444.211 98.875C444.211 99.725 444.021 100.475 443.641 101.125C443.271 101.765 442.766 102.26 442.126 102.61C441.486 102.96 440.776 103.135 439.996 103.135ZM439.996 101.935C440.486 101.935 440.946 101.82 441.376 101.59C441.806 101.36 442.151 101.015 442.411 100.555C442.681 100.095 442.816 99.535 442.816 98.875C442.816 98.215 442.686 97.655 442.426 97.195C442.166 96.735 441.826 96.395 441.406 96.175C440.986 95.945 440.531 95.83 440.041 95.83C439.541 95.83 439.081 95.945 438.661 96.175C438.251 96.395 437.921 96.735 437.671 97.195C437.421 97.655 437.296 98.215 437.296 98.875C437.296 99.545 437.416 100.11 437.656 100.57C437.906 101.03 438.236 101.375 438.646 101.605C439.056 101.825 439.506 101.935 439.996 101.935ZM453.296 94.78V103H451.931V101.785C451.671 102.205 451.306 102.535 450.836 102.775C450.376 103.005 449.866 103.12 449.306 103.12C448.666 103.12 448.091 102.99 447.581 102.73C447.071 102.46 446.666 102.06 446.366 101.53C446.076 101 445.931 100.355 445.931 99.595V94.78H447.281V99.415C447.281 100.225 447.486 100.85 447.896 101.29C448.306 101.72 448.866 101.935 449.576 101.935C450.306 101.935 450.881 101.71 451.301 101.26C451.721 100.81 451.931 100.155 451.931 99.295V94.78H453.296ZM456.965 96.115C457.205 95.645 457.545 95.28 457.985 95.02C458.435 94.76 458.98 94.63 459.62 94.63V96.04H459.26C457.73 96.04 456.965 96.87 456.965 98.53V103H455.6V94.78H456.965V96.115ZM33.895 126.105C32.925 126.105 32.04 125.88 31.24 125.43C30.44 124.97 29.805 124.335 29.335 123.525C28.875 122.705 28.645 121.785 28.645 120.765C28.645 119.745 28.875 118.83 29.335 118.02C29.805 117.2 30.44 116.565 31.24 116.115C32.04 115.655 32.925 115.425 33.895 115.425C34.875 115.425 35.765 115.655 36.565 116.115C37.365 116.565 37.995 117.195 38.455 118.005C38.915 118.815 39.145 119.735 39.145 120.765C39.145 121.795 38.915 122.715 38.455 123.525C37.995 124.335 37.365 124.97 36.565 125.43C35.765 125.88 34.875 126.105 33.895 126.105ZM33.895 124.92C34.625 124.92 35.28 124.75 35.86 124.41C36.45 124.07 36.91 123.585 37.24 122.955C37.58 122.325 37.75 121.595 37.75 120.765C37.75 119.925 37.58 119.195 37.24 118.575C36.91 117.945 36.455 117.46 35.875 117.12C35.295 116.78 34.635 116.61 33.895 116.61C33.155 116.61 32.495 116.78 31.915 117.12C31.335 117.46 30.875 117.945 30.535 118.575C30.205 119.195 30.04 119.925 30.04 120.765C30.04 121.595 30.205 122.325 30.535 122.955C30.875 123.585 31.335 124.07 31.915 124.41C32.505 124.75 33.165 124.92 33.895 124.92ZM42.312 119.115C42.552 118.645 42.892 118.28 43.332 118.02C43.782 117.76 44.327 117.63 44.967 117.63V119.04H44.607C43.077 119.04 42.312 119.87 42.312 121.53V126H40.947V117.78H42.312V119.115ZM49.9327 117.645C50.6427 117.645 51.2627 117.8 51.7927 118.11C52.3327 118.42 52.7327 118.81 52.9927 119.28V117.78H54.3727V126.18C54.3727 126.93 54.2127 127.595 53.8927 128.175C53.5727 128.765 53.1127 129.225 52.5127 129.555C51.9227 129.885 51.2327 130.05 50.4427 130.05C49.3627 130.05 48.4627 129.795 47.7427 129.285C47.0227 128.775 46.5977 128.08 46.4677 127.2H47.8177C47.9677 127.7 48.2777 128.1 48.7477 128.4C49.2177 128.71 49.7827 128.865 50.4427 128.865C51.1927 128.865 51.8027 128.63 52.2727 128.16C52.7527 127.69 52.9927 127.03 52.9927 126.18V124.455C52.7227 124.935 52.3227 125.335 51.7927 125.655C51.2627 125.975 50.6427 126.135 49.9327 126.135C49.2027 126.135 48.5377 125.955 47.9377 125.595C47.3477 125.235 46.8827 124.73 46.5427 124.08C46.2027 123.43 46.0327 122.69 46.0327 121.86C46.0327 121.02 46.2027 120.285 46.5427 119.655C46.8827 119.015 47.3477 118.52 47.9377 118.17C48.5377 117.82 49.2027 117.645 49.9327 117.645ZM52.9927 121.875C52.9927 121.255 52.8677 120.715 52.6177 120.255C52.3677 119.795 52.0277 119.445 51.5977 119.205C51.1777 118.955 50.7127 118.83 50.2027 118.83C49.6927 118.83 49.2277 118.95 48.8077 119.19C48.3877 119.43 48.0527 119.78 47.8027 120.24C47.5527 120.7 47.4277 121.24 47.4277 121.86C47.4277 122.49 47.5527 123.04 47.8027 123.51C48.0527 123.97 48.3877 124.325 48.8077 124.575C49.2277 124.815 49.6927 124.935 50.2027 124.935C50.7127 124.935 51.1777 124.815 51.5977 124.575C52.0277 124.325 52.3677 123.97 52.6177 123.51C52.8677 123.04 52.9927 122.495 52.9927 121.875ZM56.1694 121.86C56.1694 121.02 56.3394 120.285 56.6794 119.655C57.0194 119.015 57.4844 118.52 58.0744 118.17C58.6744 117.82 59.3394 117.645 60.0694 117.645C60.7894 117.645 61.4144 117.8 61.9444 118.11C62.4744 118.42 62.8694 118.81 63.1294 119.28V117.78H64.5094V126H63.1294V124.47C62.8594 124.95 62.4544 125.35 61.9144 125.67C61.3844 125.98 60.7644 126.135 60.0544 126.135C59.3244 126.135 58.6644 125.955 58.0744 125.595C57.4844 125.235 57.0194 124.73 56.6794 124.08C56.3394 123.43 56.1694 122.69 56.1694 121.86ZM63.1294 121.875C63.1294 121.255 63.0044 120.715 62.7544 120.255C62.5044 119.795 62.1644 119.445 61.7344 119.205C61.3144 118.955 60.8494 118.83 60.3394 118.83C59.8294 118.83 59.3644 118.95 58.9444 119.19C58.5244 119.43 58.1894 119.78 57.9394 120.24C57.6894 120.7 57.5644 121.24 57.5644 121.86C57.5644 122.49 57.6894 123.04 57.9394 123.51C58.1894 123.97 58.5244 124.325 58.9444 124.575C59.3644 124.815 59.8294 124.935 60.3394 124.935C60.8494 124.935 61.3144 124.815 61.7344 124.575C62.1644 124.325 62.5044 123.97 62.7544 123.51C63.0044 123.04 63.1294 122.495 63.1294 121.875ZM70.8211 117.63C71.8211 117.63 72.6311 117.935 73.2511 118.545C73.8711 119.145 74.1811 120.015 74.1811 121.155V126H72.8311V121.35C72.8311 120.53 72.6261 119.905 72.2161 119.475C71.8061 119.035 71.2461 118.815 70.5361 118.815C69.8161 118.815 69.2411 119.04 68.8111 119.49C68.3911 119.94 68.1811 120.595 68.1811 121.455V126H66.8161V117.78H68.1811V118.95C68.4511 118.53 68.8161 118.205 69.2761 117.975C69.7461 117.745 70.2611 117.63 70.8211 117.63ZM77.1159 116.445C76.8559 116.445 76.6359 116.355 76.4559 116.175C76.2759 115.995 76.1859 115.775 76.1859 115.515C76.1859 115.255 76.2759 115.035 76.4559 114.855C76.6359 114.675 76.8559 114.585 77.1159 114.585C77.3659 114.585 77.5759 114.675 77.7459 114.855C77.9259 115.035 78.0159 115.255 78.0159 115.515C78.0159 115.775 77.9259 115.995 77.7459 116.175C77.5759 116.355 77.3659 116.445 77.1159 116.445ZM77.7759 117.78V126H76.4109V117.78H77.7759ZM81.1223 124.875H85.1573V126H79.5623V124.875L83.5523 118.89H79.5923V117.78H85.1273V118.89L81.1223 124.875ZM86.4184 121.86C86.4184 121.02 86.5884 120.285 86.9284 119.655C87.2684 119.015 87.7334 118.52 88.3234 118.17C88.9234 117.82 89.5884 117.645 90.3184 117.645C91.0384 117.645 91.6634 117.8 92.1934 118.11C92.7234 118.42 93.1184 118.81 93.3784 119.28V117.78H94.7584V126H93.3784V124.47C93.1084 124.95 92.7034 125.35 92.1634 125.67C91.6334 125.98 91.0134 126.135 90.3034 126.135C89.5734 126.135 88.9134 125.955 88.3234 125.595C87.7334 125.235 87.2684 124.73 86.9284 124.08C86.5884 123.43 86.4184 122.69 86.4184 121.86ZM93.3784 121.875C93.3784 121.255 93.2534 120.715 93.0034 120.255C92.7534 119.795 92.4134 119.445 91.9834 119.205C91.5634 118.955 91.0984 118.83 90.5884 118.83C90.0784 118.83 89.6134 118.95 89.1934 119.19C88.7734 119.43 88.4384 119.78 88.1884 120.24C87.9384 120.7 87.8134 121.24 87.8134 121.86C87.8134 122.49 87.9384 123.04 88.1884 123.51C88.4384 123.97 88.7734 124.325 89.1934 124.575C89.6134 124.815 90.0784 124.935 90.5884 124.935C91.0984 124.935 91.5634 124.815 91.9834 124.575C92.4134 124.325 92.7534 123.97 93.0034 123.51C93.2534 123.04 93.3784 122.495 93.3784 121.875ZM98.7302 118.905V123.75C98.7302 124.15 98.8152 124.435 98.9852 124.605C99.1552 124.765 99.4502 124.845 99.8702 124.845H100.875V126H99.6452C98.8852 126 98.3152 125.825 97.9352 125.475C97.5552 125.125 97.3652 124.55 97.3652 123.75V118.905H96.3002V117.78H97.3652V115.71H98.7302V117.78H100.875V118.905H98.7302ZM103.234 116.445C102.974 116.445 102.754 116.355 102.574 116.175C102.394 115.995 102.304 115.775 102.304 115.515C102.304 115.255 102.394 115.035 102.574 114.855C102.754 114.675 102.974 114.585 103.234 114.585C103.484 114.585 103.694 114.675 103.864 114.855C104.044 115.035 104.134 115.255 104.134 115.515C104.134 115.775 104.044 115.995 103.864 116.175C103.694 116.355 103.484 116.445 103.234 116.445ZM103.894 117.78V126H102.529V117.78H103.894ZM109.805 126.135C109.035 126.135 108.335 125.96 107.705 125.61C107.085 125.26 106.595 124.765 106.235 124.125C105.885 123.475 105.71 122.725 105.71 121.875C105.71 121.035 105.89 120.295 106.25 119.655C106.62 119.005 107.12 118.51 107.75 118.17C108.38 117.82 109.085 117.645 109.865 117.645C110.645 117.645 111.35 117.82 111.98 118.17C112.61 118.51 113.105 119 113.465 119.64C113.835 120.28 114.02 121.025 114.02 121.875C114.02 122.725 113.83 123.475 113.45 124.125C113.08 124.765 112.575 125.26 111.935 125.61C111.295 125.96 110.585 126.135 109.805 126.135ZM109.805 124.935C110.295 124.935 110.755 124.82 111.185 124.59C111.615 124.36 111.96 124.015 112.22 123.555C112.49 123.095 112.625 122.535 112.625 121.875C112.625 121.215 112.495 120.655 112.235 120.195C111.975 119.735 111.635 119.395 111.215 119.175C110.795 118.945 110.34 118.83 109.85 118.83C109.35 118.83 108.89 118.945 108.47 119.175C108.06 119.395 107.73 119.735 107.48 120.195C107.23 120.655 107.105 121.215 107.105 121.875C107.105 122.545 107.225 123.11 107.465 123.57C107.715 124.03 108.045 124.375 108.455 124.605C108.865 124.825 109.315 124.935 109.805 124.935ZM119.82 117.63C120.82 117.63 121.63 117.935 122.25 118.545C122.87 119.145 123.18 120.015 123.18 121.155V126H121.83V121.35C121.83 120.53 121.625 119.905 121.215 119.475C120.805 119.035 120.245 118.815 119.535 118.815C118.815 118.815 118.24 119.04 117.81 119.49C117.39 119.94 117.18 120.595 117.18 121.455V126H115.815V117.78H117.18V118.95C117.45 118.53 117.815 118.205 118.275 117.975C118.745 117.745 119.26 117.63 119.82 117.63ZM136.399 118.605C136.399 119.475 136.099 120.2 135.499 120.78C134.909 121.35 134.004 121.635 132.784 121.635H130.774V126H129.409V115.545H132.784C133.964 115.545 134.859 115.83 135.469 116.4C136.089 116.97 136.399 117.705 136.399 118.605ZM132.784 120.51C133.544 120.51 134.104 120.345 134.464 120.015C134.824 119.685 135.004 119.215 135.004 118.605C135.004 117.315 134.264 116.67 132.784 116.67H130.774V120.51H132.784ZM141.68 126.135C140.91 126.135 140.21 125.96 139.58 125.61C138.96 125.26 138.47 124.765 138.11 124.125C137.76 123.475 137.585 122.725 137.585 121.875C137.585 121.035 137.765 120.295 138.125 119.655C138.495 119.005 138.995 118.51 139.625 118.17C140.255 117.82 140.96 117.645 141.74 117.645C142.52 117.645 143.225 117.82 143.855 118.17C144.485 118.51 144.98 119 145.34 119.64C145.71 120.28 145.895 121.025 145.895 121.875C145.895 122.725 145.705 123.475 145.325 124.125C144.955 124.765 144.45 125.26 143.81 125.61C143.17 125.96 142.46 126.135 141.68 126.135ZM141.68 124.935C142.17 124.935 142.63 124.82 143.06 124.59C143.49 124.36 143.835 124.015 144.095 123.555C144.365 123.095 144.5 122.535 144.5 121.875C144.5 121.215 144.37 120.655 144.11 120.195C143.85 119.735 143.51 119.395 143.09 119.175C142.67 118.945 142.215 118.83 141.725 118.83C141.225 118.83 140.765 118.945 140.345 119.175C139.935 119.395 139.605 119.735 139.355 120.195C139.105 120.655 138.98 121.215 138.98 121.875C138.98 122.545 139.1 123.11 139.34 123.57C139.59 124.03 139.92 124.375 140.33 124.605C140.74 124.825 141.19 124.935 141.68 124.935ZM149.055 119.115C149.295 118.645 149.635 118.28 150.075 118.02C150.525 117.76 151.07 117.63 151.71 117.63V119.04H151.35C149.82 119.04 149.055 119.87 149.055 121.53V126H147.69V117.78H149.055V119.115ZM154.951 118.905V123.75C154.951 124.15 155.036 124.435 155.206 124.605C155.376 124.765 155.671 124.845 156.091 124.845H157.096V126H155.866C155.106 126 154.536 125.825 154.156 125.475C153.776 125.125 153.586 124.55 153.586 123.75V118.905H152.521V117.78H153.586V115.71H154.951V117.78H157.096V118.905H154.951ZM162.095 118.905H160.37V126H159.005V118.905H157.94V117.78H159.005V117.195C159.005 116.275 159.24 115.605 159.71 115.185C160.19 114.755 160.955 114.54 162.005 114.54V115.68C161.405 115.68 160.98 115.8 160.73 116.04C160.49 116.27 160.37 116.655 160.37 117.195V117.78H162.095V118.905ZM167.271 126.135C166.501 126.135 165.801 125.96 165.171 125.61C164.551 125.26 164.061 124.765 163.701 124.125C163.351 123.475 163.176 122.725 163.176 121.875C163.176 121.035 163.356 120.295 163.716 119.655C164.086 119.005 164.586 118.51 165.216 118.17C165.846 117.82 166.551 117.645 167.331 117.645C168.111 117.645 168.816 117.82 169.446 118.17C170.076 118.51 170.571 119 170.931 119.64C171.301 120.28 171.486 121.025 171.486 121.875C171.486 122.725 171.296 123.475 170.916 124.125C170.546 124.765 170.041 125.26 169.401 125.61C168.761 125.96 168.051 126.135 167.271 126.135ZM167.271 124.935C167.761 124.935 168.221 124.82 168.651 124.59C169.081 124.36 169.426 124.015 169.686 123.555C169.956 123.095 170.091 122.535 170.091 121.875C170.091 121.215 169.961 120.655 169.701 120.195C169.441 119.735 169.101 119.395 168.681 119.175C168.261 118.945 167.806 118.83 167.316 118.83C166.816 118.83 166.356 118.945 165.936 119.175C165.526 119.395 165.196 119.735 164.946 120.195C164.696 120.655 164.571 121.215 164.571 121.875C164.571 122.545 164.691 123.11 164.931 123.57C165.181 124.03 165.511 124.375 165.921 124.605C166.331 124.825 166.781 124.935 167.271 124.935ZM174.646 114.9V126H173.281V114.9H174.646ZM177.677 116.445C177.417 116.445 177.197 116.355 177.017 116.175C176.837 115.995 176.747 115.775 176.747 115.515C176.747 115.255 176.837 115.035 177.017 114.855C177.197 114.675 177.417 114.585 177.677 114.585C177.927 114.585 178.137 114.675 178.307 114.855C178.487 115.035 178.577 115.255 178.577 115.515C178.577 115.775 178.487 115.995 178.307 116.175C178.137 116.355 177.927 116.445 177.677 116.445ZM178.337 117.78V126H176.972V117.78H178.337ZM184.249 126.135C183.479 126.135 182.779 125.96 182.149 125.61C181.529 125.26 181.039 124.765 180.679 124.125C180.329 123.475 180.154 122.725 180.154 121.875C180.154 121.035 180.334 120.295 180.694 119.655C181.064 119.005 181.564 118.51 182.194 118.17C182.824 117.82 183.529 117.645 184.309 117.645C185.089 117.645 185.794 117.82 186.424 118.17C187.054 118.51 187.549 119 187.909 119.64C188.279 120.28 188.464 121.025 188.464 121.875C188.464 122.725 188.274 123.475 187.894 124.125C187.524 124.765 187.019 125.26 186.379 125.61C185.739 125.96 185.029 126.135 184.249 126.135ZM184.249 124.935C184.739 124.935 185.199 124.82 185.629 124.59C186.059 124.36 186.404 124.015 186.664 123.555C186.934 123.095 187.069 122.535 187.069 121.875C187.069 121.215 186.939 120.655 186.679 120.195C186.419 119.735 186.079 119.395 185.659 119.175C185.239 118.945 184.784 118.83 184.294 118.83C183.794 118.83 183.334 118.945 182.914 119.175C182.504 119.395 182.174 119.735 181.924 120.195C181.674 120.655 181.549 121.215 181.549 121.875C181.549 122.545 181.669 123.11 181.909 123.57C182.159 124.03 182.489 124.375 182.899 124.605C183.309 124.825 183.759 124.935 184.249 124.935ZM193.748 120.765C193.748 119.745 193.978 118.83 194.438 118.02C194.898 117.2 195.523 116.56 196.313 116.1C197.113 115.64 197.998 115.41 198.968 115.41C200.108 115.41 201.103 115.685 201.953 116.235C202.803 116.785 203.423 117.565 203.813 118.575H202.178C201.888 117.945 201.468 117.46 200.918 117.12C200.378 116.78 199.728 116.61 198.968 116.61C198.238 116.61 197.583 116.78 197.003 117.12C196.423 117.46 195.968 117.945 195.638 118.575C195.308 119.195 195.143 119.925 195.143 120.765C195.143 121.595 195.308 122.325 195.638 122.955C195.968 123.575 196.423 124.055 197.003 124.395C197.583 124.735 198.238 124.905 198.968 124.905C199.728 124.905 200.378 124.74 200.918 124.41C201.468 124.07 201.888 123.585 202.178 122.955H203.813C203.423 123.955 202.803 124.73 201.953 125.28C201.103 125.82 200.108 126.09 198.968 126.09C197.998 126.09 197.113 125.865 196.313 125.415C195.523 124.955 194.898 124.32 194.438 123.51C193.978 122.7 193.748 121.785 193.748 120.765ZM209.429 126.135C208.659 126.135 207.959 125.96 207.329 125.61C206.709 125.26 206.219 124.765 205.859 124.125C205.509 123.475 205.334 122.725 205.334 121.875C205.334 121.035 205.514 120.295 205.874 119.655C206.244 119.005 206.744 118.51 207.374 118.17C208.004 117.82 208.709 117.645 209.489 117.645C210.269 117.645 210.974 117.82 211.604 118.17C212.234 118.51 212.729 119 213.089 119.64C213.459 120.28 213.644 121.025 213.644 121.875C213.644 122.725 213.454 123.475 213.074 124.125C212.704 124.765 212.199 125.26 211.559 125.61C210.919 125.96 210.209 126.135 209.429 126.135ZM209.429 124.935C209.919 124.935 210.379 124.82 210.809 124.59C211.239 124.36 211.584 124.015 211.844 123.555C212.114 123.095 212.249 122.535 212.249 121.875C212.249 121.215 212.119 120.655 211.859 120.195C211.599 119.735 211.259 119.395 210.839 119.175C210.419 118.945 209.964 118.83 209.474 118.83C208.974 118.83 208.514 118.945 208.094 119.175C207.684 119.395 207.354 119.735 207.104 120.195C206.854 120.655 206.729 121.215 206.729 121.875C206.729 122.545 206.849 123.11 207.089 123.57C207.339 124.03 207.669 124.375 208.079 124.605C208.489 124.825 208.939 124.935 209.429 124.935ZM225.324 117.63C225.964 117.63 226.534 117.765 227.034 118.035C227.534 118.295 227.929 118.69 228.219 119.22C228.509 119.75 228.654 120.395 228.654 121.155V126H227.304V121.35C227.304 120.53 227.099 119.905 226.689 119.475C226.289 119.035 225.744 118.815 225.054 118.815C224.344 118.815 223.779 119.045 223.359 119.505C222.939 119.955 222.729 120.61 222.729 121.47V126H221.379V121.35C221.379 120.53 221.174 119.905 220.764 119.475C220.364 119.035 219.819 118.815 219.129 118.815C218.419 118.815 217.854 119.045 217.434 119.505C217.014 119.955 216.804 120.61 216.804 121.47V126H215.439V117.78H216.804V118.965C217.074 118.535 217.434 118.205 217.884 117.975C218.344 117.745 218.849 117.63 219.399 117.63C220.089 117.63 220.699 117.785 221.229 118.095C221.759 118.405 222.154 118.86 222.414 119.46C222.644 118.88 223.024 118.43 223.554 118.11C224.084 117.79 224.674 117.63 225.324 117.63ZM232.258 119.295C232.528 118.825 232.928 118.435 233.458 118.125C233.998 117.805 234.623 117.645 235.333 117.645C236.063 117.645 236.723 117.82 237.313 118.17C237.913 118.52 238.383 119.015 238.723 119.655C239.063 120.285 239.233 121.02 239.233 121.86C239.233 122.69 239.063 123.43 238.723 124.08C238.383 124.73 237.913 125.235 237.313 125.595C236.723 125.955 236.063 126.135 235.333 126.135C234.633 126.135 234.013 125.98 233.473 125.67C232.943 125.35 232.538 124.955 232.258 124.485V129.9H230.893V117.78H232.258V119.295ZM237.838 121.86C237.838 121.24 237.713 120.7 237.463 120.24C237.213 119.78 236.873 119.43 236.443 119.19C236.023 118.95 235.558 118.83 235.048 118.83C234.548 118.83 234.083 118.955 233.653 119.205C233.233 119.445 232.893 119.8 232.633 120.27C232.383 120.73 232.258 121.265 232.258 121.875C232.258 122.495 232.383 123.04 232.633 123.51C232.893 123.97 233.233 124.325 233.653 124.575C234.083 124.815 234.548 124.935 235.048 124.935C235.558 124.935 236.023 124.815 236.443 124.575C236.873 124.325 237.213 123.97 237.463 123.51C237.713 123.04 237.838 122.49 237.838 121.86ZM240.52 121.86C240.52 121.02 240.69 120.285 241.03 119.655C241.37 119.015 241.835 118.52 242.425 118.17C243.025 117.82 243.69 117.645 244.42 117.645C245.14 117.645 245.765 117.8 246.295 118.11C246.825 118.42 247.22 118.81 247.48 119.28V117.78H248.86V126H247.48V124.47C247.21 124.95 246.805 125.35 246.265 125.67C245.735 125.98 245.115 126.135 244.405 126.135C243.675 126.135 243.015 125.955 242.425 125.595C241.835 125.235 241.37 124.73 241.03 124.08C240.69 123.43 240.52 122.69 240.52 121.86ZM247.48 121.875C247.48 121.255 247.355 120.715 247.105 120.255C246.855 119.795 246.515 119.445 246.085 119.205C245.665 118.955 245.2 118.83 244.69 118.83C244.18 118.83 243.715 118.95 243.295 119.19C242.875 119.43 242.54 119.78 242.29 120.24C242.04 120.7 241.915 121.24 241.915 121.86C241.915 122.49 242.04 123.04 242.29 123.51C242.54 123.97 242.875 124.325 243.295 124.575C243.715 124.815 244.18 124.935 244.69 124.935C245.2 124.935 245.665 124.815 246.085 124.575C246.515 124.325 246.855 123.97 247.105 123.51C247.355 123.04 247.48 122.495 247.48 121.875ZM255.172 117.63C256.172 117.63 256.982 117.935 257.602 118.545C258.222 119.145 258.532 120.015 258.532 121.155V126H257.182V121.35C257.182 120.53 256.977 119.905 256.567 119.475C256.157 119.035 255.597 118.815 254.887 118.815C254.167 118.815 253.592 119.04 253.162 119.49C252.742 119.94 252.532 120.595 252.532 121.455V126H251.167V117.78H252.532V118.95C252.802 118.53 253.167 118.205 253.627 117.975C254.097 117.745 254.612 117.63 255.172 117.63ZM261.466 116.445C261.206 116.445 260.986 116.355 260.806 116.175C260.626 115.995 260.536 115.775 260.536 115.515C260.536 115.255 260.626 115.035 260.806 114.855C260.986 114.675 261.206 114.585 261.466 114.585C261.716 114.585 261.926 114.675 262.096 114.855C262.276 115.035 262.366 115.255 262.366 115.515C262.366 115.775 262.276 115.995 262.096 116.175C261.926 116.355 261.716 116.445 261.466 116.445ZM262.126 117.78V126H260.761V117.78H262.126ZM271.953 121.575C271.953 121.835 271.938 122.11 271.908 122.4H265.338C265.388 123.21 265.663 123.845 266.163 124.305C266.673 124.755 267.288 124.98 268.008 124.98C268.598 124.98 269.088 124.845 269.478 124.575C269.878 124.295 270.158 123.925 270.318 123.465H271.788C271.568 124.255 271.128 124.9 270.468 125.4C269.808 125.89 268.988 126.135 268.008 126.135C267.228 126.135 266.528 125.96 265.908 125.61C265.298 125.26 264.818 124.765 264.468 124.125C264.118 123.475 263.943 122.725 263.943 121.875C263.943 121.025 264.113 120.28 264.453 119.64C264.793 119 265.268 118.51 265.878 118.17C266.498 117.82 267.208 117.645 268.008 117.645C268.788 117.645 269.478 117.815 270.078 118.155C270.678 118.495 271.138 118.965 271.458 119.565C271.788 120.155 271.953 120.825 271.953 121.575ZM270.543 121.29C270.543 120.77 270.428 120.325 270.198 119.955C269.968 119.575 269.653 119.29 269.253 119.1C268.863 118.9 268.428 118.8 267.948 118.8C267.258 118.8 266.668 119.02 266.178 119.46C265.698 119.9 265.423 120.51 265.353 121.29H270.543ZM276.665 126.135C276.035 126.135 275.47 126.03 274.97 125.82C274.47 125.6 274.075 125.3 273.785 124.92C273.495 124.53 273.335 124.085 273.305 123.585H274.715C274.755 123.995 274.945 124.33 275.285 124.59C275.635 124.85 276.09 124.98 276.65 124.98C277.17 124.98 277.58 124.865 277.88 124.635C278.18 124.405 278.33 124.115 278.33 123.765C278.33 123.405 278.17 123.14 277.85 122.97C277.53 122.79 277.035 122.615 276.365 122.445C275.755 122.285 275.255 122.125 274.865 121.965C274.485 121.795 274.155 121.55 273.875 121.23C273.605 120.9 273.47 120.47 273.47 119.94C273.47 119.52 273.595 119.135 273.845 118.785C274.095 118.435 274.45 118.16 274.91 117.96C275.37 117.75 275.895 117.645 276.485 117.645C277.395 117.645 278.13 117.875 278.69 118.335C279.25 118.795 279.55 119.425 279.59 120.225H278.225C278.195 119.795 278.02 119.45 277.7 119.19C277.39 118.93 276.97 118.8 276.44 118.8C275.95 118.8 275.56 118.905 275.27 119.115C274.98 119.325 274.835 119.6 274.835 119.94C274.835 120.21 274.92 120.435 275.09 120.615C275.27 120.785 275.49 120.925 275.75 121.035C276.02 121.135 276.39 121.25 276.86 121.38C277.45 121.54 277.93 121.7 278.3 121.86C278.67 122.01 278.985 122.24 279.245 122.55C279.515 122.86 279.655 123.265 279.665 123.765C279.665 124.215 279.54 124.62 279.29 124.98C279.04 125.34 278.685 125.625 278.225 125.835C277.775 126.035 277.255 126.135 276.665 126.135ZM283.002 124.11L281.322 128.145H280.407L281.502 124.11H283.002ZM294.744 123.675H290.184L289.344 126H287.904L291.684 115.605H293.259L297.024 126H295.584L294.744 123.675ZM294.354 122.565L292.464 117.285L290.574 122.565H294.354ZM302.677 117.63C303.677 117.63 304.487 117.935 305.107 118.545C305.727 119.145 306.037 120.015 306.037 121.155V126H304.687V121.35C304.687 120.53 304.482 119.905 304.072 119.475C303.662 119.035 303.102 118.815 302.392 118.815C301.672 118.815 301.097 119.04 300.667 119.49C300.247 119.94 300.037 120.595 300.037 121.455V126H298.672V117.78H300.037V118.95C300.307 118.53 300.672 118.205 301.132 117.975C301.602 117.745 302.117 117.63 302.677 117.63ZM307.756 121.86C307.756 121.02 307.926 120.285 308.266 119.655C308.606 119.015 309.071 118.52 309.661 118.17C310.261 117.82 310.931 117.645 311.671 117.645C312.311 117.645 312.906 117.795 313.456 118.095C314.006 118.385 314.426 118.77 314.716 119.25V114.9H316.096V126H314.716V124.455C314.446 124.945 314.046 125.35 313.516 125.67C312.986 125.98 312.366 126.135 311.656 126.135C310.926 126.135 310.261 125.955 309.661 125.595C309.071 125.235 308.606 124.73 308.266 124.08C307.926 123.43 307.756 122.69 307.756 121.86ZM314.716 121.875C314.716 121.255 314.591 120.715 314.341 120.255C314.091 119.795 313.751 119.445 313.321 119.205C312.901 118.955 312.436 118.83 311.926 118.83C311.416 118.83 310.951 118.95 310.531 119.19C310.111 119.43 309.776 119.78 309.526 120.24C309.276 120.7 309.151 121.24 309.151 121.86C309.151 122.49 309.276 123.04 309.526 123.51C309.776 123.97 310.111 124.325 310.531 124.575C310.951 124.815 311.416 124.935 311.926 124.935C312.436 124.935 312.901 124.815 313.321 124.575C313.751 124.325 314.091 123.97 314.341 123.51C314.591 123.04 314.716 122.495 314.716 121.875ZM325.717 126.105C325.027 126.105 324.407 125.985 323.857 125.745C323.317 125.495 322.892 125.155 322.582 124.725C322.272 124.285 322.112 123.78 322.102 123.21H323.557C323.607 123.7 323.807 124.115 324.157 124.455C324.517 124.785 325.037 124.95 325.717 124.95C326.367 124.95 326.877 124.79 327.247 124.47C327.627 124.14 327.817 123.72 327.817 123.21C327.817 122.81 327.707 122.485 327.487 122.235C327.267 121.985 326.992 121.795 326.662 121.665C326.332 121.535 325.887 121.395 325.327 121.245C324.637 121.065 324.082 120.885 323.662 120.705C323.252 120.525 322.897 120.245 322.597 119.865C322.307 119.475 322.162 118.955 322.162 118.305C322.162 117.735 322.307 117.23 322.597 116.79C322.887 116.35 323.292 116.01 323.812 115.77C324.342 115.53 324.947 115.41 325.627 115.41C326.607 115.41 327.407 115.655 328.027 116.145C328.657 116.635 329.012 117.285 329.092 118.095H327.592C327.542 117.695 327.332 117.345 326.962 117.045C326.592 116.735 326.102 116.58 325.492 116.58C324.922 116.58 324.457 116.73 324.097 117.03C323.737 117.32 323.557 117.73 323.557 118.26C323.557 118.64 323.662 118.95 323.872 119.19C324.092 119.43 324.357 119.615 324.667 119.745C324.987 119.865 325.432 120.005 326.002 120.165C326.692 120.355 327.247 120.545 327.667 120.735C328.087 120.915 328.447 121.2 328.747 121.59C329.047 121.97 329.197 122.49 329.197 123.15C329.197 123.66 329.062 124.14 328.792 124.59C328.522 125.04 328.122 125.405 327.592 125.685C327.062 125.965 326.437 126.105 325.717 126.105ZM338.496 117.78V126H337.131V124.785C336.871 125.205 336.506 125.535 336.036 125.775C335.576 126.005 335.066 126.12 334.506 126.12C333.866 126.12 333.291 125.99 332.781 125.73C332.271 125.46 331.866 125.06 331.566 124.53C331.276 124 331.131 123.355 331.131 122.595V117.78H332.481V122.415C332.481 123.225 332.686 123.85 333.096 124.29C333.506 124.72 334.066 124.935 334.776 124.935C335.506 124.935 336.081 124.71 336.501 124.26C336.921 123.81 337.131 123.155 337.131 122.295V117.78H338.496ZM342.166 119.295C342.436 118.825 342.836 118.435 343.366 118.125C343.906 117.805 344.531 117.645 345.241 117.645C345.971 117.645 346.631 117.82 347.221 118.17C347.821 118.52 348.291 119.015 348.631 119.655C348.971 120.285 349.141 121.02 349.141 121.86C349.141 122.69 348.971 123.43 348.631 124.08C348.291 124.73 347.821 125.235 347.221 125.595C346.631 125.955 345.971 126.135 345.241 126.135C344.541 126.135 343.921 125.98 343.381 125.67C342.851 125.35 342.446 124.955 342.166 124.485V129.9H340.801V117.78H342.166V119.295ZM347.746 121.86C347.746 121.24 347.621 120.7 347.371 120.24C347.121 119.78 346.781 119.43 346.351 119.19C345.931 118.95 345.466 118.83 344.956 118.83C344.456 118.83 343.991 118.955 343.561 119.205C343.141 119.445 342.801 119.8 342.541 120.27C342.291 120.73 342.166 121.265 342.166 121.875C342.166 122.495 342.291 123.04 342.541 123.51C342.801 123.97 343.141 124.325 343.561 124.575C343.991 124.815 344.456 124.935 344.956 124.935C345.466 124.935 345.931 124.815 346.351 124.575C346.781 124.325 347.121 123.97 347.371 123.51C347.621 123.04 347.746 122.49 347.746 121.86ZM352.302 119.295C352.572 118.825 352.972 118.435 353.502 118.125C354.042 117.805 354.667 117.645 355.377 117.645C356.107 117.645 356.767 117.82 357.357 118.17C357.957 118.52 358.427 119.015 358.767 119.655C359.107 120.285 359.277 121.02 359.277 121.86C359.277 122.69 359.107 123.43 358.767 124.08C358.427 124.73 357.957 125.235 357.357 125.595C356.767 125.955 356.107 126.135 355.377 126.135C354.677 126.135 354.057 125.98 353.517 125.67C352.987 125.35 352.582 124.955 352.302 124.485V129.9H350.937V117.78H352.302V119.295ZM357.882 121.86C357.882 121.24 357.757 120.7 357.507 120.24C357.257 119.78 356.917 119.43 356.487 119.19C356.067 118.95 355.602 118.83 355.092 118.83C354.592 118.83 354.127 118.955 353.697 119.205C353.277 119.445 352.937 119.8 352.677 120.27C352.427 120.73 352.302 121.265 352.302 121.875C352.302 122.495 352.427 123.04 352.677 123.51C352.937 123.97 353.277 124.325 353.697 124.575C354.127 124.815 354.592 124.935 355.092 124.935C355.602 124.935 356.067 124.815 356.487 124.575C356.917 124.325 357.257 123.97 357.507 123.51C357.757 123.04 357.882 122.49 357.882 121.86ZM362.439 114.9V126H361.074V114.9H362.439ZM365.47 116.445C365.21 116.445 364.99 116.355 364.81 116.175C364.63 115.995 364.54 115.775 364.54 115.515C364.54 115.255 364.63 115.035 364.81 114.855C364.99 114.675 365.21 114.585 365.47 114.585C365.72 114.585 365.93 114.675 366.1 114.855C366.28 115.035 366.37 115.255 366.37 115.515C366.37 115.775 366.28 115.995 366.1 116.175C365.93 116.355 365.72 116.445 365.47 116.445ZM366.13 117.78V126H364.765V117.78H366.13ZM375.957 121.575C375.957 121.835 375.942 122.11 375.912 122.4H369.342C369.392 123.21 369.667 123.845 370.167 124.305C370.677 124.755 371.292 124.98 372.012 124.98C372.602 124.98 373.092 124.845 373.482 124.575C373.882 124.295 374.162 123.925 374.322 123.465H375.792C375.572 124.255 375.132 124.9 374.472 125.4C373.812 125.89 372.992 126.135 372.012 126.135C371.232 126.135 370.532 125.96 369.912 125.61C369.302 125.26 368.822 124.765 368.472 124.125C368.122 123.475 367.947 122.725 367.947 121.875C367.947 121.025 368.117 120.28 368.457 119.64C368.797 119 369.272 118.51 369.882 118.17C370.502 117.82 371.212 117.645 372.012 117.645C372.792 117.645 373.482 117.815 374.082 118.155C374.682 118.495 375.142 118.965 375.462 119.565C375.792 120.155 375.957 120.825 375.957 121.575ZM374.547 121.29C374.547 120.77 374.432 120.325 374.202 119.955C373.972 119.575 373.657 119.29 373.257 119.1C372.867 118.9 372.432 118.8 371.952 118.8C371.262 118.8 370.672 119.02 370.182 119.46C369.702 119.9 369.427 120.51 369.357 121.29H374.547ZM380.669 126.135C380.039 126.135 379.474 126.03 378.974 125.82C378.474 125.6 378.079 125.3 377.789 124.92C377.499 124.53 377.339 124.085 377.309 123.585H378.719C378.759 123.995 378.949 124.33 379.289 124.59C379.639 124.85 380.094 124.98 380.654 124.98C381.174 124.98 381.584 124.865 381.884 124.635C382.184 124.405 382.334 124.115 382.334 123.765C382.334 123.405 382.174 123.14 381.854 122.97C381.534 122.79 381.039 122.615 380.369 122.445C379.759 122.285 379.259 122.125 378.869 121.965C378.489 121.795 378.159 121.55 377.879 121.23C377.609 120.9 377.474 120.47 377.474 119.94C377.474 119.52 377.599 119.135 377.849 118.785C378.099 118.435 378.454 118.16 378.914 117.96C379.374 117.75 379.899 117.645 380.489 117.645C381.399 117.645 382.134 117.875 382.694 118.335C383.254 118.795 383.554 119.425 383.594 120.225H382.229C382.199 119.795 382.024 119.45 381.704 119.19C381.394 118.93 380.974 118.8 380.444 118.8C379.954 118.8 379.564 118.905 379.274 119.115C378.984 119.325 378.839 119.6 378.839 119.94C378.839 120.21 378.924 120.435 379.094 120.615C379.274 120.785 379.494 120.925 379.754 121.035C380.024 121.135 380.394 121.25 380.864 121.38C381.454 121.54 381.934 121.7 382.304 121.86C382.674 122.01 382.989 122.24 383.249 122.55C383.519 122.86 383.659 123.265 383.669 123.765C383.669 124.215 383.544 124.62 383.294 124.98C383.044 125.34 382.689 125.625 382.229 125.835C381.779 126.035 381.259 126.135 380.669 126.135ZM387.005 124.11L385.325 128.145H384.41L385.505 124.11H387.005ZM398.748 123.675H394.188L393.348 126H391.908L395.688 115.605H397.263L401.028 126H399.588L398.748 123.675ZM398.358 122.565L396.468 117.285L394.578 122.565H398.358ZM412.561 117.63C413.201 117.63 413.771 117.765 414.271 118.035C414.771 118.295 415.166 118.69 415.456 119.22C415.746 119.75 415.891 120.395 415.891 121.155V126H414.541V121.35C414.541 120.53 414.336 119.905 413.926 119.475C413.526 119.035 412.981 118.815 412.291 118.815C411.581 118.815 411.016 119.045 410.596 119.505C410.176 119.955 409.966 120.61 409.966 121.47V126H408.616V121.35C408.616 120.53 408.411 119.905 408.001 119.475C407.601 119.035 407.056 118.815 406.366 118.815C405.656 118.815 405.091 119.045 404.671 119.505C404.251 119.955 404.041 120.61 404.041 121.47V126H402.676V117.78H404.041V118.965C404.311 118.535 404.671 118.205 405.121 117.975C405.581 117.745 406.086 117.63 406.636 117.63C407.326 117.63 407.936 117.785 408.466 118.095C408.996 118.405 409.391 118.86 409.651 119.46C409.881 118.88 410.261 118.43 410.791 118.11C411.321 117.79 411.911 117.63 412.561 117.63ZM421.715 126.135C420.945 126.135 420.245 125.96 419.615 125.61C418.995 125.26 418.505 124.765 418.145 124.125C417.795 123.475 417.62 122.725 417.62 121.875C417.62 121.035 417.8 120.295 418.16 119.655C418.53 119.005 419.03 118.51 419.66 118.17C420.29 117.82 420.995 117.645 421.775 117.645C422.555 117.645 423.26 117.82 423.89 118.17C424.52 118.51 425.015 119 425.375 119.64C425.745 120.28 425.93 121.025 425.93 121.875C425.93 122.725 425.74 123.475 425.36 124.125C424.99 124.765 424.485 125.26 423.845 125.61C423.205 125.96 422.495 126.135 421.715 126.135ZM421.715 124.935C422.205 124.935 422.665 124.82 423.095 124.59C423.525 124.36 423.87 124.015 424.13 123.555C424.4 123.095 424.535 122.535 424.535 121.875C424.535 121.215 424.405 120.655 424.145 120.195C423.885 119.735 423.545 119.395 423.125 119.175C422.705 118.945 422.25 118.83 421.76 118.83C421.26 118.83 420.8 118.945 420.38 119.175C419.97 119.395 419.64 119.735 419.39 120.195C419.14 120.655 419.015 121.215 419.015 121.875C419.015 122.545 419.135 123.11 419.375 123.57C419.625 124.03 419.955 124.375 420.365 124.605C420.775 124.825 421.225 124.935 421.715 124.935ZM431.729 117.63C432.729 117.63 433.539 117.935 434.159 118.545C434.779 119.145 435.089 120.015 435.089 121.155V126H433.739V121.35C433.739 120.53 433.534 119.905 433.124 119.475C432.714 119.035 432.154 118.815 431.444 118.815C430.724 118.815 430.149 119.04 429.719 119.49C429.299 119.94 429.089 120.595 429.089 121.455V126H427.724V117.78H429.089V118.95C429.359 118.53 429.724 118.205 430.184 117.975C430.654 117.745 431.169 117.63 431.729 117.63ZM440.709 117.645C441.419 117.645 442.039 117.8 442.569 118.11C443.109 118.42 443.509 118.81 443.769 119.28V117.78H445.149V126.18C445.149 126.93 444.989 127.595 444.669 128.175C444.349 128.765 443.889 129.225 443.289 129.555C442.699 129.885 442.009 130.05 441.219 130.05C440.139 130.05 439.239 129.795 438.519 129.285C437.799 128.775 437.374 128.08 437.244 127.2H438.594C438.744 127.7 439.054 128.1 439.524 128.4C439.994 128.71 440.559 128.865 441.219 128.865C441.969 128.865 442.579 128.63 443.049 128.16C443.529 127.69 443.769 127.03 443.769 126.18V124.455C443.499 124.935 443.099 125.335 442.569 125.655C442.039 125.975 441.419 126.135 440.709 126.135C439.979 126.135 439.314 125.955 438.714 125.595C438.124 125.235 437.659 124.73 437.319 124.08C436.979 123.43 436.809 122.69 436.809 121.86C436.809 121.02 436.979 120.285 437.319 119.655C437.659 119.015 438.124 118.52 438.714 118.17C439.314 117.82 439.979 117.645 440.709 117.645ZM443.769 121.875C443.769 121.255 443.644 120.715 443.394 120.255C443.144 119.795 442.804 119.445 442.374 119.205C441.954 118.955 441.489 118.83 440.979 118.83C440.469 118.83 440.004 118.95 439.584 119.19C439.164 119.43 438.829 119.78 438.579 120.24C438.329 120.7 438.204 121.24 438.204 121.86C438.204 122.49 438.329 123.04 438.579 123.51C438.829 123.97 439.164 124.325 439.584 124.575C440.004 124.815 440.469 124.935 440.979 124.935C441.489 124.935 441.954 124.815 442.374 124.575C442.804 124.325 443.144 123.97 443.394 123.51C443.644 123.04 443.769 122.495 443.769 121.875ZM456.195 126.105C455.225 126.105 454.34 125.88 453.54 125.43C452.74 124.97 452.105 124.335 451.635 123.525C451.175 122.705 450.945 121.785 450.945 120.765C450.945 119.745 451.175 118.83 451.635 118.02C452.105 117.2 452.74 116.565 453.54 116.115C454.34 115.655 455.225 115.425 456.195 115.425C457.175 115.425 458.065 115.655 458.865 116.115C459.665 116.565 460.295 117.195 460.755 118.005C461.215 118.815 461.445 119.735 461.445 120.765C461.445 121.795 461.215 122.715 460.755 123.525C460.295 124.335 459.665 124.97 458.865 125.43C458.065 125.88 457.175 126.105 456.195 126.105ZM456.195 124.92C456.925 124.92 457.58 124.75 458.16 124.41C458.75 124.07 459.21 123.585 459.54 122.955C459.88 122.325 460.05 121.595 460.05 120.765C460.05 119.925 459.88 119.195 459.54 118.575C459.21 117.945 458.755 117.46 458.175 117.12C457.595 116.78 456.935 116.61 456.195 116.61C455.455 116.61 454.795 116.78 454.215 117.12C453.635 117.46 453.175 117.945 452.835 118.575C452.505 119.195 452.34 119.925 452.34 120.765C452.34 121.595 452.505 122.325 452.835 122.955C453.175 123.585 453.635 124.07 454.215 124.41C454.805 124.75 455.465 124.92 456.195 124.92ZM464.912 118.905V123.75C464.912 124.15 464.997 124.435 465.167 124.605C465.337 124.765 465.632 124.845 466.052 124.845H467.057V126H465.827C465.067 126 464.497 125.825 464.117 125.475C463.737 125.125 463.547 124.55 463.547 123.75V118.905H462.482V117.78H463.547V115.71H464.912V117.78H467.057V118.905H464.912ZM472.791 117.63C473.411 117.63 473.971 117.765 474.471 118.035C474.971 118.295 475.361 118.69 475.641 119.22C475.931 119.75 476.076 120.395 476.076 121.155V126H474.726V121.35C474.726 120.53 474.521 119.905 474.111 119.475C473.701 119.035 473.141 118.815 472.431 118.815C471.711 118.815 471.136 119.04 470.706 119.49C470.286 119.94 470.076 120.595 470.076 121.455V126H468.711V114.9H470.076V118.95C470.346 118.53 470.716 118.205 471.186 117.975C471.666 117.745 472.201 117.63 472.791 117.63ZM485.805 121.575C485.805 121.835 485.79 122.11 485.76 122.4H479.19C479.24 123.21 479.515 123.845 480.015 124.305C480.525 124.755 481.14 124.98 481.86 124.98C482.45 124.98 482.94 124.845 483.33 124.575C483.73 124.295 484.01 123.925 484.17 123.465H485.64C485.42 124.255 484.98 124.9 484.32 125.4C483.66 125.89 482.84 126.135 481.86 126.135C481.08 126.135 480.38 125.96 479.76 125.61C479.15 125.26 478.67 124.765 478.32 124.125C477.97 123.475 477.795 122.725 477.795 121.875C477.795 121.025 477.965 120.28 478.305 119.64C478.645 119 479.12 118.51 479.73 118.17C480.35 117.82 481.06 117.645 481.86 117.645C482.64 117.645 483.33 117.815 483.93 118.155C484.53 118.495 484.99 118.965 485.31 119.565C485.64 120.155 485.805 120.825 485.805 121.575ZM484.395 121.29C484.395 120.77 484.28 120.325 484.05 119.955C483.82 119.575 483.505 119.29 483.105 119.1C482.715 118.9 482.28 118.8 481.8 118.8C481.11 118.8 480.52 119.02 480.03 119.46C479.55 119.9 479.275 120.51 479.205 121.29H484.395ZM488.972 119.115C489.212 118.645 489.552 118.28 489.992 118.02C490.442 117.76 490.987 117.63 491.627 117.63V119.04H491.267C489.737 119.04 488.972 119.87 488.972 121.53V126H487.607V117.78H488.972V119.115ZM496.113 126.135C495.483 126.135 494.918 126.03 494.418 125.82C493.918 125.6 493.523 125.3 493.233 124.92C492.943 124.53 492.783 124.085 492.753 123.585H494.163C494.203 123.995 494.393 124.33 494.733 124.59C495.083 124.85 495.538 124.98 496.098 124.98C496.618 124.98 497.028 124.865 497.328 124.635C497.628 124.405 497.778 124.115 497.778 123.765C497.778 123.405 497.618 123.14 497.298 122.97C496.978 122.79 496.483 122.615 495.813 122.445C495.203 122.285 494.703 122.125 494.313 121.965C493.933 121.795 493.603 121.55 493.323 121.23C493.053 120.9 492.918 120.47 492.918 119.94C492.918 119.52 493.043 119.135 493.293 118.785C493.543 118.435 493.898 118.16 494.358 117.96C494.818 117.75 495.343 117.645 495.933 117.645C496.843 117.645 497.578 117.875 498.138 118.335C498.698 118.795 498.998 119.425 499.038 120.225H497.673C497.643 119.795 497.468 119.45 497.148 119.19C496.838 118.93 496.418 118.8 495.888 118.8C495.398 118.8 495.008 118.905 494.718 119.115C494.428 119.325 494.283 119.6 494.283 119.94C494.283 120.21 494.368 120.435 494.538 120.615C494.718 120.785 494.938 120.925 495.198 121.035C495.468 121.135 495.838 121.25 496.308 121.38C496.898 121.54 497.378 121.7 497.748 121.86C498.118 122.01 498.433 122.24 498.693 122.55C498.963 122.86 499.103 123.265 499.113 123.765C499.113 124.215 498.988 124.62 498.738 124.98C498.488 125.34 498.133 125.625 497.673 125.835C497.223 126.035 496.703 126.135 496.113 126.135Z" fill="white"/>
</svg>
