<svg width="270" height="68" viewBox="0 0 270 68" fill="none" xmlns="http://www.w3.org/2000/svg">
<path fill-rule="evenodd" clip-rule="evenodd" d="M27.711 13.7C25.9278 12.4118 23.8313 11.7241 21.6867 11.7241V0C25.9759 0 30.1688 1.37522 33.7352 3.95175C37.3016 6.52827 40.0812 10.1904 41.7227 14.475C43.364 18.7596 43.7935 23.4743 42.9568 28.0228C42.12 32.5713 40.0545 36.7494 37.0215 40.0287C33.9886 43.308 30.1244 45.5412 25.9176 46.446C21.7108 47.3507 17.3503 46.8864 13.3875 45.1117C9.42484 43.3369 6.03784 40.3315 3.65488 36.4754C1.27191 32.6194 0 28.0859 0 23.4483H10.8434C10.8434 25.7671 11.4793 28.0338 12.6708 29.9619C13.8623 31.8899 15.5558 33.3926 17.5372 34.28C19.5185 35.1674 21.6988 35.3995 23.8022 34.9471C25.9056 34.4948 27.8376 33.3782 29.3542 31.7385C30.8706 30.0988 31.9034 28.0098 32.3217 25.7355C32.7401 23.4613 32.5254 21.1039 31.7047 18.9617C30.884 16.8193 29.4942 14.9883 27.711 13.7Z" fill="#007DFC"/>
<path fill-rule="evenodd" clip-rule="evenodd" d="M10.8434 6.19613e-06C10.8434 1.53964 10.5629 3.0642 10.018 4.48664C9.47303 5.90908 8.67432 7.20153 7.66741 8.29023C6.66052 9.37892 5.46516 10.2425 4.14958 10.8317C2.83399 11.4209 1.42397 11.7241 4.73974e-07 11.7241L0 23.4483C2.84794 23.4483 5.66799 22.8418 8.29916 21.6634C10.9303 20.485 13.3211 18.7578 15.3348 16.5804C17.3486 14.4031 18.9461 11.8182 20.0359 8.97327C21.1258 6.12839 21.6867 3.07927 21.6867 0L10.8434 6.19613e-06Z" fill="#007DFC"/>
<path d="M136.213 16.9443H130.952V35.0139H136.213V16.9443Z" fill="#007DFC"/>
<path d="M131.538 13.5609C132.087 14.1557 132.775 14.4532 133.6 14.4532C134.425 14.4532 135.102 14.1557 135.629 13.5609C136.157 12.9412 136.42 12.1976 136.42 11.33C136.42 10.4377 136.157 9.6941 135.629 9.09924C135.102 8.50434 134.425 8.20691 133.6 8.20691C132.775 8.20691 132.087 8.50434 131.538 9.09924C131.01 9.6941 130.746 10.4377 130.746 11.33C130.746 12.1976 131.01 12.9412 131.538 13.5609Z" fill="#007DFC"/>
<path d="M55.4706 35.014V8.76465H60.8694V29.8831H71.6327V35.014H55.4706Z" fill="#007DFC"/>
<path fill-rule="evenodd" clip-rule="evenodd" d="M81.355 35.4229C79.6357 35.4229 78.0769 35.0139 76.6784 34.1959C75.3029 33.3532 74.214 32.213 73.4116 30.7753C72.6093 29.3377 72.2081 27.7266 72.2081 25.9419C72.2081 24.1573 72.6093 22.5586 73.4116 21.1457C74.214 19.7328 75.3029 18.6174 76.6784 17.7995C78.0539 16.9566 79.6128 16.5353 81.355 16.5353C83.0974 16.5353 84.6562 16.9443 86.0317 17.7622C87.4072 18.5802 88.4962 19.7081 89.2985 21.1457C90.1009 22.5586 90.5021 24.1573 90.5021 25.9419C90.5021 27.7266 90.1009 29.3377 89.2985 30.7753C88.4962 32.213 87.4072 33.3532 86.0317 34.1959C84.6562 35.0139 83.0974 35.4229 81.355 35.4229ZM81.355 30.2549C82.1116 30.2549 82.7764 30.0814 83.3496 29.7343C83.9226 29.3625 84.3582 28.8544 84.6562 28.2099C84.9772 27.5407 85.1377 26.7846 85.1377 25.9419C85.1377 25.0992 84.9772 24.3679 84.6562 23.7483C84.3352 23.1038 83.8883 22.6081 83.3151 22.2611C82.7649 21.8892 82.1116 21.7034 81.355 21.7034C80.6215 21.7034 79.9682 21.8892 79.395 22.2611C78.8219 22.6081 78.3749 23.1038 78.0539 23.7483C77.7329 24.3928 77.5726 25.1363 77.5726 25.9791C77.5726 26.7971 77.7329 27.5407 78.0539 28.2099C78.3749 28.8544 78.8219 29.3625 79.395 29.7343C79.9682 30.0814 80.6215 30.2549 81.355 30.2549Z" fill="#007DFC"/>
<path fill-rule="evenodd" clip-rule="evenodd" d="M94.6688 42.0781C96.0672 42.7721 97.6834 43.1191 99.5175 43.1191C101.306 43.1191 102.899 42.7349 104.297 41.9665C105.696 41.1981 106.796 40.1324 107.598 38.7691C108.401 37.4058 108.802 35.7947 108.802 33.9356V16.9443H103.644V18.1583C103.26 17.8092 102.824 17.5161 102.337 17.2789C101.443 16.8079 100.423 16.5724 99.2767 16.5724C97.7408 16.5724 96.3767 16.969 95.1847 17.7622C93.9924 18.5306 93.0526 19.5964 92.3648 20.9597C91.677 22.2982 91.3333 23.8102 91.3333 25.4957C91.3333 27.1565 91.677 28.6684 92.3648 30.0317C93.0526 31.395 93.9924 32.4733 95.1847 33.2664C96.3767 34.0595 97.7408 34.4562 99.2767 34.4562C100.4 34.4562 101.42 34.2207 102.337 33.7498C102.781 33.5216 103.183 33.2528 103.541 32.9432V34.0844C103.541 35.3485 103.162 36.3276 102.406 37.0216C101.672 37.7157 100.652 38.0626 99.3455 38.0626C98.291 38.0626 97.3854 37.8644 96.6289 37.4677C95.8953 37.0712 95.2304 36.4887 94.6344 35.7203L91.4021 39.2152C92.2044 40.4546 93.2934 41.4089 94.6688 42.0781ZM102.165 28.8791C101.638 29.2261 101.008 29.3997 100.274 29.3997C99.5403 29.3997 98.8984 29.2261 98.3482 28.8791C97.8209 28.5321 97.4083 28.0611 97.1103 27.4662C96.8123 26.8466 96.6633 26.1897 96.6633 25.4957C96.6633 24.7521 96.8123 24.0829 97.1103 23.488C97.4083 22.8931 97.8324 22.4221 98.3826 22.0751C98.9328 21.7281 99.5632 21.5546 100.274 21.5546C101.008 21.5546 101.638 21.7281 102.165 22.0751C102.715 22.4221 103.128 22.8931 103.403 23.488C103.701 24.0829 103.85 24.7521 103.85 25.4957C103.85 26.2393 103.701 26.9085 103.403 27.5034C103.128 28.0735 102.715 28.5321 102.165 28.8791Z" fill="#007DFC"/>
<path fill-rule="evenodd" clip-rule="evenodd" d="M119.875 35.4229C118.155 35.4229 116.596 35.0139 115.198 34.1959C113.822 33.3532 112.733 32.213 111.931 30.7753C111.128 29.3377 110.727 27.7266 110.727 25.9419C110.727 24.1573 111.128 22.5586 111.931 21.1457C112.733 19.7328 113.822 18.6174 115.198 17.7995C116.573 16.9566 118.132 16.5353 119.875 16.5353C121.616 16.5353 123.175 16.9443 124.55 17.7622C125.926 18.5802 127.015 19.7081 127.817 21.1457C128.62 22.5586 129.021 24.1573 129.021 25.9419C129.021 27.7266 128.62 29.3377 127.817 30.7753C127.015 32.213 125.926 33.3532 124.55 34.1959C123.175 35.0139 121.616 35.4229 119.875 35.4229ZM119.875 30.2549C120.63 30.2549 121.295 30.0814 121.869 29.7343C122.441 29.3625 122.877 28.8544 123.175 28.2099C123.496 27.5407 123.657 26.7846 123.657 25.9419C123.657 25.0992 123.496 24.3679 123.175 23.7483C122.854 23.1038 122.408 22.6081 121.834 22.2611C121.284 21.8892 120.63 21.7034 119.875 21.7034C119.141 21.7034 118.487 21.8892 117.914 22.2611C117.341 22.6081 116.894 23.1038 116.573 23.7483C116.252 24.3928 116.091 25.1363 116.091 25.9791C116.091 26.7971 116.252 27.5407 116.573 28.2099C116.894 28.8544 117.341 29.3625 117.914 29.7343C118.487 30.0814 119.141 30.2549 119.875 30.2549Z" fill="#007DFC"/>
<path fill-rule="evenodd" clip-rule="evenodd" d="M148.859 35.3856C147.737 35.3856 146.704 35.1502 145.764 34.6793C145.27 34.4314 144.823 34.1355 144.424 33.7915V42.6358H139.231V16.9443H144.492V18.1914C144.874 17.8538 145.298 17.562 145.764 17.3161C146.704 16.8202 147.737 16.5724 148.859 16.5724C150.441 16.5724 151.84 16.9814 153.054 17.7994C154.293 18.6173 155.255 19.7327 155.943 21.1456C156.654 22.5585 157.009 24.1696 157.009 25.979C157.009 27.7885 156.654 29.3996 155.943 30.8125C155.255 32.2254 154.293 33.3407 153.054 34.1587C151.84 34.9767 150.441 35.3856 148.859 35.3856ZM147.897 30.2548C148.653 30.2548 149.307 30.0689 149.857 29.6971C150.43 29.3253 150.877 28.8171 151.198 28.1727C151.519 27.5282 151.679 26.797 151.679 25.979C151.679 25.1363 151.519 24.3927 151.198 23.7483C150.877 23.1038 150.43 22.6081 149.857 22.2611C149.307 21.8892 148.665 21.7033 147.931 21.7033C147.198 21.7033 146.544 21.8892 145.971 22.2611C145.42 22.6081 144.986 23.1038 144.665 23.7483C144.344 24.3927 144.183 25.1363 144.183 25.979C144.183 26.797 144.332 27.5282 144.63 28.1727C144.951 28.8171 145.398 29.3253 145.971 29.6971C146.544 30.0689 147.186 30.2548 147.897 30.2548Z" fill="#007DFC"/>
<path d="M162.158 35.051C163.121 35.3237 164.095 35.46 165.081 35.46C167.167 35.46 168.817 34.9395 170.033 33.8984C171.27 32.8574 171.889 31.457 171.889 29.6971C171.889 28.5569 171.695 27.6397 171.305 26.9458C170.915 26.227 170.411 25.6568 169.792 25.2355C169.173 24.8141 168.519 24.4794 167.831 24.2315C167.144 23.9837 166.49 23.773 165.872 23.5995C165.253 23.4259 164.749 23.2277 164.358 23.0046C163.969 22.7815 163.774 22.484 163.774 22.1123C163.774 21.7652 163.924 21.5049 164.221 21.3314C164.519 21.1332 164.966 21.0341 165.562 21.0341C166.181 21.0341 166.811 21.1703 167.453 21.443C168.118 21.7156 168.714 22.1867 169.241 22.8559L172.233 19.5841C171.477 18.543 170.491 17.7621 169.276 17.2417C168.084 16.6964 166.777 16.4237 165.356 16.4237C164.004 16.4237 162.823 16.6716 161.814 17.1673C160.805 17.6631 160.025 18.3447 159.476 19.2122C158.926 20.0549 158.65 21.0588 158.65 22.2239C158.65 23.3145 158.846 24.2192 159.235 24.938C159.624 25.632 160.129 26.1774 160.747 26.5739C161.367 26.9705 162.021 27.2804 162.708 27.5034C163.395 27.7265 164.049 27.9372 164.668 28.1355C165.287 28.309 165.792 28.5197 166.181 28.7676C166.594 28.9907 166.8 29.3253 166.8 29.7714C166.8 30.1184 166.628 30.391 166.284 30.5894C165.963 30.7876 165.494 30.8868 164.874 30.8868C163.98 30.8868 163.155 30.7133 162.399 30.3663C161.642 29.9945 160.988 29.4864 160.438 28.8419L157.447 32.1138C158.02 32.783 158.708 33.378 159.51 33.8984C160.335 34.3941 161.218 34.7783 162.158 35.051Z" fill="#007DFC"/>
<path d="M181.483 35.4229C179.948 35.4229 178.584 35.0883 177.392 34.419C176.222 33.725 175.306 32.7831 174.641 31.5933C173.975 30.3788 173.644 28.9908 173.644 27.4291V16.9443H178.905V27.3548C178.905 27.9744 178.996 28.5074 179.18 28.9535C179.386 29.3997 179.684 29.7467 180.074 29.9946C180.464 30.2424 180.934 30.3664 181.483 30.3664C182.263 30.3664 182.882 30.1061 183.341 29.5855C183.8 29.0402 184.028 28.2967 184.028 27.3548V16.9443H189.29V27.3919C189.29 28.9783 188.958 30.3788 188.292 31.5933C187.627 32.7831 186.711 33.725 185.541 34.419C184.372 35.0883 183.02 35.4229 181.483 35.4229Z" fill="#007DFC"/>
<path d="M197.166 16.9443H191.905V35.0139H197.166V24.4546C197.166 23.835 197.281 23.3145 197.51 22.8931C197.762 22.4717 198.095 22.1494 198.507 21.9264C198.921 21.6785 199.39 21.5546 199.917 21.5546C200.674 21.5546 201.304 21.8148 201.808 22.3354C202.336 22.8311 202.6 23.5376 202.6 24.4546V35.0139H207.861V24.4546C207.861 23.835 207.976 23.3145 208.205 22.8931C208.457 22.4717 208.789 22.1494 209.202 21.9264C209.614 21.6785 210.085 21.5546 210.612 21.5546C211.369 21.5546 211.999 21.8148 212.503 22.3354C213.03 22.8311 213.293 23.5376 213.293 24.4546V35.0139H218.556V23.8226C218.556 22.3106 218.258 21.0217 217.661 19.9559C217.088 18.8652 216.297 18.0349 215.289 17.4648C214.303 16.8698 213.168 16.5724 211.884 16.5724C210.577 16.5724 209.396 16.8823 208.342 17.502C207.657 17.8967 207.059 18.4063 206.546 19.0305C206.067 18.3776 205.486 17.8433 204.8 17.4275C203.884 16.8575 202.84 16.5724 201.672 16.5724C200.433 16.5724 199.322 16.8575 198.336 17.4275C197.907 17.6647 197.517 17.9488 197.166 18.2798V16.9443Z" fill="#007DFC"/>
</svg>
