<svg width="524" height="103" viewBox="0 0 524 103" fill="none" xmlns="http://www.w3.org/2000/svg">
<g filter="url(#filter0_d_6_3)">
<rect x="4" width="516" height="95" rx="47.5" fill="white"/>
<rect x="338" y="13" width="168" height="71" rx="35.5" fill="#0B57B0"/>
<path d="M390.838 39.96V42.7H387.118V54H383.698V42.7H379.978V39.96H390.838ZM395.974 44.7C396.374 44.0867 396.874 43.6067 397.474 43.26C398.074 42.9 398.741 42.72 399.474 42.72V46.34H398.534C397.681 46.34 397.041 46.5267 396.614 46.9C396.188 47.26 395.974 47.9 395.974 48.82V54H392.554V42.84H395.974V44.7ZM412.509 42.84L405.509 59.3H401.829L404.389 53.62L399.849 42.84H403.669L406.249 49.82L408.809 42.84H412.509ZM423.584 45.68H421.744V54H418.324V45.68H417.084V42.84H418.324V42.52C418.324 41.1467 418.717 40.1067 419.504 39.4C420.291 38.68 421.444 38.32 422.964 38.32C423.217 38.32 423.404 38.3267 423.524 38.34V41.24C422.871 41.2 422.411 41.2933 422.144 41.52C421.877 41.7467 421.744 42.1533 421.744 42.74V42.84H423.584V45.68ZM430.271 54.16C429.178 54.16 428.191 53.9267 427.311 53.46C426.445 52.9933 425.758 52.3267 425.251 51.46C424.758 50.5933 424.511 49.58 424.511 48.42C424.511 47.2733 424.765 46.2667 425.271 45.4C425.778 44.52 426.471 43.8467 427.351 43.38C428.231 42.9133 429.218 42.68 430.311 42.68C431.405 42.68 432.391 42.9133 433.271 43.38C434.151 43.8467 434.845 44.52 435.351 45.4C435.858 46.2667 436.111 47.2733 436.111 48.42C436.111 49.5667 435.851 50.58 435.331 51.46C434.825 52.3267 434.125 52.9933 433.231 53.46C432.351 53.9267 431.365 54.16 430.271 54.16ZM430.271 51.2C430.925 51.2 431.478 50.96 431.931 50.48C432.398 50 432.631 49.3133 432.631 48.42C432.631 47.5267 432.405 46.84 431.951 46.36C431.511 45.88 430.965 45.64 430.311 45.64C429.645 45.64 429.091 45.88 428.651 46.36C428.211 46.8267 427.991 47.5133 427.991 48.42C427.991 49.3133 428.205 50 428.631 50.48C429.071 50.96 429.618 51.2 430.271 51.2ZM441.346 44.7C441.746 44.0867 442.246 43.6067 442.846 43.26C443.446 42.9 444.112 42.72 444.846 42.72V46.34H443.906C443.052 46.34 442.412 46.5267 441.986 46.9C441.559 47.26 441.346 47.9 441.346 48.82V54H437.926V42.84H441.346V44.7ZM452.439 41.68C451.839 41.68 451.345 41.5067 450.959 41.16C450.585 40.8 450.399 40.36 450.399 39.84C450.399 39.3067 450.585 38.8667 450.959 38.52C451.345 38.16 451.839 37.98 452.439 37.98C453.025 37.98 453.505 38.16 453.879 38.52C454.265 38.8667 454.459 39.3067 454.459 39.84C454.459 40.36 454.265 40.8 453.879 41.16C453.505 41.5067 453.025 41.68 452.439 41.68ZM454.139 42.84V54H450.719V42.84H454.139ZM462.837 51.1V54H461.097C459.857 54 458.89 53.7 458.197 53.1C457.504 52.4867 457.157 51.4933 457.157 50.12V45.68H455.797V42.84H457.157V40.12H460.577V42.84H462.817V45.68H460.577V50.16C460.577 50.4933 460.657 50.7333 460.817 50.88C460.977 51.0267 461.244 51.1 461.617 51.1H462.837Z" fill="white"/>
<path d="M45.3464 42.96L40.4864 52.36V57H37.0664V52.36L32.2064 42.96H36.0864L38.8064 48.84L41.5064 42.96H45.3464ZM51.8044 57.16C50.711 57.16 49.7244 56.9267 48.8444 56.46C47.9777 55.9933 47.291 55.3267 46.7844 54.46C46.291 53.5933 46.0444 52.58 46.0444 51.42C46.0444 50.2733 46.2977 49.2667 46.8044 48.4C47.311 47.52 48.0044 46.8467 48.8844 46.38C49.7644 45.9133 50.751 45.68 51.8444 45.68C52.9377 45.68 53.9244 45.9133 54.8044 46.38C55.6844 46.8467 56.3777 47.52 56.8844 48.4C57.391 49.2667 57.6444 50.2733 57.6444 51.42C57.6444 52.5667 57.3844 53.58 56.8644 54.46C56.3577 55.3267 55.6577 55.9933 54.7644 56.46C53.8844 56.9267 52.8977 57.16 51.8044 57.16ZM51.8044 54.2C52.4577 54.2 53.011 53.96 53.4644 53.48C53.931 53 54.1644 52.3133 54.1644 51.42C54.1644 50.5267 53.9377 49.84 53.4844 49.36C53.0444 48.88 52.4977 48.64 51.8444 48.64C51.1777 48.64 50.6244 48.88 50.1844 49.36C49.7444 49.8267 49.5244 50.5133 49.5244 51.42C49.5244 52.3133 49.7377 53 50.1644 53.48C50.6044 53.96 51.151 54.2 51.8044 54.2ZM70.4788 45.84V57H67.0588V55.48C66.7121 55.9733 66.2388 56.3733 65.6388 56.68C65.0521 56.9733 64.3988 57.12 63.6788 57.12C62.8254 57.12 62.0721 56.9333 61.4188 56.56C60.7654 56.1733 60.2588 55.62 59.8988 54.9C59.5388 54.18 59.3588 53.3333 59.3588 52.36V45.84H62.7588V51.9C62.7588 52.6467 62.9521 53.2267 63.3388 53.64C63.7254 54.0533 64.2454 54.26 64.8988 54.26C65.5654 54.26 66.0921 54.0533 66.4788 53.64C66.8654 53.2267 67.0588 52.6467 67.0588 51.9V45.84H70.4788ZM76.3553 47.7C76.7553 47.0867 77.2553 46.6067 77.8553 46.26C78.4553 45.9 79.122 45.72 79.8553 45.72V49.34H78.9153C78.062 49.34 77.422 49.5267 76.9953 49.9C76.5686 50.26 76.3553 50.9 76.3553 51.82V57H72.9353V45.84H76.3553V47.7ZM96.2483 51.24C96.2483 51.56 96.2283 51.8933 96.1883 52.24H88.4483C88.5016 52.9333 88.7216 53.4667 89.1083 53.84C89.5083 54.2 89.9949 54.38 90.5683 54.38C91.4216 54.38 92.0149 54.02 92.3483 53.3H95.9883C95.8016 54.0333 95.4616 54.6933 94.9683 55.28C94.4883 55.8667 93.8816 56.3267 93.1483 56.66C92.4149 56.9933 91.5949 57.16 90.6883 57.16C89.5949 57.16 88.6216 56.9267 87.7683 56.46C86.9149 55.9933 86.2483 55.3267 85.7683 54.46C85.2883 53.5933 85.0483 52.58 85.0483 51.42C85.0483 50.26 85.2816 49.2467 85.7483 48.38C86.2283 47.5133 86.8949 46.8467 87.7483 46.38C88.6016 45.9133 89.5816 45.68 90.6883 45.68C91.7683 45.68 92.7283 45.9067 93.5683 46.36C94.4083 46.8133 95.0616 47.46 95.5283 48.3C96.0083 49.14 96.2483 50.12 96.2483 51.24ZM92.7483 50.34C92.7483 49.7533 92.5483 49.2867 92.1483 48.94C91.7483 48.5933 91.2483 48.42 90.6483 48.42C90.0749 48.42 89.5883 48.5867 89.1883 48.92C88.8016 49.2533 88.5616 49.7267 88.4683 50.34H92.7483ZM112.293 45.72C113.679 45.72 114.779 46.14 115.593 46.98C116.419 47.82 116.833 48.9867 116.833 50.48V57H113.433V50.94C113.433 50.22 113.239 49.6667 112.853 49.28C112.479 48.88 111.959 48.68 111.293 48.68C110.626 48.68 110.099 48.88 109.713 49.28C109.339 49.6667 109.153 50.22 109.153 50.94V57H105.753V50.94C105.753 50.22 105.559 49.6667 105.173 49.28C104.799 48.88 104.279 48.68 103.613 48.68C102.946 48.68 102.419 48.88 102.033 49.28C101.659 49.6667 101.473 50.22 101.473 50.94V57H98.0525V45.84H101.473V47.24C101.819 46.7733 102.273 46.4067 102.833 46.14C103.393 45.86 104.026 45.72 104.733 45.72C105.573 45.72 106.319 45.9 106.973 46.26C107.639 46.62 108.159 47.1333 108.533 47.8C108.919 47.1867 109.446 46.6867 110.113 46.3C110.779 45.9133 111.506 45.72 112.293 45.72ZM118.544 51.4C118.544 50.2533 118.758 49.2467 119.184 48.38C119.624 47.5133 120.218 46.8467 120.964 46.38C121.711 45.9133 122.544 45.68 123.464 45.68C124.251 45.68 124.938 45.84 125.524 46.16C126.124 46.48 126.584 46.9 126.904 47.42V45.84H130.324V57H126.904V55.42C126.571 55.94 126.104 56.36 125.504 56.68C124.918 57 124.231 57.16 123.444 57.16C122.538 57.16 121.711 56.9267 120.964 56.46C120.218 55.98 119.624 55.3067 119.184 54.44C118.758 53.56 118.544 52.5467 118.544 51.4ZM126.904 51.42C126.904 50.5667 126.664 49.8933 126.184 49.4C125.718 48.9067 125.144 48.66 124.464 48.66C123.784 48.66 123.204 48.9067 122.724 49.4C122.258 49.88 122.024 50.5467 122.024 51.4C122.024 52.2533 122.258 52.9333 122.724 53.44C123.204 53.9333 123.784 54.18 124.464 54.18C125.144 54.18 125.718 53.9333 126.184 53.44C126.664 52.9467 126.904 52.2733 126.904 51.42ZM134.519 44.68C133.919 44.68 133.425 44.5067 133.039 44.16C132.665 43.8 132.479 43.36 132.479 42.84C132.479 42.3067 132.665 41.8667 133.039 41.52C133.425 41.16 133.919 40.98 134.519 40.98C135.105 40.98 135.585 41.16 135.959 41.52C136.345 41.8667 136.539 42.3067 136.539 42.84C136.539 43.36 136.345 43.8 135.959 44.16C135.585 44.5067 135.105 44.68 134.519 44.68ZM136.219 45.84V57H132.799V45.84H136.219ZM142.117 42.2V57H138.697V42.2H142.117ZM146.195 57.16C145.595 57.16 145.102 56.9867 144.715 56.64C144.342 56.28 144.155 55.84 144.155 55.32C144.155 54.7867 144.342 54.34 144.715 53.98C145.102 53.62 145.595 53.44 146.195 53.44C146.782 53.44 147.262 53.62 147.635 53.98C148.022 54.34 148.215 54.7867 148.215 55.32C148.215 55.84 148.022 56.28 147.635 56.64C147.262 56.9867 146.782 57.16 146.195 57.16ZM151.84 57.16C151.24 57.16 150.747 56.9867 150.36 56.64C149.987 56.28 149.8 55.84 149.8 55.32C149.8 54.7867 149.987 54.34 150.36 53.98C150.747 53.62 151.24 53.44 151.84 53.44C152.427 53.44 152.907 53.62 153.28 53.98C153.667 54.34 153.86 54.7867 153.86 55.32C153.86 55.84 153.667 56.28 153.28 56.64C152.907 56.9867 152.427 57.16 151.84 57.16ZM157.485 57.16C156.885 57.16 156.391 56.9867 156.005 56.64C155.631 56.28 155.445 55.84 155.445 55.32C155.445 54.7867 155.631 54.34 156.005 53.98C156.391 53.62 156.885 53.44 157.485 53.44C158.071 53.44 158.551 53.62 158.925 53.98C159.311 54.34 159.505 54.7867 159.505 55.32C159.505 55.84 159.311 56.28 158.925 56.64C158.551 56.9867 158.071 57.16 157.485 57.16ZM163.129 57.16C162.529 57.16 162.036 56.9867 161.649 56.64C161.276 56.28 161.089 55.84 161.089 55.32C161.089 54.7867 161.276 54.34 161.649 53.98C162.036 53.62 162.529 53.44 163.129 53.44C163.716 53.44 164.196 53.62 164.569 53.98C164.956 54.34 165.149 54.7867 165.149 55.32C165.149 55.84 164.956 56.28 164.569 56.64C164.196 56.9867 163.716 57.16 163.129 57.16Z" fill="#AC9F9F"/>
</g>
<defs>
<filter id="filter0_d_6_3" x="0" y="0" width="524" height="103" filterUnits="userSpaceOnUse" color-interpolation-filters="sRGB">
<feFlood flood-opacity="0" result="BackgroundImageFix"/>
<feColorMatrix in="SourceAlpha" type="matrix" values="0 0 0 0 0 0 0 0 0 0 0 0 0 0 0 0 0 0 127 0" result="hardAlpha"/>
<feOffset dy="4"/>
<feGaussianBlur stdDeviation="2"/>
<feComposite in2="hardAlpha" operator="out"/>
<feColorMatrix type="matrix" values="0 0 0 0 0 0 0 0 0 0 0 0 0 0 0 0 0 0 0.25 0"/>
<feBlend mode="normal" in2="BackgroundImageFix" result="effect1_dropShadow_6_3"/>
<feBlend mode="normal" in="SourceGraphic" in2="effect1_dropShadow_6_3" result="shape"/>
</filter>
</defs>
</svg>
